<?xml version="1.0" encoding="utf-8"?>
<!-- Generator: Adobe Illustrator 24.0.1, SVG Export Plug-In . SVG Version: 6.00 Build 0)  -->
<svg version="1.1" id="Layer_1" xmlns="http://www.w3.org/2000/svg" xmlns:xlink="http://www.w3.org/1999/xlink" x="0px" y="0px"
	 viewBox="0 0 1043.95 287.99" style="enable-background:new 0 0 1043.95 287.99;" xml:space="preserve">
<style type="text/css">
	.st0{fill:#233F84;}
	.st1{fill:#ABDBEB;}
	.st2{fill:#4CBFDC;}
	.st3{fill:#7BCAE3;}
	.st4{fill:#2C95C1;}
	.st5{fill:#1E68A5;}
	.st6{fill:#23B9DA;}
	.st7{fill:#33B1D3;}
	.st8{fill:#1E7CB8;}
	.st9{clip-path:url(#SVGID_2_);fill:url(#SVGID_3_);}
	.st10{fill:#223F84;}
	.st11{fill:#A0DBEB;}
	.st12{fill:#3BC0DD;}
	.st13{fill:#6BCCE2;}
	.st14{fill:#27BADA;}
	.st15{fill:#207DB8;}
</style>
<path class="st0" d="M326.12,59.38c0.89,0,1.76,0.06,2.63,0.16c-2.93-2-6.46-3.17-10.28-3.17c-0.11,0-0.22,0.01-0.33,0.01
	c0.45,1.33,0.78,2.71,0.97,4.14C321.31,59.78,323.66,59.38,326.12,59.38"/>
<path class="st1" d="M319.11,60.52c0.03,0.24,0.06,0.47,0.09,0.71c8.34,3.12,14.27,11.16,14.27,20.58c0,1.03-0.08,2.03-0.21,3.02
	c0.05,0.12,0.09,0.24,0.14,0.36c2.11-2.98,3.35-6.62,3.35-10.54c0-6.29-3.17-11.82-8-15.11c-0.86-0.11-1.74-0.16-2.63-0.16
	C323.67,59.37,321.31,59.78,319.11,60.52"/>
<path class="st2" d="M333.4,85.19c-0.05-0.12-0.09-0.24-0.14-0.36c-0.03,0.24-0.07,0.48-0.11,0.71
	C333.23,85.43,333.31,85.31,333.4,85.19"/>
<path class="st0" d="M311.49,59.84c2.32,0,4.56,0.36,6.66,1.03c0.31-0.13,0.63-0.24,0.96-0.35c-0.19-1.43-0.52-2.81-0.97-4.14
	c-4.12,0.07-7.91,1.51-10.94,3.88C308.59,59.98,310.02,59.84,311.49,59.84"/>
<path class="st1" d="M319.11,60.52c-0.32,0.11-0.64,0.22-0.96,0.35c0.35,0.11,0.7,0.23,1.05,0.36
	C319.17,60.99,319.14,60.76,319.11,60.52"/>
<path class="st0" d="M303.16,84.63c0.5,0.77,1.06,1.5,1.67,2.18c-0.21-0.83-0.37-1.68-0.48-2.54
	C303.95,84.39,303.56,84.52,303.16,84.63"/>
<path class="st3" d="M317.62,71.87c7.07,1.52,12.88,6.44,15.63,12.97c0.14-0.99,0.21-2,0.21-3.02c0-9.42-5.94-17.46-14.27-20.58
	c0.08,0.73,0.11,1.46,0.11,2.2C319.3,66.42,318.7,69.27,317.62,71.87"/>
<path class="st2" d="M317.62,71.87c-1.03,2.46-2.48,4.7-4.29,6.61c5.24,2.82,9.2,7.69,10.81,13.54c3.63-1.19,6.77-3.48,9-6.48
	c0.04-0.24,0.08-0.47,0.11-0.71C330.51,78.31,324.7,73.39,317.62,71.87"/>
<path class="st4" d="M318.47,92.93c1.98,0,3.89-0.32,5.68-0.9c-1.61-5.86-5.57-10.73-10.81-13.54c-2.45,2.61-5.53,4.62-9,5.79
	c0.12,0.86,0.27,1.71,0.49,2.54C308.17,90.56,313.04,92.93,318.47,92.93"/>
<path class="st5" d="M300.19,74.65c0,0.27,0.01,0.56,0.02,0.83c1.75-1.25,3.69-2.26,5.78-2.96c2.34-5.32,6.72-9.54,12.15-11.65
	c-2.1-0.67-4.34-1.03-6.66-1.03c-1.47,0-2.9,0.15-4.29,0.42C302.93,63.61,300.19,68.8,300.19,74.65"/>
<path class="st6" d="M302.95,75.88c0.63,0,1.25,0.03,1.86,0.08c0.3-1.19,0.7-2.34,1.18-3.44c-2.08,0.7-4.03,1.7-5.78,2.96
	c0.01,0.19,0.02,0.38,0.04,0.57C301.13,75.94,302.04,75.88,302.95,75.88"/>
<path class="st0" d="M304.14,81.35c0-1.86,0.23-3.66,0.67-5.39c-0.61-0.05-1.23-0.08-1.85-0.08c-0.92,0-1.82,0.06-2.7,0.17
	c0.24,3.15,1.27,6.08,2.91,8.58c0.4-0.11,0.8-0.23,1.18-0.36C304.21,83.31,304.14,82.34,304.14,81.35"/>
<path class="st7" d="M305.99,72.52c2.2-0.74,4.55-1.15,7-1.15c1.59,0,3.14,0.18,4.63,0.5c1.08-2.6,1.68-5.44,1.68-8.43
	c0-0.75-0.04-1.48-0.11-2.21c-0.35-0.13-0.69-0.25-1.05-0.36C312.71,62.99,308.33,67.2,305.99,72.52"/>
<path class="st8" d="M313.34,78.48c1.8-1.92,3.26-4.15,4.29-6.61c-1.5-0.32-3.04-0.49-4.63-0.49c-2.45,0-4.8,0.4-7,1.14
	c-0.48,1.11-0.88,2.26-1.18,3.44C307.88,76.21,310.76,77.1,313.34,78.48"/>
<path class="st7" d="M304.14,81.35c0,0.99,0.07,1.96,0.2,2.92c3.47-1.17,6.55-3.17,9-5.78c-2.58-1.38-5.46-2.26-8.53-2.52
	C304.38,77.68,304.14,79.49,304.14,81.35"/>
<g>
	<g>
		<defs>
			<path id="SVGID_1_" d="M310.5,197.06h23.31v-92.9H310.5V197.06z M67.17,170.24c-4.76-5-7.14-11.55-7.14-19.63
				c0-7.85,2.41-14.3,7.23-19.34c4.82-5.04,10.85-7.56,18.09-7.56c7.41,0,13.5,2.49,18.26,7.47c4.76,4.98,7.14,11.45,7.14,19.42
				c0,7.97-2.43,14.49-7.27,19.56c-4.85,5.06-10.92,7.59-18.21,7.59C77.96,177.75,71.93,175.25,67.17,170.24 M52.77,114.4
				c-10.65,9.68-15.96,21.77-15.96,36.29c0,13.55,4.71,25.06,14.13,34.53c9.42,9.48,20.79,14.22,34.11,14.22
				c9.05,0,17.33-2.16,24.85-6.45c7.51-4.3,13.45-10.26,17.8-17.88c4.35-7.64,6.53-15.83,6.53-24.6c0-8.7-2.17-16.82-6.49-24.33
				c-4.33-7.51-10.34-13.46-18.06-17.84c-7.71-4.38-15.95-6.58-24.72-6.58C72.83,101.76,62.1,105.98,52.77,114.4 M178.26,170.45
				c-4.84-5.09-7.26-11.76-7.26-20.02c0-8.08,2.42-14.63,7.26-19.64c4.84-5,10.93-7.51,18.27-7.51c7.29,0,13.32,2.54,18.1,7.64
				c4.78,5.1,7.17,11.63,7.17,19.59c0,8.03-2.43,14.63-7.3,19.81c-4.87,5.18-10.86,7.77-17.97,7.77
				C189.19,178.09,183.1,175.55,178.26,170.45 M185.69,104.93c-4.89,2.11-9.44,5.26-13.66,9.47v-10.25h-23.13v126.88h23.13v-43.8
				c4.56,4.33,9.14,7.44,13.75,9.34c4.61,1.91,9.59,2.87,14.94,2.87c12.01,0,22.4-4.66,31.17-13.97c8.76-9.3,13.15-20.87,13.15-34.7
				c0-14.34-4.24-26.1-12.72-35.27c-8.48-9.16-18.79-13.75-30.91-13.75C195.82,101.76,190.59,102.82,185.69,104.93 M445.54,106.03
				c-5.38,2.85-9.92,7-13.62,12.47c-2.85-5.46-6.61-9.62-11.28-12.47c-4.67-2.84-9.91-4.27-15.72-4.27
				c-5.76,0-11.07,1.08-15.94,3.24c-4.87,2.16-9.3,5.44-13.29,9.82v-10.68h-23.31v92.9h23.31v-41.33c0-8.94,0.79-15.49,2.35-19.64
				c1.57-4.15,3.94-7.39,7.1-9.69c3.17-2.3,6.69-3.45,10.57-3.45c3.48,0,6.45,0.91,8.9,2.73c2.45,1.83,4.29,4.6,5.52,8.33
				c1.23,3.74,1.84,9.75,1.84,18.06v45h23.48v-41.93c0-8.88,0.77-15.33,2.31-19.34c1.54-4.01,3.88-7.16,7.04-9.44
				c3.16-2.27,6.73-3.41,10.72-3.41c5.23,0,9.16,1.86,11.79,5.59c2.62,3.73,3.93,10.86,3.93,21.39v47.14h23.48v-54.48
				c0-11.15-1.09-19.21-3.29-24.16c-2.19-4.95-5.8-8.97-10.81-12.04c-5.01-3.07-10.82-4.61-17.43-4.61
				C456.8,101.76,450.93,103.19,445.54,106.03 M538.77,170.32c-4.85-5.18-7.28-11.78-7.28-19.81c0-7.97,2.38-14.5,7.15-19.59
				c4.76-5.1,10.75-7.64,17.95-7.64c7.37,0,13.47,2.5,18.3,7.51c4.82,5.01,7.24,11.56,7.24,19.64c0,8.26-2.41,14.93-7.24,20.02
				c-4.82,5.1-10.89,7.64-18.21,7.64C549.59,178.09,543.62,175.51,538.77,170.32 M520.98,115.51c-8.47,9.17-12.71,20.92-12.71,35.27
				c0,13.83,4.38,25.4,13.13,34.7c8.75,9.31,19.13,13.97,31.13,13.97c5.34,0,10.3-0.96,14.88-2.87c4.58-1.9,9.14-5.02,13.69-9.34
				v9.82h23.31v-92.9H581.1v10.25c-4.15-4.21-8.68-7.37-13.56-9.47c-4.89-2.11-10.12-3.16-15.69-3.16
				C539.74,101.76,529.45,106.35,520.98,115.51 M262.77,69.92v34.24h-11.95v20.07h11.95v72.83h23.31v-72.83h13.83v-20.07h-13.83
				V69.92H262.77z M621.92,197.06h23.31V68.3h-23.31V197.06z"/>
		</defs>
		<clipPath id="SVGID_2_">
			<use xlink:href="#SVGID_1_"  style="overflow:visible;"/>
		</clipPath>
		
			<linearGradient id="SVGID_3_" gradientUnits="userSpaceOnUse" x1="2520.5706" y1="723.8073" x2="2523.5361" y2="723.8073" gradientTransform="matrix(205.1697 0 0 -205.1697 -517107.9063 148652.9844)">
			<stop  offset="0" style="stop-color:#233F83"/>
			<stop  offset="1" style="stop-color:#25B9DA"/>
		</linearGradient>
		<rect x="36.81" y="68.3" class="st9" width="608.42" height="162.74"/>
	</g>
	<g>
		<g>
			<path class="st10" d="M877.59,165.92c1.93,2.97,4.09,5.78,6.43,8.41c-0.82-3.2-1.43-6.48-1.87-9.81
				C880.65,165.04,879.13,165.5,877.59,165.92"/>
			<path class="st10" d="M881.39,153.28c0-7.17,0.9-14.13,2.57-20.78c-2.36-0.2-4.74-0.32-7.15-0.32c-3.53,0-7.01,0.24-10.43,0.66
				c0.92,12.15,4.91,23.43,11.22,33.08c1.54-0.43,3.06-0.89,4.56-1.4C881.66,160.85,881.39,157.1,881.39,153.28"/>
			<g>
				<path class="st10" d="M966.15,68.53c3.43,0,6.81,0.23,10.14,0.62c-11.3-7.69-24.94-12.2-39.64-12.2c-0.42,0-0.85,0.02-1.27,0.03
					c1.74,5.12,3,10.46,3.73,15.97C947.6,70.1,956.68,68.53,966.15,68.53"/>
				<path class="st11" d="M939.1,72.96c0.12,0.91,0.25,1.82,0.34,2.74c32.15,12.04,55.04,43.04,55.04,79.39
					c0,3.95-0.29,7.84-0.82,11.64c0.19,0.46,0.36,0.92,0.54,1.38c8.13-11.49,12.93-25.52,12.93-40.67
					c0-24.24-12.23-45.61-30.86-58.3c-3.33-0.4-6.71-0.63-10.14-0.63C956.69,68.52,947.6,70.1,939.1,72.96"/>
				<path class="st12" d="M994.21,168.11c-0.18-0.46-0.35-0.92-0.54-1.38c-0.13,0.92-0.27,1.83-0.43,2.74
					C993.58,169.03,993.89,168.57,994.21,168.11"/>
				<path class="st10" d="M893.19,71.96c5.35-1.06,10.87-1.62,16.53-1.62"/>
				<path class="st10" d="M909.72,70.33c8.95,0,17.57,1.4,25.67,3.97c1.22-0.48,2.46-0.93,3.71-1.35
					c-0.73-5.51-1.99-10.85-3.72-15.98c-15.9,0.28-30.52,5.83-42.18,14.98"/>
				<path class="st11" d="M939.1,72.96c-1.25,0.42-2.48,0.86-3.71,1.34c1.37,0.43,2.71,0.9,4.05,1.4
					C939.35,74.78,939.22,73.87,939.1,72.96"/>
				<path class="st13" d="M933.39,116.73c27.28,5.86,49.68,24.83,60.28,50.01c0.52-3.81,0.82-7.69,0.82-11.64
					c0-36.35-22.89-67.35-55.04-79.39c0.27,2.8,0.42,5.63,0.42,8.5C939.87,95.73,937.56,106.71,933.39,116.73"/>
				<path class="st12" d="M933.39,116.73c-3.95,9.5-9.59,18.12-16.53,25.5c20.2,10.85,35.48,29.66,41.68,52.23
					c14.01-4.57,26.1-13.4,34.71-24.99c0.15-0.91,0.3-1.82,0.42-2.74C983.07,141.56,960.67,122.59,933.39,116.73"/>
				<path class="st4" d="M936.65,197.94c7.64,0,15-1.23,21.89-3.48c-6.2-22.57-21.47-41.38-41.68-52.23
					c-9.46,10.05-21.33,17.8-34.71,22.3c0.44,3.33,1.06,6.61,1.87,9.81C896.93,188.81,915.72,197.94,936.65,197.94"/>
				<path class="st5" d="M893.19,71.95c-16.46,12.91-27.05,32.96-27.05,55.5"/>
				<path class="st5" d="M866.15,127.45c0,1.07,0.04,2.13,0.08,3.19c6.76-4.84,14.26-8.71,22.29-11.41
					c9.01-20.52,25.91-36.77,46.87-44.93c-8.1-2.57-16.72-3.97-25.67-3.97c-5.66,0-11.18,0.57-16.53,1.62"/>
				<path class="st14" d="M876.81,132.18c2.41,0,4.79,0.12,7.15,0.32c1.16-4.58,2.69-9.02,4.56-13.27
					c-8.04,2.7-15.54,6.57-22.29,11.41c0.03,0.74,0.09,1.47,0.14,2.2C869.8,132.43,873.27,132.18,876.81,132.18"/>
				<path class="st7" d="M888.52,119.23c8.48-2.85,17.55-4.41,26.98-4.41c6.14,0,12.12,0.66,17.88,1.91
					c4.17-10.02,6.48-21,6.48-32.53c0-2.87-0.15-5.7-0.42-8.5c-1.34-0.5-2.68-0.97-4.05-1.4
					C914.44,82.47,897.54,98.72,888.52,119.23"/>
				<path class="st15" d="M916.86,142.23c6.94-7.38,12.58-16,16.53-25.5c-5.77-1.24-11.75-1.91-17.88-1.91
					c-9.44,0-18.5,1.56-26.98,4.41c-1.87,4.25-3.41,8.69-4.56,13.27C895.78,133.49,906.91,136.89,916.86,142.23"/>
				<path class="st7" d="M881.39,153.28c0,3.82,0.28,7.56,0.76,11.25c13.38-4.5,25.25-12.24,34.71-22.3
					c-9.94-5.34-21.08-8.74-32.9-9.73C882.29,139.16,881.39,146.11,881.39,153.28"/>
			</g>
		</g>
		<path class="st10" d="M731.17,120.59c5.23-2.9,9.35-6.59,12.25-10.99c3.28-4.96,4.94-10.52,4.94-16.53
			c0-9.65-3.79-18.09-11.25-25.1c-7.45-7-16.8-10.54-27.79-10.54c-12.31,0-22.68,4.25-30.82,12.63
			c-5.62,5.79-9.17,13.48-10.57,22.86l-0.32,2.18h25.82l0.45-1.27c1.05-2.97,2.88-5.45,5.45-7.37c2.74-2.04,5.83-3.08,9.18-3.08
			c3.78,0,6.87,1.1,9.19,3.28c2.29,2.16,3.46,4.92,3.46,8.2c0,2.54-0.77,4.98-2.3,7.25c-1.54,2.29-3.73,4.12-6.51,5.44
			c-2.73,1.3-6.75,2.17-12.27,2.66l-1.73,0.15v23.24l1.85,0.05c9.07,0.24,16.12,2.3,20.95,6.13c4.92,3.9,7.42,8.74,7.42,14.37
			c0,5.13-1.84,9.54-5.48,13.09c-3.64,3.56-8.31,5.36-13.87,5.36c-5.34,0-9.8-1.59-13.27-4.72c-3.34-3.02-5.59-7.67-6.68-13.83
			l-0.28-1.57h-26.59l0.15,2.04c0.95,13,5.48,23.46,13.46,31.11c8.19,7.86,18.91,11.84,31.86,11.84c13.66,0,25.07-4.22,33.91-12.55
			c8.86-8.34,13.35-18.67,13.35-30.69c0-8.22-2.34-15.47-6.94-21.54C744.03,127.17,738.3,123.11,731.17,120.59z"/>
		<path class="st10" d="M842.43,125.21c-7.6-7.77-16.86-11.88-27.57-12.24l22.76-44.18L814.6,57.27l-34.22,67
			c-4.42,8.54-7.29,14.97-8.52,19.13c-1.24,4.18-1.87,8.39-1.87,12.52c0,10.87,4.07,20.65,12.11,29.05
			c8.05,8.41,18.25,12.68,30.33,12.68c11.53,0,21.52-4.11,29.69-12.21c8.17-8.11,12.31-18.13,12.31-29.78
			C854.41,143.59,850.38,133.34,842.43,125.21z M828.01,155.29c0,4.9-1.59,9.01-4.74,12.21c-3.14,3.19-6.94,4.81-11.3,4.81
			c-4.12,0-7.79-1.64-10.9-4.89c-3.12-3.26-4.7-7.34-4.7-12.13c0-4.8,1.51-8.83,4.48-12c2.96-3.15,6.66-4.75,11.02-4.75
			c4.6,0,8.47,1.6,11.52,4.76C826.46,146.47,828.01,150.5,828.01,155.29z"/>
	</g>
</g>
</svg>
