<svg viewBox="0 0 200 200" xmlns="http://www.w3.org/2000/svg">
  <path fill="#F2F4F8" d="M31.1,-57.7C41.2,-48.1,50.7,-41.4,60.8,-32.3C70.8,-23.2,81.4,-11.6,83.5,1.2C85.6,14,79.2,28,72,42C64.7,56.1,56.6,70.1,44.5,74.2C32.4,78.4,16.2,72.7,1.9,69.4C-12.4,66.1,-24.7,65.1,-38.4,61.8C-52,58.6,-67,52.9,-74,42.2C-81,31.5,-80,15.8,-77.5,1.5C-75,-12.8,-70.9,-25.7,-65.6,-39.5C-60.4,-53.3,-54.1,-68,-43,-77.1C-31.9,-86.1,-15.9,-89.4,-2.7,-84.7C10.5,-80.1,21.1,-67.4,31.1,-57.7Z" transform="translate(100 100)" />
</svg>