<svg width="915" height="475" viewBox="0 0 915 475" fill="none">
<g id="undraw_welcome_cats_thqn 1" clip-path="url(#clip0_0_1)">
<path id="S" d="M147.301 289.364C146.491 282.527 143.208 277.219 137.45 273.44C131.693 269.662 124.631 267.773 116.264 267.773C110.147 267.773 104.794 268.762 100.206 270.741C95.6629 272.721 92.1094 275.442 89.5455 278.906C87.0265 282.369 85.767 286.305 85.767 290.713C85.767 294.402 86.6442 297.573 88.3984 300.227C90.1977 302.835 92.4917 305.017 95.2805 306.771C98.0694 308.481 100.993 309.897 104.052 311.022C107.111 312.102 109.922 312.979 112.486 313.653L126.52 317.432C130.118 318.376 134.122 319.681 138.53 321.345C142.983 323.009 147.234 325.281 151.282 328.16C155.375 330.994 158.749 334.637 161.403 339.09C164.057 343.543 165.384 349.009 165.384 355.486C165.384 362.953 163.427 369.7 159.514 375.727C155.645 381.755 149.978 386.545 142.511 390.099C135.089 393.652 126.07 395.429 115.455 395.429C105.559 395.429 96.9898 393.832 89.7479 390.638C82.5509 387.445 76.8833 382.992 72.745 377.279C68.6518 371.567 66.3352 364.932 65.7955 357.375H83.0682C83.518 362.593 85.2723 366.911 88.331 370.33C91.4347 373.703 95.348 376.222 100.071 377.886C104.839 379.506 109.967 380.315 115.455 380.315C121.842 380.315 127.577 379.281 132.66 377.212C137.743 375.098 141.768 372.174 144.737 368.44C147.706 364.662 149.19 360.254 149.19 355.216C149.19 350.628 147.908 346.894 145.344 344.016C142.781 341.137 139.407 338.798 135.224 336.999C131.04 335.199 126.52 333.625 121.662 332.276L104.659 327.418C93.8636 324.314 85.3172 319.883 79.0199 314.126C72.7225 308.368 69.5739 300.834 69.5739 291.523C69.5739 283.786 71.6655 277.039 75.8487 271.281C80.0769 265.479 85.7446 260.981 92.8516 257.787C100.004 254.548 107.988 252.929 116.804 252.929C125.71 252.929 133.627 254.526 140.554 257.719C147.481 260.868 152.969 265.186 157.017 270.674C161.11 276.162 163.269 282.392 163.494 289.364H147.301Z" fill="#3F3D56"/>
<path id="V" d="M437.152 258.823L478.174 375.144H479.794L520.816 258.823H538.359L487.62 397.005H470.348L419.609 258.823H437.152Z" fill="#3F3D56"/>
<path id="C" d="M766.005 302.005H749.272C748.282 297.192 746.55 292.964 744.076 289.32C741.647 285.677 738.679 282.618 735.17 280.144C731.707 277.625 727.861 275.736 723.632 274.476C719.404 273.217 714.996 272.587 710.408 272.587C702.042 272.587 694.462 274.701 687.67 278.929C680.923 283.158 675.548 289.388 671.544 297.619C667.586 305.851 665.607 315.949 665.607 327.914C665.607 339.879 667.586 349.977 671.544 358.209C675.548 366.44 680.923 372.67 687.67 376.898C694.462 381.126 702.042 383.241 710.408 383.241C714.996 383.241 719.404 382.611 723.632 381.351C727.861 380.092 731.707 378.225 735.17 375.751C738.679 373.232 741.647 370.151 744.076 366.508C746.55 362.819 748.282 358.591 749.272 353.823H766.005C764.745 360.885 762.451 367.205 759.123 372.782C755.794 378.36 751.656 383.106 746.708 387.019C741.76 390.887 736.205 393.834 730.042 395.858C723.925 397.882 717.38 398.894 710.408 398.894C698.623 398.894 688.142 396.015 678.966 390.258C669.79 384.5 662.571 376.313 657.308 365.698C652.045 355.082 649.414 342.488 649.414 327.914C649.414 313.34 652.045 300.745 657.308 290.13C662.571 279.514 669.79 271.328 678.966 265.57C688.142 259.812 698.623 256.934 710.408 256.934C717.38 256.934 723.925 257.946 730.042 259.97C736.205 261.994 741.76 264.963 746.708 268.876C751.656 272.745 755.794 277.468 759.123 283.045C762.451 288.578 764.745 294.898 766.005 302.005Z" fill="#3F3D56"/>
<path id="E" d="M192.719 392.869V254.687H276.114V269.531H209.452V316.221H271.796V331.065H209.452V378.025H277.194V392.869H192.719Z" fill="#6C63FF"/>
<path id="R" d="M316.218 397.005V258.823H362.909C373.704 258.823 382.565 260.667 389.492 264.356C396.419 267.999 401.547 273.014 404.876 279.402C408.204 285.789 409.869 293.053 409.869 301.195C409.869 309.337 408.204 316.556 404.876 322.853C401.547 329.151 396.442 334.099 389.56 337.697C382.678 341.251 373.884 343.027 363.178 343.027H325.394V327.914H362.639C370.016 327.914 375.953 326.834 380.451 324.675C384.994 322.516 388.278 319.457 390.302 315.499C392.371 311.496 393.406 306.728 393.406 301.195C393.406 295.662 392.371 290.827 390.302 286.689C388.233 282.55 384.927 279.357 380.384 277.108C375.841 274.814 369.836 273.667 362.369 273.667H332.951V397.005H316.218ZM381.261 334.931L415.266 397.005H395.835L362.369 334.931H381.261Z" fill="#6C63FF"/>
<path id="I" d="M601.466 260.818V399H584.733V260.818H601.466Z" fill="#6C63FF"/>
<g id="Second Cat">
<path id="Vector" d="M716.088 259.588C715.51 259.596 714.933 259.604 714.347 259.604C713.762 259.604 713.184 259.596 712.606 259.588C681.981 258.889 659.784 239.664 665.434 219.493L679.211 170.286L682.693 157.835L744.418 158.893L748.169 171.073L762.936 219.016C769.187 239.298 746.99 258.889 716.088 259.588Z" fill="#3F3D56"/>
<path id="Vector_2" opacity="0.2" d="M748.169 171.073C737.645 177.117 725.706 180.231 713.584 180.093C701.462 179.954 689.596 176.569 679.211 170.286L682.693 157.835L744.418 158.893L748.169 171.073Z" fill="black"/>
<path id="Vector_3" d="M745.564 221.126C748.231 211.141 756.994 196.738 781.571 179.373C824.433 149.082 798.864 126.371 797.756 125.419C795.432 123.423 795.775 121.182 798.554 120.416C800.169 120.092 801.833 120.118 803.437 120.493C805.04 120.868 806.546 121.583 807.852 122.59C809.239 123.743 841.257 151.214 792.891 185.389C749.362 216.151 758.617 236.231 758.723 236.423C759.89 238.571 758.02 240.289 754.542 240.266C751.065 240.243 747.298 238.485 746.127 236.339C745.881 235.885 743.08 230.421 745.564 221.126Z" fill="#3F3D56"/>
<path id="Vector_4" d="M685.859 266.76C684.923 266.76 683.997 266.575 683.133 266.215C682.269 265.856 681.484 265.329 680.823 264.664C680.161 264 679.637 263.211 679.279 262.343C678.921 261.474 678.737 260.544 678.737 259.604V228.597C678.737 226.699 679.487 224.879 680.823 223.537C682.158 222.195 683.97 221.441 685.859 221.441C687.748 221.441 689.559 222.195 690.895 223.537C692.23 224.879 692.981 226.699 692.981 228.597V259.604C692.981 260.544 692.797 261.474 692.439 262.343C692.081 263.211 691.556 264 690.895 264.664C690.233 265.329 689.448 265.856 688.584 266.215C687.72 266.575 686.794 266.76 685.859 266.76V266.76Z" fill="#3F3D56"/>
<path id="2ndCatLHand" d="M692.103 193.146C691.712 194 691.158 194.768 690.472 195.406C689.785 196.044 688.98 196.541 688.103 196.867C687.226 197.193 686.293 197.342 685.359 197.306C684.424 197.269 683.506 197.049 682.656 196.656L654.619 183.695C652.905 182.901 651.575 181.455 650.921 179.676C650.268 177.897 650.343 175.93 651.132 174.207C651.921 172.484 653.359 171.147 655.129 170.488C656.899 169.829 658.857 169.903 660.573 170.694L688.61 183.655C689.46 184.047 690.224 184.604 690.859 185.294C691.495 185.983 691.989 186.792 692.313 187.673C692.638 188.555 692.786 189.492 692.75 190.431C692.714 191.37 692.494 192.292 692.103 193.146V193.146Z" fill="#3F3D56"/>
<path id="2ndCatRHand" d="M736.591 193.146C736.982 194 737.536 194.768 738.223 195.406C738.909 196.044 739.714 196.541 740.591 196.867C741.468 197.193 742.401 197.342 743.335 197.306C744.27 197.269 745.188 197.049 746.038 196.656L774.075 183.695C775.791 182.902 777.123 181.457 777.779 179.677C778.434 177.897 778.358 175.928 777.569 174.204C776.779 172.48 775.34 171.142 773.569 170.483C771.797 169.825 769.838 169.901 768.122 170.694L740.084 183.655C739.235 184.047 738.47 184.604 737.835 185.294C737.199 185.983 736.705 186.792 736.381 187.673C736.057 188.555 735.908 189.492 735.944 190.431C735.98 191.37 736.2 192.292 736.591 193.146V193.146Z" fill="#3F3D56"/>
<path id="Vector_5" d="M742.835 266.76C743.771 266.76 744.697 266.575 745.561 266.215C746.425 265.856 747.21 265.329 747.872 264.664C748.533 264 749.058 263.211 749.415 262.343C749.773 261.474 749.958 260.544 749.958 259.604V228.597C749.958 226.699 749.207 224.879 747.872 223.537C746.536 222.195 744.724 221.441 742.835 221.441C740.947 221.441 739.135 222.195 737.799 223.537C736.464 224.879 735.713 226.699 735.713 228.597V259.604C735.713 260.544 735.898 261.474 736.255 262.343C736.613 263.211 737.138 264 737.799 264.664C738.461 265.329 739.246 265.856 740.11 266.215C740.974 266.575 741.9 266.76 742.835 266.76V266.76Z" fill="#3F3D56"/>
<path id="Vector_6" d="M772.6 66.0161C773.215 65.2373 773.659 64.3362 773.903 63.3722C774.147 62.4083 774.184 61.4034 774.013 60.4238L770.137 37.5134L766.261 14.603C766.051 13.366 765.522 12.2061 764.725 11.24C763.928 10.2739 762.892 9.53549 761.721 9.09909C760.55 8.66269 759.286 8.54365 758.055 8.75392C756.823 8.9642 755.669 9.49639 754.707 10.297L736.897 25.1249L726.167 34.0582C719.012 32.7797 711.698 32.6689 704.507 33.73L694.171 25.1249L676.361 10.297C675.399 9.49639 674.245 8.96421 673.014 8.75394C671.783 8.54366 670.518 8.66271 669.347 9.09911C668.176 9.5355 667.14 10.2739 666.343 11.24C665.546 12.2061 665.017 13.366 664.807 14.603L660.931 37.5134L657.055 60.4238C656.848 61.6279 656.955 62.8654 657.365 64.0157C650.722 74.2472 646.929 86.0802 646.381 98.2837C645.833 110.487 648.549 122.615 654.247 133.407C659.945 144.198 668.417 153.259 678.782 159.645C689.146 166.032 701.025 169.512 713.182 169.723C725.339 169.934 737.33 166.868 747.908 160.845C758.486 154.822 767.264 146.061 773.33 135.474C779.396 124.887 782.528 112.86 782.399 100.645C782.271 88.4297 778.887 76.4721 772.6 66.0161V66.0161Z" fill="#3F3D56"/>
<path id="Vector_7" d="M674.576 19.6854C674.154 19.686 673.735 19.7624 673.339 19.911C672.758 20.1237 672.243 20.4883 671.848 20.9672C671.452 21.4461 671.191 22.0221 671.091 22.6359L666.391 50.4191C666.287 51.0315 666.346 51.6606 666.561 52.243C666.776 52.8255 667.14 53.3408 667.616 53.7371C668.092 54.1335 668.664 54.3969 669.273 54.501C669.883 54.6051 670.509 54.5461 671.089 54.33L697.387 44.5283C697.967 44.3122 698.479 43.9467 698.874 43.4685C699.268 42.9902 699.53 42.416 699.634 41.8037C699.738 41.1913 699.679 40.5624 699.464 39.98C699.249 39.3977 698.885 38.8824 698.409 38.4861L698.409 38.4853L676.812 20.5042C676.185 19.9767 675.394 19.6869 674.576 19.6854V19.6854Z" fill="#E6E6E6"/>
<path id="Vector_8" d="M756.492 19.6854C755.675 19.6869 754.883 19.9767 754.257 20.5042L732.659 38.4861C732.183 38.8824 731.819 39.3977 731.604 39.98C731.389 40.5624 731.331 41.1913 731.434 41.8037C731.538 42.416 731.8 42.9902 732.194 43.4685C732.589 43.9467 733.102 44.3122 733.681 44.5283L759.98 54.33C760.559 54.5461 761.186 54.6051 761.795 54.501C762.405 54.3969 762.976 54.1335 763.452 53.7371C763.928 53.3408 764.292 52.8255 764.507 52.243C764.722 51.6606 764.781 51.0315 764.678 50.4191L759.977 22.6359C759.877 22.0221 759.616 21.4461 759.221 20.9672C758.826 20.4883 758.311 20.1237 757.729 19.911C757.333 19.7624 756.914 19.686 756.492 19.6854Z" fill="#E6E6E6"/>
<path id="Vector_9" d="M714.347 120.467C719.592 120.467 723.843 116.195 723.843 110.926C723.843 105.657 719.592 101.385 714.347 101.385C709.103 101.385 704.851 105.657 704.851 110.926C704.851 116.195 709.103 120.467 714.347 120.467Z" fill="#E6E6E6"/>
<path id="Vector_10" d="M714.347 108.541C717.844 108.541 720.678 107.473 720.678 106.156C720.678 104.838 717.844 103.77 714.347 103.77C710.851 103.77 708.016 104.838 708.016 106.156C708.016 107.473 710.851 108.541 714.347 108.541Z" fill="#3F3D56"/>
<path id="Vector_11" d="M709.599 116.492H718.304V127.225C718.304 127.799 718.191 128.368 717.972 128.898C717.754 129.429 717.433 129.911 717.029 130.317C716.625 130.723 716.145 131.045 715.617 131.265C715.089 131.485 714.523 131.598 713.951 131.598V131.598C712.797 131.598 711.69 131.137 710.874 130.317C710.058 129.497 709.599 128.385 709.599 127.225V116.492H709.599Z" fill="#FF6584"/>
<path id="Vector_12" d="M714.875 8.27203C714.419 9.22307 713.976 10.1844 713.559 11.1654C708.648 22.673 706.992 35.3187 708.773 47.711C709.664 46.4122 710.6 45.0591 711.552 43.6911C709.513 31.7976 710.66 19.573 714.875 8.27203V8.27203Z" fill="#3F3D56"/>
<path id="Vector_13" d="M721.998 17.0178C721.541 17.9689 721.098 18.9302 720.681 19.9112C715.77 31.4188 714.114 44.0645 715.895 56.4569C716.786 55.1581 717.722 53.8049 718.674 52.4369C716.635 40.5434 717.782 28.3188 721.998 17.0178V17.0178Z" fill="#3F3D56"/>
<path id="Vector_14" d="M743.956 188.715L742.952 175.896L741.949 163.076C741.895 162.384 741.66 161.718 741.269 161.146C740.877 160.574 740.343 160.115 739.719 159.816C739.096 159.517 738.405 159.388 737.716 159.443C737.027 159.497 736.364 159.733 735.795 160.126L725.246 167.409L717.543 172.727C717.051 172.148 716.44 171.683 715.751 171.364C715.063 171.045 714.314 170.88 713.556 170.88C712.798 170.88 712.049 171.045 711.36 171.364C710.672 171.683 710.06 172.148 709.568 172.727L701.865 167.409L691.317 160.126C690.747 159.733 690.085 159.497 689.396 159.443C688.707 159.388 688.016 159.517 687.392 159.816C686.768 160.115 686.234 160.574 685.843 161.146C685.451 161.718 685.217 162.384 685.163 163.076L684.159 175.896L683.156 188.715C683.102 189.407 683.23 190.102 683.527 190.728C683.825 191.355 684.281 191.892 684.851 192.285C685.421 192.678 686.083 192.914 686.772 192.968C687.461 193.023 688.152 192.894 688.776 192.595L700.328 187.058L709.819 182.509C710.307 183.006 710.889 183.401 711.531 183.67C712.172 183.94 712.86 184.079 713.556 184.079C714.251 184.079 714.939 183.94 715.581 183.67C716.222 183.401 716.804 183.006 717.292 182.509L726.784 187.058L738.336 192.595C738.959 192.894 739.65 193.023 740.339 192.968C741.028 192.914 741.691 192.678 742.26 192.285C742.83 191.892 743.286 191.355 743.584 190.728C743.882 190.102 744.01 189.407 743.956 188.715V188.715Z" fill="#6C63FF"/>
<path id="Vector_15" d="M701.686 102.975C702.997 102.975 704.06 101.907 704.06 100.59C704.06 99.2728 702.997 98.2049 701.686 98.2049C700.374 98.2049 699.312 99.2728 699.312 100.59C699.312 101.907 700.374 102.975 701.686 102.975Z" fill="#E6E6E6"/>
<path id="Vector_16" d="M727.009 102.975C728.32 102.975 729.383 101.907 729.383 100.59C729.383 99.2728 728.32 98.2049 727.009 98.2049C725.698 98.2049 724.635 99.2728 724.635 100.59C724.635 101.907 725.698 102.975 727.009 102.975Z" fill="#E6E6E6"/>
</g>
<g id="First Cat">
<path id="Vector_17" d="M240.232 251.316C240.81 251.324 241.387 251.332 241.973 251.332C242.558 251.332 243.136 251.324 243.714 251.316C274.339 250.617 296.536 231.392 290.886 211.221L277.109 162.014L273.627 149.563L211.902 150.621L208.151 162.801L193.384 210.744C187.133 231.026 209.33 250.617 240.232 251.316Z" fill="#3F3D56"/>
<path id="Vector_18" opacity="0.2" d="M208.151 162.801C218.675 168.845 230.614 171.959 242.736 171.821C254.858 171.682 266.723 168.297 277.109 162.014L273.627 149.563L211.902 150.621L208.151 162.801Z" fill="black"/>
<path id="Vector_19" d="M203.259 207.021C196.596 199.144 182.542 189.894 152.932 184.764C101.292 175.814 114.729 144.294 115.325 142.957C116.576 140.154 115.311 138.276 112.473 138.778C110.876 139.179 109.382 139.919 108.093 140.947C106.803 141.975 105.747 143.269 104.996 144.741C104.233 146.38 86.9936 184.974 145.264 195.068C197.707 204.158 197.894 226.285 197.88 226.505C197.74 228.948 200.163 229.697 203.296 228.181C206.429 226.665 209.085 223.456 209.229 221.014C209.258 220.498 209.462 214.355 203.259 207.021Z" fill="#3F3D56"/>
<path id="Vector_20" d="M270.461 258.488C271.397 258.488 272.323 258.303 273.187 257.943C274.051 257.584 274.836 257.057 275.497 256.392C276.159 255.728 276.683 254.939 277.041 254.071C277.399 253.202 277.583 252.272 277.583 251.332V220.324C277.581 218.428 276.83 216.61 275.494 215.27C274.159 213.93 272.349 213.177 270.461 213.177C268.574 213.177 266.764 213.93 265.428 215.27C264.093 216.61 263.341 218.428 263.339 220.324V251.332C263.339 252.272 263.523 253.202 263.881 254.071C264.239 254.939 264.764 255.728 265.425 256.392C266.086 257.057 266.872 257.584 267.736 257.943C268.6 258.303 269.526 258.488 270.461 258.488V258.488Z" fill="#3F3D56"/>
<path id="1stCatRHand" d="M264.217 184.874C264.608 185.728 265.162 186.496 265.848 187.134C266.535 187.772 267.339 188.269 268.217 188.595C269.094 188.921 270.026 189.07 270.961 189.034C271.896 188.997 272.814 188.777 273.664 188.384L301.701 175.423C302.552 175.031 303.317 174.475 303.953 173.785C304.59 173.096 305.085 172.287 305.41 171.405C305.735 170.523 305.884 169.586 305.848 168.646C305.812 167.706 305.592 166.783 305.201 165.929C304.81 165.075 304.255 164.306 303.568 163.667C302.881 163.029 302.076 162.532 301.198 162.207C300.32 161.881 299.386 161.733 298.451 161.77C297.516 161.806 296.597 162.028 295.747 162.422L267.71 175.383C266.86 175.775 266.096 176.332 265.461 177.022C264.825 177.711 264.331 178.52 264.007 179.401C263.682 180.283 263.534 181.22 263.57 182.159C263.606 183.098 263.826 184.02 264.217 184.874V184.874Z" fill="#3F3D56"/>
<path id="1stCatLHand" d="M219.729 184.874C219.338 185.728 218.784 186.496 218.097 187.134C217.411 187.772 216.606 188.269 215.729 188.595C214.852 188.921 213.919 189.07 212.985 189.034C212.05 188.997 211.132 188.777 210.282 188.384L182.245 175.423C181.394 175.031 180.628 174.475 179.992 173.785C179.356 173.096 178.861 172.287 178.536 171.405C178.211 170.523 178.062 169.586 178.098 168.646C178.133 167.706 178.353 166.783 178.744 165.929C179.136 165.075 179.69 164.306 180.377 163.667C181.064 163.029 181.87 162.532 182.748 162.207C183.626 161.881 184.559 161.733 185.494 161.77C186.43 161.806 187.348 162.028 188.198 162.422L216.236 175.383C217.085 175.775 217.85 176.332 218.485 177.022C219.12 177.711 219.614 178.52 219.939 179.401C220.263 180.283 220.412 181.22 220.376 182.159C220.34 183.098 220.12 184.02 219.729 184.874Z" fill="#3F3D56"/>
<path id="Vector_21" d="M213.484 258.488C212.549 258.488 211.623 258.303 210.759 257.943C209.895 257.584 209.11 257.057 208.448 256.392C207.787 255.728 207.262 254.939 206.904 254.071C206.546 253.202 206.362 252.272 206.362 251.332V220.324C206.365 218.428 207.116 216.61 208.451 215.27C209.787 213.93 211.597 213.177 213.484 213.177C215.372 213.177 217.182 213.93 218.517 215.27C219.853 216.61 220.604 218.428 220.606 220.324V251.332C220.607 252.272 220.422 253.202 220.064 254.071C219.706 254.939 219.182 255.728 218.521 256.392C217.859 257.057 217.074 257.584 216.21 257.943C215.346 258.303 214.42 258.488 213.484 258.488V258.488Z" fill="#3F3D56"/>
<path id="Vector_22" d="M298.955 55.7436C299.365 54.5933 299.472 53.3559 299.265 52.1518L295.389 29.2414L291.512 6.33096C291.303 5.09396 290.773 3.9341 289.977 2.96796C289.18 2.00182 288.144 1.26346 286.973 0.827058C285.802 0.390659 284.537 0.271601 283.306 0.481875C282.075 0.692148 280.921 1.22434 279.959 2.02494L262.149 16.8528L251.813 25.458C244.622 24.3969 237.308 24.5077 230.152 25.7861L219.422 16.8528L201.613 2.02491C200.651 1.22431 199.497 0.692118 198.265 0.481843C197.034 0.271568 195.77 0.390611 194.599 0.827011C193.428 1.26341 192.392 2.00179 191.595 2.96793C190.798 3.93407 190.268 5.09393 190.059 6.33093L186.183 29.2414L182.307 52.1518C182.136 53.1314 182.173 54.1362 182.417 55.1002C182.66 56.0641 183.105 56.9652 183.72 57.7441C177.425 68.2025 174.035 80.1649 173.902 92.3863C173.769 104.608 176.899 116.642 182.965 127.236C189.032 137.83 197.813 146.596 208.396 152.624C218.979 158.651 230.976 161.719 243.139 161.508C255.302 161.297 267.187 157.815 277.556 151.423C287.925 145.032 296.4 135.966 302.098 125.167C307.797 114.369 310.511 102.234 309.958 90.0244C309.405 77.8149 305.606 65.9773 298.955 55.7436H298.955Z" fill="#3F3D56"/>
<path id="Vector_23" d="M279.508 12.2321L257.911 30.2132L257.911 30.214C257.435 30.6104 257.071 31.1256 256.856 31.708C256.641 32.2903 256.582 32.9193 256.686 33.5316C256.789 34.144 257.052 34.7182 257.446 35.1964C257.841 35.6747 258.353 36.0402 258.933 36.2562L285.231 46.058C285.811 46.274 286.437 46.333 287.047 46.2289C287.656 46.1249 288.228 45.8614 288.704 45.465C289.18 45.0687 289.544 44.5534 289.759 43.971C289.974 43.3885 290.033 42.7595 289.929 42.1471L285.229 14.3638C285.128 13.75 284.867 13.1741 284.472 12.6952C284.077 12.2163 283.562 11.8517 282.981 11.6389C282.585 11.4904 282.166 11.414 281.744 11.4134C280.926 11.4149 280.135 11.7047 279.508 12.2321V12.2321Z" fill="#E6E6E6"/>
<path id="Vector_24" d="M198.591 11.6389C198.009 11.8517 197.494 12.2163 197.099 12.6952C196.704 13.174 196.443 13.75 196.343 14.3638L191.642 42.1471C191.539 42.7595 191.597 43.3885 191.813 43.971C192.028 44.5534 192.391 45.0687 192.868 45.465C193.344 45.8614 193.915 46.1249 194.525 46.2289C195.134 46.333 195.76 46.274 196.34 46.058L222.639 36.2562C223.218 36.0402 223.731 35.6747 224.125 35.1964C224.52 34.7181 224.782 34.144 224.886 33.5316C224.989 32.9193 224.931 32.2903 224.716 31.708C224.501 31.1256 224.137 30.6104 223.661 30.214L202.063 12.2321C201.436 11.7047 200.645 11.4149 199.828 11.4134C199.405 11.414 198.987 11.4904 198.591 11.6389Z" fill="#E6E6E6"/>
<path id="Vector_25" d="M241.973 112.195C247.217 112.195 251.469 107.923 251.469 102.654C251.469 97.3847 247.217 93.1131 241.973 93.1131C236.728 93.1131 232.477 97.3847 232.477 102.654C232.477 107.923 236.728 112.195 241.973 112.195Z" fill="#E6E6E6"/>
<path id="Vector_26" d="M241.973 100.269C245.469 100.269 248.304 99.2009 248.304 97.8836C248.304 96.5663 245.469 95.4984 241.973 95.4984C238.476 95.4984 235.642 96.5663 235.642 97.8836C235.642 99.2009 238.476 100.269 241.973 100.269Z" fill="#3F3D56"/>
<path id="Vector_27" d="M242.368 123.326C241.797 123.326 241.231 123.213 240.703 122.993C240.175 122.773 239.695 122.451 239.291 122.045C238.887 121.639 238.566 121.157 238.347 120.626C238.129 120.096 238.016 119.527 238.016 118.953V108.219H246.721L246.721 118.953C246.721 119.527 246.608 120.096 246.39 120.626C246.171 121.157 245.85 121.639 245.446 122.045C245.042 122.451 244.562 122.773 244.034 122.993C243.506 123.213 242.94 123.326 242.368 123.326V123.326Z" fill="#FF6584"/>
<path id="Vector_28" d="M241.444 0C241.901 0.951035 242.344 1.91236 242.761 2.89334C247.672 14.4009 249.328 27.0467 247.547 39.439C246.656 38.1402 245.72 36.7871 244.768 35.419C246.807 23.5256 245.66 11.301 241.444 0V0Z" fill="#3F3D56"/>
<path id="Vector_29" d="M234.322 8.74579C234.779 9.69683 235.222 10.6581 235.639 11.6391C240.55 23.1467 242.206 35.7925 240.425 48.1848C239.534 46.886 238.598 45.5329 237.645 44.1648C239.685 32.2714 238.538 20.0468 234.322 8.74579V8.74579Z" fill="#3F3D56"/>
<path id="Vector_30" d="M212.364 41.3057L213.368 28.486L214.371 15.6664C214.425 14.9742 214.66 14.3085 215.051 13.7363C215.442 13.1641 215.977 12.7054 216.601 12.4065C217.224 12.1075 217.915 11.9788 218.604 12.0332C219.293 12.0876 219.956 12.3233 220.525 12.7165L231.074 19.9994L238.777 25.3175C239.269 24.7384 239.88 24.2734 240.569 23.9545C241.257 23.6357 242.006 23.4706 242.764 23.4706C243.522 23.4706 244.271 23.6357 244.96 23.9545C245.648 24.2734 246.259 24.7384 246.752 25.3175L254.455 19.9994L265.003 12.7165C265.573 12.3233 266.235 12.0876 266.924 12.0332C267.613 11.9788 268.304 12.1075 268.928 12.4065C269.551 12.7054 270.086 13.1641 270.477 13.7363C270.869 14.3085 271.103 14.9742 271.157 15.6664L272.161 28.486L273.164 41.3057C273.218 41.9978 273.09 42.6921 272.793 43.3188C272.495 43.9454 272.038 44.4824 271.469 44.8756C270.899 45.2688 270.237 45.5045 269.548 45.5589C268.859 45.6133 268.168 45.4846 267.544 45.1856L255.992 39.6488L246.501 35.0994C246.012 35.5966 245.431 35.9914 244.789 36.2608C244.148 36.5303 243.459 36.669 242.764 36.669C242.069 36.669 241.381 36.5303 240.739 36.2608C240.098 35.9914 239.516 35.5966 239.027 35.0994L229.536 39.6488L217.984 45.1857C217.36 45.4847 216.669 45.6134 215.98 45.559C215.291 45.5045 214.629 45.2689 214.059 44.8756C213.49 44.4824 213.033 43.9455 212.736 43.3188C212.438 42.6921 212.31 41.9978 212.364 41.3057V41.3057Z" fill="#6C63FF"/>
<path id="Vector_31" d="M252.26 92.3181C252.26 93.6354 253.323 92.3181 254.634 92.3181C255.945 92.3181 257.008 93.6354 257.008 92.3181C257.007 91.6863 256.756 91.0809 256.311 90.6347C255.866 90.1884 255.263 89.9378 254.634 89.9378C254.006 89.9378 253.402 90.1884 252.957 90.6347C252.512 91.0809 252.262 91.6863 252.26 92.3181V92.3181Z" fill="#E6E6E6"/>
<path id="Vector_32" d="M231.685 92.3181C231.685 93.6354 230.622 92.3181 229.311 92.3181C228 92.3181 226.937 93.6354 226.937 92.3181C226.939 91.6863 227.189 91.0809 227.634 90.6347C228.079 90.1884 228.682 89.9378 229.311 89.9378C229.94 89.9378 230.543 90.1884 230.988 90.6347C231.433 91.0809 231.684 91.6863 231.685 92.3181V92.3181Z" fill="#E6E6E6"/>
</g>
<path id="Vector_33" d="M866.452 271.162V256H791V256.948V271.162V324.227V339.388V393.4V408.562H806.091H866.452V393.4H806.091V339.388H866.452V324.227H806.091V271.162H866.452Z" fill="#6C63FF"/>
<path id="Vector_34" d="M344.846 164.799C349.961 164.799 354.108 160.633 354.108 155.493C354.108 150.353 349.961 146.187 344.846 146.187C339.73 146.187 335.584 150.353 335.584 155.493C335.584 160.633 339.73 164.799 344.846 164.799Z" fill="#6C63FF"/>
<path id="Vector_35" d="M115.266 258.501C120.381 258.501 124.528 254.334 124.528 249.195C124.528 244.055 120.381 239.889 115.266 239.889C110.15 239.889 106.003 244.055 106.003 249.195C106.003 254.334 110.15 258.501 115.266 258.501Z" fill="#6C63FF"/>
<path id="Vector_36" d="M299.563 475C304.678 475 308.825 470.834 308.825 465.694C308.825 460.554 304.678 456.388 299.563 456.388C294.447 456.388 290.301 460.554 290.301 465.694C290.301 470.834 294.447 475 299.563 475Z" fill="#6C63FF"/>
<path id="Vector_37" d="M532.153 192.717C537.268 192.717 541.415 188.551 541.415 183.411C541.415 178.271 537.268 174.105 532.153 174.105C527.037 174.105 522.89 178.271 522.89 183.411C522.89 188.551 527.037 192.717 532.153 192.717Z" fill="#6C63FF"/>
<path id="Vector_38" d="M804.88 466.728C809.995 466.728 814.142 462.562 814.142 457.422C814.142 452.282 809.995 448.116 804.88 448.116C799.764 448.116 795.618 452.282 795.618 457.422C795.618 462.562 799.764 466.728 804.88 466.728Z" fill="#6C63FF"/>
<path id="Vector_39" d="M814.142 222.703C819.258 222.703 823.405 218.537 823.405 213.397C823.405 208.258 819.258 204.091 814.142 204.091C809.027 204.091 804.88 208.258 804.88 213.397C804.88 218.537 809.027 222.703 814.142 222.703Z" fill="#6C63FF"/>
<path id="Vector_40" d="M696.818 390.212C701.934 390.212 706.081 386.045 706.081 380.906C706.081 375.766 701.934 371.6 696.818 371.6C691.703 371.6 687.556 375.766 687.556 380.906C687.556 386.045 691.703 390.212 696.818 390.212Z" fill="#6C63FF"/>
</g>
<defs>
<clipPath id="clip0_0_1">
<rect width="915" height="475" fill="white"/>
</clipPath>
</defs>
</svg>
