<svg width="1124" height="710" viewBox="0 0 1124 710" fill="none" xmlns="http://www.w3.org/2000/svg">
<g id="SoftwareEngineer">
<path id="Vector" d="M989.762 649.32L990.856 624.717C1002.27 618.62 1015 615.4 1027.94 615.335C1010.13 629.889 1012.35 657.942 1000.28 677.513C992.556 689.819 979.653 697.946 965.214 699.6L950.311 708.72C946.173 685.659 952.344 661.943 967.2 643.821C971.368 638.838 976.147 634.399 981.424 630.61C984.993 640.017 989.762 649.32 989.762 649.32Z" fill="#F2F2F2"/>
<path id="Vector_2" d="M236.4 622.36L200.436 611.476C195.719 592.323 195.752 572.308 200.53 553.17C215.34 584.957 257.656 592.236 282.045 617.442C297.331 633.485 304.488 655.606 301.494 677.558L309.366 703.007C273.711 700.435 240.971 682.386 219.771 653.616C213.973 645.583 209.211 636.852 205.596 627.629C220.849 625.9 236.4 622.36 236.4 622.36H236.4Z" fill="#F2F2F2"/>
<path id="Vector_3" d="M865.147 704.697C865.141 705.442 864.845 706.155 864.32 706.685C863.796 707.207 863.086 707.499 862.346 707.497H851.086C849.545 707.502 848.291 706.257 848.286 704.716V364.352C848.286 356.849 845.765 350.76 842.67 350.746H141.769C138.66 350.76 136.153 356.849 136.14 364.352V702.611C136.135 704.052 135.04 705.256 133.605 705.397C131.336 705.621 129.067 705.817 126.813 705.999C126.757 705.999 126.701 706.013 126.645 706.013C125.412 706.125 124.18 706.209 122.947 706.307H122.933C122.289 705.145 121.673 703.955 121.043 702.765C120.841 702.361 120.735 701.915 120.735 701.463V346.7C120.735 344.629 120.819 342.543 120.959 340.485C121.159 337.66 121.509 334.847 122.009 332.059C124.376 319.055 129.726 310.25 135.803 310.222H848.622C849.509 310.228 850.385 310.413 851.198 310.768C852.393 311.296 853.473 312.052 854.378 312.993C855.606 314.27 856.656 315.706 857.5 317.263C860.497 322.54 862.64 330.407 863.396 339.561C863.396 339.645 863.41 339.729 863.41 339.813C863.606 342.081 863.704 344.391 863.69 346.7L863.886 376.698L864.013 394.587L864.391 450.719L864.531 470.652L865.147 704.697Z" fill="#E6E6E6"/>
<path id="Vector_4" d="M605.018 206.45H533.589C531.484 206.453 529.781 208.16 529.783 210.264V323.05H608.834V210.264C608.835 208.159 607.128 206.451 605.022 206.45H605.018ZM569.544 270.534C564.894 270.512 561.131 266.751 561.109 262.103V249.094C561.109 244.438 564.885 240.664 569.544 240.664C574.202 240.664 577.978 244.438 577.978 249.094V262.103C577.957 266.751 574.193 270.513 569.544 270.534Z" fill="#CCCCCC"/>
<path id="Vector_5" d="M529.538 319.443V330.324C529.54 331.498 530.492 332.449 531.666 332.451H606.951C608.124 332.446 609.073 331.497 609.079 330.324V319.443H529.538Z" fill="#3F3D56"/>
<path id="Vector_6" d="M723.299 30.4341H417.965C412.504 30.4428 408.078 34.8663 408.069 40.3256V246.272C408.075 251.733 412.502 256.159 417.965 256.164H723.299C728.763 256.159 733.19 251.733 733.195 246.272V40.3256C733.187 34.8663 728.761 30.4428 723.299 30.4341Z" fill="#E6E6E6"/>
<path id="Vector_7" d="M720.751 37.5786H420.516C417.592 37.5849 415.224 39.9563 415.224 42.8796V243.722C415.229 246.641 417.596 249.007 420.516 249.012H720.751C723.672 249.007 726.038 246.641 726.043 243.722V42.8795C726.043 39.9563 723.675 37.5849 720.751 37.5786Z" fill="white"/>
<path id="Vector_8" d="M662.27 336.238H483.647C481.832 336.238 480.361 334.767 480.361 332.954C480.361 332.726 480.385 332.5 480.432 332.277L483.203 319.119C483.528 317.603 484.867 316.517 486.418 316.512H659.499C661.051 316.517 662.389 317.603 662.714 319.119L665.486 332.277C665.86 334.052 664.723 335.794 662.947 336.168C662.725 336.214 662.498 336.238 662.27 336.238Z" fill="#CCCCCC"/>
<path id="Vector_9" d="M492.504 318.881H488.37C487.993 318.881 487.687 319.187 487.687 319.564V321.497C487.687 321.874 487.993 322.18 488.37 322.18H492.504C492.882 322.18 493.188 321.874 493.188 321.497V319.564C493.188 319.187 492.882 318.881 492.504 318.881Z" fill="#E6E6E6"/>
<path id="Vector_10" d="M503.507 318.881H499.373C498.996 318.881 498.689 319.187 498.689 319.564V321.497C498.689 321.874 498.996 322.18 499.373 322.18H503.507C503.885 322.18 504.191 321.874 504.191 321.497V319.564C504.191 319.187 503.885 318.881 503.507 318.881Z" fill="#E6E6E6"/>
<path id="Vector_11" d="M514.51 318.881H510.376C509.998 318.881 509.692 319.187 509.692 319.564V321.497C509.692 321.874 509.998 322.18 510.376 322.18H514.51C514.888 322.18 515.194 321.874 515.194 321.497V319.564C515.194 319.187 514.888 318.881 514.51 318.881Z" fill="#E6E6E6"/>
<path id="Vector_12" d="M525.513 318.881H521.379C521.001 318.881 520.695 319.187 520.695 319.564V321.497C520.695 321.874 521.001 322.18 521.379 322.18H525.513C525.891 322.18 526.197 321.874 526.197 321.497V319.564C526.197 319.187 525.891 318.881 525.513 318.881Z" fill="#E6E6E6"/>
<path id="Vector_13" d="M536.516 318.881H532.382C532.004 318.881 531.698 319.187 531.698 319.564V321.497C531.698 321.874 532.004 322.18 532.382 322.18H536.516C536.893 322.18 537.199 321.874 537.199 321.497V319.564C537.199 319.187 536.893 318.881 536.516 318.881Z" fill="#E6E6E6"/>
<path id="Vector_14" d="M547.519 318.881H543.385C543.007 318.881 542.701 319.187 542.701 319.564V321.497C542.701 321.874 543.007 322.18 543.385 322.18H547.519C547.896 322.18 548.202 321.874 548.202 321.497V319.564C548.202 319.187 547.896 318.881 547.519 318.881Z" fill="#E6E6E6"/>
<path id="Vector_15" d="M558.521 318.881H554.387C554.01 318.881 553.704 319.187 553.704 319.564V321.497C553.704 321.874 554.01 322.18 554.387 322.18H558.521C558.899 322.18 559.205 321.874 559.205 321.497V319.564C559.205 319.187 558.899 318.881 558.521 318.881Z" fill="#E6E6E6"/>
<path id="Vector_16" d="M569.524 318.881H565.39C565.013 318.881 564.707 319.187 564.707 319.564V321.497C564.707 321.874 565.013 322.18 565.39 322.18H569.524C569.902 322.18 570.208 321.874 570.208 321.497V319.564C570.208 319.187 569.902 318.881 569.524 318.881Z" fill="#E6E6E6"/>
<path id="Vector_17" d="M580.527 318.881H576.393C576.016 318.881 575.709 319.187 575.709 319.564V321.497C575.709 321.874 576.016 322.18 576.393 322.18H580.527C580.905 322.18 581.211 321.874 581.211 321.497V319.564C581.211 319.187 580.905 318.881 580.527 318.881Z" fill="#E6E6E6"/>
<path id="Vector_18" d="M591.53 318.881H587.396C587.018 318.881 586.712 319.187 586.712 319.564V321.497C586.712 321.874 587.018 322.18 587.396 322.18H591.53C591.908 322.18 592.214 321.874 592.214 321.497V319.564C592.214 319.187 591.908 318.881 591.53 318.881Z" fill="#E6E6E6"/>
<path id="Vector_19" d="M602.533 318.881H598.399C598.021 318.881 597.715 319.187 597.715 319.564V321.497C597.715 321.874 598.021 322.18 598.399 322.18H602.533C602.91 322.18 603.216 321.874 603.216 321.497V319.564C603.216 319.187 602.91 318.881 602.533 318.881Z" fill="#E6E6E6"/>
<path id="Vector_20" d="M613.536 318.881H609.402C609.024 318.881 608.718 319.187 608.718 319.564V321.497C608.718 321.874 609.024 322.18 609.402 322.18H613.536C613.913 322.18 614.219 321.874 614.219 321.497V319.564C614.219 319.187 613.913 318.881 613.536 318.881Z" fill="#E6E6E6"/>
<path id="Vector_21" d="M624.538 318.881H620.404C620.027 318.881 619.721 319.187 619.721 319.564V321.497C619.721 321.874 620.027 322.18 620.404 322.18H624.538C624.916 322.18 625.222 321.874 625.222 321.497V319.564C625.222 319.187 624.916 318.881 624.538 318.881Z" fill="#E6E6E6"/>
<path id="Vector_22" d="M635.541 318.881H631.407C631.03 318.881 630.724 319.187 630.724 319.564V321.497C630.724 321.874 631.03 322.18 631.407 322.18H635.541C635.919 322.18 636.225 321.874 636.225 321.497V319.564C636.225 319.187 635.919 318.881 635.541 318.881Z" fill="#E6E6E6"/>
<path id="Vector_23" d="M646.544 318.881H642.41C642.032 318.881 641.726 319.187 641.726 319.564V321.497C641.726 321.874 642.032 322.18 642.41 322.18H646.544C646.922 322.18 647.228 321.874 647.228 321.497V319.564C647.228 319.187 646.922 318.881 646.544 318.881Z" fill="#E6E6E6"/>
<path id="Vector_24" d="M657.547 318.881H653.413C653.035 318.881 652.729 319.187 652.729 319.564V321.497C652.729 321.874 653.035 322.18 653.413 322.18H657.547C657.925 322.18 658.231 321.874 658.231 321.497V319.564C658.231 319.187 657.925 318.881 657.547 318.881Z" fill="#E6E6E6"/>
<path id="Vector_25" d="M492.374 324.38H488.24C487.863 324.38 487.557 324.686 487.557 325.063V326.996C487.557 327.373 487.863 327.679 488.24 327.679H492.374C492.752 327.679 493.058 327.373 493.058 326.996V325.063C493.058 324.686 492.752 324.38 492.374 324.38Z" fill="#E6E6E6"/>
<path id="Vector_26" d="M503.377 324.38H499.243C498.866 324.38 498.56 324.686 498.56 325.063V326.996C498.56 327.373 498.866 327.679 499.243 327.679H503.377C503.755 327.679 504.061 327.373 504.061 326.996V325.063C504.061 324.686 503.755 324.38 503.377 324.38Z" fill="#E6E6E6"/>
<path id="Vector_27" d="M514.38 324.38H510.246C509.868 324.38 509.562 324.686 509.562 325.063V326.996C509.562 327.373 509.868 327.679 510.246 327.679H514.38C514.758 327.679 515.064 327.373 515.064 326.996V325.063C515.064 324.686 514.758 324.38 514.38 324.38Z" fill="#E6E6E6"/>
<path id="Vector_28" d="M525.383 324.38H521.249C520.871 324.38 520.565 324.686 520.565 325.063V326.996C520.565 327.373 520.871 327.679 521.249 327.679H525.383C525.761 327.679 526.067 327.373 526.067 326.996V325.063C526.067 324.686 525.761 324.38 525.383 324.38Z" fill="#E6E6E6"/>
<path id="Vector_29" d="M536.386 324.38H532.252C531.874 324.38 531.568 324.686 531.568 325.063V326.996C531.568 327.373 531.874 327.679 532.252 327.679H536.386C536.763 327.679 537.069 327.373 537.069 326.996V325.063C537.069 324.686 536.763 324.38 536.386 324.38Z" fill="#E6E6E6"/>
<path id="Vector_30" d="M547.389 324.38H543.255C542.877 324.38 542.571 324.686 542.571 325.063V326.996C542.571 327.373 542.877 327.679 543.255 327.679H547.389C547.766 327.679 548.072 327.373 548.072 326.996V325.063C548.072 324.686 547.766 324.38 547.389 324.38Z" fill="#E6E6E6"/>
<path id="Vector_31" d="M558.391 324.38H554.257C553.88 324.38 553.574 324.686 553.574 325.063V326.996C553.574 327.373 553.88 327.679 554.257 327.679H558.391C558.769 327.679 559.075 327.373 559.075 326.996V325.063C559.075 324.686 558.769 324.38 558.391 324.38Z" fill="#E6E6E6"/>
<path id="Vector_32" d="M569.394 324.38H565.26C564.883 324.38 564.576 324.686 564.576 325.063V326.996C564.576 327.373 564.883 327.679 565.26 327.679H569.394C569.772 327.679 570.078 327.373 570.078 326.996V325.063C570.078 324.686 569.772 324.38 569.394 324.38Z" fill="#E6E6E6"/>
<path id="Vector_33" d="M580.397 324.38H576.263C575.885 324.38 575.579 324.686 575.579 325.063V326.996C575.579 327.373 575.885 327.679 576.263 327.679H580.397C580.775 327.679 581.081 327.373 581.081 326.996V325.063C581.081 324.686 580.775 324.38 580.397 324.38Z" fill="#E6E6E6"/>
<path id="Vector_34" d="M591.4 324.38H587.266C586.888 324.38 586.582 324.686 586.582 325.063V326.996C586.582 327.373 586.888 327.679 587.266 327.679H591.4C591.778 327.679 592.084 327.373 592.084 326.996V325.063C592.084 324.686 591.778 324.38 591.4 324.38Z" fill="#E6E6E6"/>
<path id="Vector_35" d="M602.403 324.38H598.269C597.891 324.38 597.585 324.686 597.585 325.063V326.996C597.585 327.373 597.891 327.679 598.269 327.679H602.403C602.78 327.679 603.086 327.373 603.086 326.996V325.063C603.086 324.686 602.78 324.38 602.403 324.38Z" fill="#E6E6E6"/>
<path id="Vector_36" d="M613.406 324.38H609.272C608.894 324.38 608.588 324.686 608.588 325.063V326.996C608.588 327.373 608.894 327.679 609.272 327.679H613.406C613.783 327.679 614.089 327.373 614.089 326.996V325.063C614.089 324.686 613.783 324.38 613.406 324.38Z" fill="#E6E6E6"/>
<path id="Vector_37" d="M624.408 324.38H620.274C619.897 324.38 619.591 324.686 619.591 325.063V326.996C619.591 327.373 619.897 327.679 620.274 327.679H624.408C624.786 327.679 625.092 327.373 625.092 326.996V325.063C625.092 324.686 624.786 324.38 624.408 324.38Z" fill="#E6E6E6"/>
<path id="Vector_38" d="M635.411 324.38H631.277C630.9 324.38 630.594 324.686 630.594 325.063V326.996C630.594 327.373 630.9 327.679 631.277 327.679H635.411C635.789 327.679 636.095 327.373 636.095 326.996V325.063C636.095 324.686 635.789 324.38 635.411 324.38Z" fill="#E6E6E6"/>
<path id="Vector_39" d="M646.414 324.38H642.28C641.902 324.38 641.596 324.686 641.596 325.063V326.996C641.596 327.373 641.902 327.679 642.28 327.679H646.414C646.792 327.679 647.098 327.373 647.098 326.996V325.063C647.098 324.686 646.792 324.38 646.414 324.38Z" fill="#E6E6E6"/>
<path id="Vector_40" d="M657.417 324.38H653.283C652.905 324.38 652.599 324.686 652.599 325.063V326.996C652.599 327.373 652.905 327.679 653.283 327.679H657.417C657.795 327.679 658.101 327.373 658.101 326.996V325.063C658.101 324.686 657.795 324.38 657.417 324.38Z" fill="#E6E6E6"/>
<path id="Vector_41" d="M583.698 330.979H541.054C540.676 330.979 540.37 331.285 540.37 331.662V333.595C540.37 333.972 540.676 334.278 541.054 334.278H583.698C584.076 334.278 584.382 333.972 584.382 333.595V331.662C584.382 331.285 584.076 330.979 583.698 330.979Z" fill="#E6E6E6"/>
<path id="Vector_42" d="M705.659 65.2502H424.73C424.113 65.2366 423.624 64.7257 423.638 64.109C423.651 63.5113 424.132 63.03 424.73 63.0168H705.659C706.276 63.0304 706.765 63.5414 706.751 64.1581C706.738 64.7557 706.256 65.237 705.659 65.2502Z" fill="#CACACA"/>
<path id="Vector_43" d="M443.854 57.3154C447.469 57.3154 450.401 54.3202 450.401 50.6254C450.401 46.9306 447.469 43.9354 443.854 43.9354C440.238 43.9354 437.306 46.9306 437.306 50.6254C437.306 54.3202 440.238 57.3154 443.854 57.3154Z" fill="#CCCCCC"/>
<path id="Vector_44" d="M466.471 57.3154C470.087 57.3154 473.018 54.3202 473.018 50.6254C473.018 46.9306 470.087 43.9354 466.471 43.9354C462.855 43.9354 459.924 46.9306 459.924 50.6254C459.924 54.3202 462.855 57.3154 466.471 57.3154Z" fill="#CCCCCC"/>
<path id="Vector_45" d="M489.088 57.3154C492.704 57.3154 495.636 54.3202 495.636 50.6254C495.636 46.9306 492.704 43.9354 489.088 43.9354C485.473 43.9354 482.541 46.9306 482.541 50.6254C482.541 54.3202 485.473 57.3154 489.088 57.3154Z" fill="#CCCCCC"/>
<path id="Vector_46" d="M564.907 82.1817L563.999 79.5319L680.036 19.2681L680.942 21.9179L564.907 82.1817Z" fill="#3F3D56"/>
<path id="Vector_47" d="M915.014 193.804L914.106 191.154L983.929 131.195L984.835 133.844L915.014 193.804Z" fill="#3F3D56"/>
<path id="Vector_48" d="M780.867 207.761L664.83 147.497L665.738 144.848L781.773 205.111L780.867 207.761Z" fill="#3F3D56"/>
<path id="Vector_49" d="M840.266 165.826L772.24 54.1985L774.39 52.4026L842.414 164.03L840.266 165.826Z" fill="#3F3D56"/>
<path id="Vector_50" d="M893.353 20.3726L827.103 20.0674V17.2678L893.353 17.573V20.3726Z" fill="#3F3D56"/>
<path id="Vector_51" d="M985.782 219.141L919.532 218.838V216.038L985.782 216.342V219.141Z" fill="#3F3D56"/>
<g id="Downsize">
<path id="Vector_52" d="M1013.37 37.7376H939.143C929.089 37.7376 920.938 29.5904 920.938 19.5404C920.938 9.49028 929.089 1.34308 939.143 1.34308H1013.37C1023.42 1.34308 1031.57 9.49028 1031.57 19.5404C1031.57 29.5904 1023.42 37.7376 1013.37 37.7376Z" fill="#6C63FF"/>
<path id="Vector_53" d="M888.728 223.966H814.505C804.451 223.966 796.3 215.819 796.3 205.769C796.3 195.719 804.451 187.572 814.505 187.572H888.728C898.783 187.572 906.934 195.719 906.934 205.769C906.934 215.819 898.783 223.966 888.728 223.966Z" fill="#6C63FF"/>
</g>
<g id="Upsize">
<path id="Vector_54" d="M1105.79 144.122H1031.57C1021.52 144.122 1013.37 135.975 1013.37 125.924C1013.37 115.874 1021.52 107.727 1031.57 107.727H1105.79C1115.85 107.727 1124 115.874 1124 125.924C1124 135.975 1115.85 144.122 1105.79 144.122Z" fill="#6C63FF"/>
<path id="Vector_55" d="M1105.79 236.508H1031.57C1021.52 236.508 1013.37 228.361 1013.37 218.311C1013.37 208.261 1021.52 200.113 1031.57 200.113H1105.79C1115.85 200.113 1124 208.261 1124 218.311C1124 228.361 1115.85 236.508 1105.79 236.508Z" fill="#6C63FF"/>
<path id="Vector_56" d="M787.897 36.3946H713.674C703.62 36.3946 695.469 28.2474 695.469 18.1973C695.469 8.1472 703.62 0 713.674 0H787.897C797.952 0 806.103 8.1472 806.103 18.1973C806.103 28.2474 797.952 36.3946 787.897 36.3946Z" fill="#6C63FF"/>
</g>
<path id="Vector_57" d="M433.128 348.8H349.103C342.915 348.8 337.899 353.814 337.899 359.998C337.899 366.183 342.915 371.197 349.103 371.197H379.912V457.984H402.319V371.197H433.128C439.316 371.197 444.332 366.183 444.332 359.998C444.332 353.814 439.316 348.8 433.128 348.8Z" fill="#3F3D56"/>
<path id="Vector_58" d="M488.587 506.048H263.842C218.806 505.884 180.704 472.733 174.332 428.17L166.376 398.92C149.91 338.309 124.829 280.373 91.8995 226.882C76.8486 202.45 69.102 178.801 86.6971 156.031C86.8469 155.837 86.9943 155.646 87.1391 155.457C101.251 137.098 171.493 133.123 194.392 132.35C195.296 132.319 196.204 132.304 197.116 132.304H336.905C337.817 132.304 338.725 132.319 339.629 132.35C364.778 133.083 387.495 147.556 398.778 170.034C410.817 192.983 409.281 220.686 394.778 242.165C345.674 315.893 330.64 362.123 346.032 392.061C360.92 421.019 406.559 435.825 489.658 438.653C511.989 439.413 522.238 456.795 522.31 472.622C522.38 488.04 512.526 505.063 490.727 506.003C490.018 506.033 489.305 506.048 488.587 506.048Z" fill="#3F3D56"/>
<path id="Vector_59" d="M302.021 705.518H386.047C392.234 705.518 397.25 700.505 397.25 694.32C397.25 688.135 392.234 683.122 386.047 683.122H355.238V494.15H332.831V683.122H302.021C295.834 683.122 290.818 688.135 290.818 694.32C290.818 700.505 295.834 705.518 302.021 705.518Z" fill="#3F3D56"/>
<path id="Vector_60" d="M378.073 629.335L392.547 637.193L430.866 584.238L409.501 572.638L378.073 629.335Z" fill="#A0616A"/>
<path id="Vector_61" d="M385.04 610.464L411.318 618.689L407.135 629.693L425.154 655.833C427.46 659.177 426.617 663.756 423.272 666.06C421.281 667.431 418.744 667.737 416.484 666.879L385.894 655.262L384.758 642.375L378.562 652.478L367.028 648.098L385.04 610.464V610.464Z" fill="#2F2E41"/>
<g id="Hand">
<path id="Vector_62" d="M414.645 95.2916C415.942 104.176 409.787 112.43 400.898 113.726C399.95 113.864 398.992 113.918 398.035 113.888L342.226 232.583L324.722 208.185L382.173 95.9486C383.056 86.9643 391.058 80.3962 400.047 81.2785C407.568 82.0168 413.603 87.81 414.645 95.2915V95.2916Z" fill="#A0616A"/>
<path id="Vector_63" d="M229.439 256.582C229.439 256.582 227.943 277.318 251.405 281.385C274.866 285.452 337.586 245.81 347.886 239.723C358.187 233.636 377.382 157.05 377.382 157.05L360.688 128.828C340.078 154.888 323.892 178.918 322.91 195.976L229.439 256.582H229.439Z" fill="#6C63FF"/>
</g>
<path id="Vector_64" d="M256.524 328.009L261.591 349.77C261.591 349.77 261.641 369.836 265.196 373.536C268.727 377.219 346.359 369.825 346.359 369.825C346.359 369.825 338.128 337.49 338.237 313.023L256.524 328.009Z" fill="#A0616A"/>
<path id="Vector_65" d="M420.525 606.362L392.516 590.964C391.983 554.535 413.905 505.236 439.906 453.599C381.756 463.595 326.897 466.798 279.446 454.705C263.237 450.427 253.468 433.932 257.511 417.67C257.696 416.902 257.91 416.143 258.152 415.392C263.831 398.073 251.097 387.217 262.809 368.169C293.614 357.653 322.877 354.684 349.636 363.969L366.402 401.024L449.507 390.275C466.312 388.267 481.563 400.255 483.572 417.052C483.581 417.129 483.59 417.205 483.599 417.282C483.711 418.183 483.783 419.089 483.818 419.998C467.014 498.74 448.172 569.592 420.525 606.362Z" fill="#2F2E41"/>
<path id="Vector_66" d="M245.243 190.237L277.258 188.348C280.026 188.185 282.593 189.794 283.65 192.356L292.697 214.279L330.299 245.343C330.299 245.343 345.187 264.28 345.221 288.735C345.256 313.191 350.503 369.797 350.503 369.797C350.503 369.797 328.775 339.228 315.365 347.358C313.083 348.741 312.281 351.57 309.891 353C308.699 353.713 305.945 353.019 304.741 353.734C286.261 364.699 266.988 375.412 265.187 373.533C261.652 369.845 257.363 351 257.363 351L228.057 243.374C224.84 231.908 226.92 219.605 233.728 209.833C235.775 206.951 237.92 204.808 239.914 204.453C244.39 203.501 242.009 193.473 245.243 190.237Z" fill="#6C63FF"/>
<g id="Leg">
<path id="Vector_67" d="M517.583 674.923L531.097 665.532L500.483 607.799L480.538 621.66L517.583 674.923Z" fill="#A0616A"/>
<path id="Vector_68" d="M519.626 636.186L498.447 655.108C464.769 617.6 439.31 564.996 417.735 505.257C361.206 488.708 318.575 462.02 281.359 430.331C268.733 419.653 259.269 405.935 270.037 392.927C270.54 392.319 271.066 391.731 271.614 391.163C284.327 378.103 316.568 380.592 335.451 368.627L377.634 413.695L374.981 425.777L454.213 452.604C470.163 458.192 478.562 475.645 472.972 491.588C472.945 491.666 472.917 491.744 472.889 491.822C472.592 492.681 472.259 493.526 471.89 494.358L519.626 636.186V636.186Z" fill="#2F2E41"/>
<path id="Vector_69" d="M509.704 671.116L531.337 654.088L538.059 663.753L569.818 663.656C573.881 663.644 577.184 666.925 577.197 670.986C577.205 673.402 576.025 675.668 574.04 677.047L547.17 695.717L535.889 689.374L540.73 700.191L530.599 707.23L509.704 671.116Z" fill="#2F2E41"/>
</g>
<path id="Vector_70" d="M292.519 461.473C284.25 457.965 280.392 448.421 283.902 440.156C284.276 439.274 284.727 438.428 285.251 437.626L212.772 328.3L242.722 326.024L308.826 433.398C316.048 438.819 317.506 449.065 312.082 456.284C307.544 462.324 299.457 464.469 292.519 461.473V461.473Z" fill="#A0616A"/>
<path id="Vector_71" d="M250.847 219.502C250.847 219.502 233.897 207.453 218.232 225.379C202.568 243.304 203.876 317.466 203.729 329.426C203.683 333.171 209.093 341.252 216.547 350.586C219.893 354.777 223.652 359.22 227.513 363.636C229.748 366.192 227.822 371.512 230.066 373.996C232.298 376.467 238.699 376.103 240.821 378.396C250.896 389.28 259.081 397.564 259.081 397.564L291.879 397.968C292.249 373.597 275.552 351.844 254.102 330.819L250.847 219.502Z" fill="#6C63FF"/>
<path id="Vector_72" d="M217.787 113.394C214.681 115.634 211.415 117.942 207.626 118.497C203.837 119.052 199.401 117.221 198.352 113.54C197.07 109.039 201.137 104.94 204.791 102.015L216.381 92.7382C218.504 90.8568 220.9 89.3084 223.487 88.1459C226.12 86.9881 229.136 87.0888 231.686 88.4199C234.219 90.1295 235.683 93.0296 235.555 96.0817C235.39 99.0902 234.397 101.995 232.685 104.475C228.337 111.248 221.412 115.953 213.512 117.502" fill="#2F2E41"/>
<path id="Vector_73" d="M305.689 354.399H221.664C215.476 354.399 210.46 359.413 210.46 365.598C210.46 371.782 215.476 376.796 221.664 376.796H252.473V463.583H274.88V376.796H305.689C311.877 376.796 316.893 371.782 316.893 365.598C316.893 359.413 311.877 354.399 305.689 354.399Z" fill="#3F3D56"/>
<path id="Vector_74" d="M222.935 89.8995C223.273 81.5033 214.322 74.855 205.934 75.3806C197.546 75.9061 190.336 81.8035 185.579 88.7315C180.824 95.6536 177.967 103.671 174.221 111.187C170.474 118.703 165.485 126.062 158.041 129.957C150.598 133.846 140.238 133.152 135.093 126.512C131.849 131.429 131.143 137.598 133.193 143.121C135.299 148.572 139.227 153.127 144.31 156.014C146.334 157.213 148.495 158.163 150.747 158.843C151.675 156.338 152.982 153.99 154.621 151.879C153.88 154.378 153.598 156.989 153.786 159.588C157.257 160.253 160.828 160.196 164.276 159.422C171.142 157.887 176.882 153.208 179.767 146.794C182.913 139.351 181.311 130.864 181.984 122.812C182.651 114.758 187.506 105.564 195.59 105.433C201.747 105.332 200.932 105.839 204.833 110.601" fill="#2F2E41"/>
<path id="Vector_75" d="M278.841 134.019C278.841 154.119 262.539 170.413 242.43 170.413C222.321 170.413 203.218 147.12 203.218 127.02C203.218 106.92 222.321 97.6241 242.43 97.6241C262.539 97.6241 278.841 113.918 278.841 134.019Z" fill="#2F2E41"/>
<path id="Vector_76" d="M260.373 177.633C279.168 173.789 291.288 155.443 287.442 136.656C283.596 117.869 265.241 105.755 246.445 109.599C227.65 113.443 215.53 131.79 219.376 150.577C223.222 169.364 241.577 181.477 260.373 177.633Z" fill="#A0616A"/>
<path id="Vector_77" d="M297.047 138.218C286.763 141.025 276.381 143.967 272.371 138.218C271.592 134.406 270.115 130.771 268.016 127.496C267.621 131.164 266.76 134.767 265.453 138.218C252.461 141.041 240.319 141.715 229.826 138.218C228.384 140.826 227.546 143.725 227.375 146.701C226.857 146.375 226.313 146.09 225.751 145.847C225.076 145.466 224.27 145.394 223.538 145.651C223.032 145.956 222.696 146.478 222.628 147.065C222.558 147.649 222.587 148.24 222.712 148.814C222.859 150.817 223.457 152.76 224.463 154.498C225.266 155.708 226.542 156.526 227.978 156.751C229.434 164.94 241.03 176.012 241.03 176.012C206.019 177.412 206.019 153.672 206.019 131.219L210.22 122.82H224.224V104.623H263.437C281.997 104.628 297.042 119.666 297.047 138.218V138.218Z" fill="#2F2E41"/>
<path id="Vector_78" d="M616.114 709.57L1.67617 710C0.755261 710.005 0.00482664 709.262 2.31709e-05 708.342C-0.0047803 707.421 0.737867 706.671 1.65878 706.667H1.67617L616.114 706.236C617.035 706.239 617.779 706.988 617.776 707.908C617.773 708.825 617.031 709.567 616.114 709.57Z" fill="#CACACA"/>
<path id="Vector_79" d="M1026.44 709.57L708.893 710C707.972 710.005 707.221 709.262 707.217 708.342C707.212 707.421 707.954 706.671 708.875 706.667H708.893L1026.44 706.236C1027.36 706.233 1028.11 706.977 1028.11 707.898C1028.12 708.818 1027.37 709.567 1026.45 709.57H1026.44Z" fill="#CACACA"/>
<path id="Vector_80" d="M630.157 207.169H509.786C499.331 207.157 490.859 198.689 490.847 188.239V108.517C490.859 98.0667 499.331 89.5982 509.786 89.5866H630.157C640.612 89.5982 649.084 98.0667 649.096 108.517V188.239C649.084 198.689 640.612 207.157 630.157 207.169ZM509.786 92.3861C500.877 92.3963 493.658 99.6122 493.648 108.517V188.239C493.658 197.143 500.877 204.359 509.786 204.369H630.157C639.065 204.359 646.285 197.143 646.295 188.239V108.517C646.285 99.6122 639.065 92.3963 630.157 92.3862L509.786 92.3861Z" fill="#E6E6E6"/>
<path id="Vector_81" d="M545.452 114.783H513.254V117.582H545.452V114.783Z" fill="#E6E6E6"/>
<path id="Vector_82" d="M584.676 125.981H513.254V128.781H584.676V125.981Z" fill="#E6E6E6"/>
<path id="Vector_83" d="M584.676 135.78H513.254V138.579H584.676V135.78Z" fill="#E6E6E6"/>
<path id="Vector_84" d="M604.282 145.578H513.254V148.378H604.282V145.578Z" fill="#E6E6E6"/>
<path id="Vector_85" d="M560.869 155.377H513.254V158.176H560.869V155.377Z" fill="#E6E6E6"/>
<path id="Vector_86" d="M600.081 165.175H513.254V167.975H600.081V165.175Z" fill="#E6E6E6"/>
<path id="Vector_87" d="M528.659 174.974H513.254V177.773H528.659V174.974Z" fill="#E6E6E6"/>
<path id="Vector_88" d="M512.205 54.5335C512.069 54.5335 511.934 54.4809 511.831 54.3761L508.843 51.3229C508.644 51.1195 508.644 50.7944 508.843 50.5909L511.831 47.538C512.034 47.3315 512.366 47.3282 512.572 47.5298C512.778 47.732 512.782 48.0635 512.58 48.27L509.95 50.9569L512.58 53.6441C512.782 53.8506 512.778 54.1821 512.572 54.3843C512.47 54.484 512.338 54.5335 512.205 54.5335V54.5335Z" fill="#CCCCCC"/>
<path id="Vector_89" d="M517.227 54.5335C517.094 54.5335 516.962 54.4839 516.86 54.3843C516.654 54.1821 516.65 53.8509 516.852 53.6441L519.482 50.9569L516.852 48.27C516.65 48.0635 516.654 47.732 516.86 47.5298C517.067 47.3274 517.399 47.3312 517.601 47.538L520.589 50.5909C520.788 50.7944 520.788 51.1195 520.589 51.3229L517.601 54.3761C517.498 54.4809 517.363 54.5335 517.227 54.5335V54.5335Z" fill="#CCCCCC"/>
<path id="Vector_90" d="M673.547 46.9558H667.991C667.357 46.9558 666.844 47.4688 666.844 48.1022V53.661C666.844 54.2944 667.357 54.8073 667.991 54.8073H673.547C674.181 54.8073 674.699 54.2944 674.699 53.661V48.1022C674.699 47.4688 674.181 46.9558 673.547 46.9558Z" fill="#CCCCCC"/>
<path id="Vector_91" d="M659.932 46.9558H654.376C653.742 46.9558 653.229 47.4688 653.229 48.1022V53.661C653.229 54.2944 653.742 54.8073 654.376 54.8073H659.932C660.565 54.8073 661.084 54.2944 661.084 53.661V48.1022C661.084 47.4688 660.565 46.9558 659.932 46.9558Z" fill="#CCCCCC"/>
<path id="Vector_92" d="M686.377 47.2175H680.821C680.187 47.2175 679.674 47.7305 679.674 48.3638V53.9227C679.674 54.556 680.187 55.069 680.821 55.069H686.377C687.011 55.069 687.529 54.556 687.529 53.9227V48.3638C687.529 47.7305 687.011 47.2175 686.377 47.2175Z" fill="#CCCCCC"/>
<path id="Vector_93" d="M602.631 49.3322H558.218C557.443 49.3322 556.82 49.9603 556.82 50.7298C556.82 51.4992 557.443 52.1273 558.218 52.1273H602.631C603.401 52.1273 604.029 51.4992 604.029 50.7298C604.029 49.9603 603.401 49.3322 602.631 49.3322Z" fill="#CCCCCC"/>
</g>
</svg>
