<svg viewBox="0 0 916 346" fill="none">
<g id="Group 1">
<path id="S" d="M137.684 146.924C136.874 140.087 133.59 134.779 127.833 131C122.075 127.222 115.013 125.333 106.647 125.333C100.529 125.333 95.1765 126.322 90.5884 128.301C86.0454 130.281 82.4919 133.002 79.9279 136.466C77.409 139.929 76.1495 143.865 76.1495 148.273C76.1495 151.962 77.0267 155.133 78.7809 157.787C80.5802 160.395 82.8742 162.577 85.663 164.331C88.4518 166.041 91.3756 167.457 94.4343 168.582C97.493 169.662 100.304 170.539 102.868 171.213L116.902 174.992C120.501 175.936 124.504 177.241 128.912 178.905C133.365 180.569 137.616 182.841 141.664 185.72C145.758 188.554 149.131 192.197 151.785 196.65C154.439 201.103 155.766 206.569 155.766 213.046C155.766 220.513 153.809 227.26 149.896 233.287C146.028 239.315 140.36 244.105 132.893 247.659C125.471 251.212 116.453 252.989 105.837 252.989C95.9412 252.989 87.3723 251.392 80.1303 248.198C72.9334 245.005 67.2658 240.552 63.1275 234.839C59.0342 229.127 56.7177 222.492 56.1779 214.935H73.4507C73.9005 220.153 75.6547 224.471 78.7134 227.89C81.8171 231.263 85.7305 233.782 90.4535 235.446C95.2215 237.066 100.349 237.875 105.837 237.875C112.224 237.875 117.959 236.841 123.042 234.772C128.125 232.658 132.151 229.734 135.12 226C138.088 222.222 139.573 217.814 139.573 212.776C139.573 208.188 138.291 204.454 135.727 201.576C133.163 198.697 129.789 196.358 125.606 194.559C121.423 192.759 116.902 191.185 112.044 189.836L95.0416 184.978C84.2461 181.874 75.6997 177.443 69.4024 171.686C63.105 165.928 59.9563 158.394 59.9563 149.083C59.9563 141.346 62.048 134.599 66.2312 128.841C70.4594 123.039 76.127 118.541 83.234 115.347C90.386 112.108 98.3702 110.489 107.186 110.489C116.093 110.489 124.009 112.086 130.936 115.279C137.864 118.428 143.351 122.746 147.4 128.234C151.493 133.722 153.652 139.952 153.877 146.924H137.684Z" fill="#3F3D56"/>
<path id="V" d="M436.577 116.585L477.6 232.906H479.219L520.242 116.585H537.784L487.046 254.767H469.773L419.034 116.585H436.577Z" fill="#3F3D56"/>
<path id="C" d="M771.044 159.767H754.311C753.321 154.954 751.589 150.726 749.115 147.082C746.687 143.439 743.718 140.38 740.209 137.906C736.746 135.387 732.9 133.498 728.672 132.239C724.443 130.979 720.035 130.349 715.447 130.349C707.081 130.349 699.501 132.464 692.709 136.692C685.962 140.92 680.587 147.15 676.584 155.381C672.625 163.613 670.646 173.711 670.646 185.676C670.646 197.641 672.625 207.739 676.584 215.971C680.587 224.202 685.962 230.432 692.709 234.661C699.501 238.889 707.081 241.003 715.447 241.003C720.035 241.003 724.443 240.373 728.672 239.114C732.9 237.854 736.746 235.987 740.209 233.514C743.718 230.995 746.687 227.913 749.115 224.27C751.589 220.581 753.321 216.353 754.311 211.585H771.044C769.784 218.647 767.49 224.967 764.162 230.545C760.833 236.122 756.695 240.868 751.747 244.781C746.799 248.65 741.244 251.596 735.081 253.62C728.964 255.644 722.419 256.656 715.447 256.656C703.662 256.656 693.182 253.777 684.005 248.02C674.829 242.262 667.61 234.076 662.347 223.46C657.084 212.845 654.453 200.25 654.453 185.676C654.453 171.102 657.084 158.508 662.347 147.892C667.61 137.277 674.829 129.09 684.005 123.332C693.182 117.575 703.662 114.696 715.447 114.696C722.419 114.696 728.964 115.708 735.081 117.732C741.244 119.756 746.799 122.725 751.747 126.639C756.695 130.507 760.833 135.23 764.162 140.808C767.49 146.34 769.784 152.66 771.044 159.767Z" fill="#3F3D56"/>
<path id="E" d="M186.143 250.422V112.24H269.538V127.084H202.876V173.774H265.219V188.618H202.876V235.578H270.617V250.422H186.143Z" fill="#6C63FF"/>
<path id="R" d="M312.746 254.767V116.585H359.437C370.232 116.585 379.093 118.429 386.02 122.118C392.947 125.761 398.075 130.777 401.404 137.164C404.732 143.551 406.397 150.816 406.397 158.957C406.397 167.099 404.732 174.318 401.404 180.616C398.075 186.913 392.97 191.861 386.088 195.46C379.206 199.013 370.412 200.79 359.706 200.79H321.922V185.676H359.167C366.544 185.676 372.481 184.597 376.979 182.438C381.522 180.278 384.806 177.22 386.83 173.261C388.899 169.258 389.934 164.49 389.934 158.957C389.934 153.425 388.899 148.589 386.83 144.451C384.761 140.313 381.455 137.119 376.912 134.87C372.369 132.576 366.364 131.429 358.897 131.429H329.479V254.767H312.746ZM377.789 192.693L411.794 254.767H392.363L358.897 192.693H377.789Z" fill="#6C63FF"/>
<path id="I" d="M604.743 118.681V256.863H588.011V118.681H604.743Z" fill="#6C63FF"/>
<path id="E_2" d="M804.314 256.863V118.681H887.709V133.525H821.047V180.215H883.391V195.059H821.047V242.019H888.789V256.863H804.314Z" fill="#6C63FF"/>
<path id="Vector" d="M342.514 20.1257C347.758 20.1257 352.009 15.7487 352.009 10.3494C352.009 4.95016 347.758 0.573196 342.514 0.573196C337.27 0.573196 333.019 4.95016 333.019 10.3494C333.019 15.7487 337.27 20.1257 342.514 20.1257Z" fill="#6C63FF"/>
<path id="Vector_2" d="M107.163 118.562C112.407 118.562 116.658 114.185 116.658 108.786C116.658 103.386 112.407 99.0095 107.163 99.0095C101.919 99.0095 97.6679 103.386 97.6679 108.786C97.6679 114.185 101.919 118.562 107.163 118.562Z" fill="#6C63FF"/>
<path id="Vector_3" d="M296.093 346C301.337 346 305.588 341.623 305.588 336.224C305.588 330.824 301.337 326.448 296.093 326.448C290.849 326.448 286.598 330.824 286.598 336.224C286.598 341.623 290.849 346 296.093 346Z" fill="#6C63FF"/>
<path id="Vector_4" d="M534.529 49.4543C539.773 49.4543 544.025 45.0774 544.025 39.6781C544.025 34.2789 539.773 29.9019 534.529 29.9019C529.285 29.9019 525.034 34.2789 525.034 39.6781C525.034 45.0774 529.285 49.4543 534.529 49.4543Z" fill="#6C63FF"/>
<path id="Vector_5" d="M814.112 337.31C819.356 337.31 823.607 332.933 823.607 327.534C823.607 322.134 819.356 317.758 814.112 317.758C808.868 317.758 804.617 322.134 804.617 327.534C804.617 332.933 808.868 337.31 814.112 337.31Z" fill="#6C63FF"/>
<path id="Vector_6" d="M823.607 80.9555C828.851 80.9555 833.102 76.5786 833.102 71.1793C833.102 65.78 828.851 61.4031 823.607 61.4031C818.363 61.4031 814.112 65.78 814.112 71.1793C814.112 76.5786 818.363 80.9555 823.607 80.9555Z" fill="#6C63FF"/>
<path id="Vector_7" d="M724.292 171.205C729.536 171.205 733.787 166.828 733.787 161.429C733.787 156.03 729.536 151.653 724.292 151.653C719.048 151.653 714.797 156.03 714.797 161.429C714.797 166.828 719.048 171.205 724.292 171.205Z" fill="#6C63FF"/>
<g id="Human">
<path id="Vector_8" d="M779.941 86.4853H780.97C781.064 86.4853 781.14 86.5632 781.14 86.6592V87.1508C781.14 87.2468 781.064 87.3246 780.97 87.3246H779.941C779.848 87.3246 779.771 87.2468 779.771 87.1508V86.6592C779.771 86.5632 779.848 86.4853 779.941 86.4853Z" fill="#E6E6E6"/>
<path id="Vector_9" d="M777.205 86.4853H778.233C778.327 86.4853 778.403 86.5632 778.403 86.6592V87.1508C778.403 87.2468 778.327 87.3246 778.233 87.3246H777.205C777.111 87.3246 777.035 87.2468 777.035 87.1508V86.6592C777.035 86.5632 777.111 86.4853 777.205 86.4853Z" fill="#E6E6E6"/>
<path id="Vector_10" d="M774.468 86.4853H775.497C775.591 86.4853 775.667 86.5632 775.667 86.6592V87.1508C775.667 87.2468 775.591 87.3246 775.497 87.3246H774.468C774.375 87.3246 774.298 87.2468 774.298 87.1508V86.6592C774.298 86.5632 774.375 86.4853 774.468 86.4853Z" fill="#E6E6E6"/>
<path id="Vector_11" d="M771.732 86.4853H772.76C772.854 86.4853 772.93 86.5632 772.93 86.6592V87.1508C772.93 87.2468 772.854 87.3246 772.76 87.3246H771.732C771.638 87.3246 771.562 87.2468 771.562 87.1508V86.6592C771.562 86.5632 771.638 86.4853 771.732 86.4853Z" fill="#E6E6E6"/>
<path id="Vector_12" d="M768.995 86.4853H770.024C770.117 86.4853 770.194 86.5632 770.194 86.6592V87.1508C770.194 87.2468 770.117 87.3246 770.024 87.3246H768.995C768.902 87.3246 768.825 87.2468 768.825 87.1508V86.6592C768.825 86.5632 768.902 86.4853 768.995 86.4853Z" fill="#E6E6E6"/>
<path id="Vector_13" d="M779.974 87.8841H781.002C781.096 87.8841 781.172 87.9619 781.172 88.0579V88.5495C781.172 88.6455 781.096 88.7234 781.002 88.7234H779.974C779.88 88.7234 779.804 88.6455 779.804 88.5495V88.0579C779.804 87.9619 779.88 87.8841 779.974 87.8841Z" fill="#E6E6E6"/>
<path id="Vector_14" d="M777.237 87.8841H778.265C778.359 87.8841 778.435 87.9619 778.435 88.0579V88.5495C778.435 88.6455 778.359 88.7234 778.265 88.7234H777.237C777.143 88.7234 777.067 88.6455 777.067 88.5495V88.0579C777.067 87.9619 777.143 87.8841 777.237 87.8841Z" fill="#E6E6E6"/>
<path id="Vector_15" d="M774.501 87.8841H775.529C775.623 87.8841 775.699 87.9619 775.699 88.0579V88.5495C775.699 88.6455 775.623 88.7234 775.529 88.7234H774.501C774.407 88.7234 774.331 88.6455 774.331 88.5495V88.0579C774.331 87.9619 774.407 87.8841 774.501 87.8841Z" fill="#E6E6E6"/>
<path id="Vector_16" d="M771.764 87.8841H772.792C772.886 87.8841 772.962 87.9619 772.962 88.0579V88.5495C772.962 88.6455 772.886 88.7234 772.792 88.7234H771.764C771.67 88.7234 771.594 88.6455 771.594 88.5495V88.0579C771.594 87.9619 771.67 87.8841 771.764 87.8841Z" fill="#E6E6E6"/>
<path id="Vector_17" d="M769.028 87.8841H770.056C770.15 87.8841 770.226 87.9619 770.226 88.0579V88.5495C770.226 88.6455 770.15 88.7234 770.056 88.7234H769.028C768.934 88.7234 768.858 88.6455 768.858 88.5495V88.0579C768.858 87.9619 768.934 87.8841 769.028 87.8841Z" fill="#E6E6E6"/>
<path id="Vector_18" d="M808.402 165.455L804.802 167.454L795.271 153.984L800.585 151.033L808.402 165.455Z" fill="#A0616A"/>
<path id="Vector_19" d="M806.669 160.655L800.133 162.747L801.173 165.546L796.692 172.196C796.119 173.046 796.328 174.211 797.16 174.797C797.655 175.146 798.286 175.224 798.848 175.005L806.456 172.05L806.739 168.772L808.28 171.342L811.148 170.228L806.669 160.655V160.655Z" fill="#2F2E41"/>
<g id="Hand">
<path id="Vector_20" d="M799.306 29.6111C798.983 31.8711 800.514 33.9705 802.725 34.3002C802.96 34.3353 803.199 34.3491 803.437 34.3414L817.317 64.5339L821.67 58.3278L807.382 29.7782C807.162 27.4929 805.172 25.8222 802.936 26.0466C801.066 26.2344 799.565 27.708 799.306 29.6111V29.6111Z" fill="#A0616A"/>
<path id="Vector_21" d="M845.368 70.6385C845.368 70.6385 845.74 75.9131 839.905 76.9476C834.07 77.9821 818.471 67.8983 815.909 66.3499C813.347 64.8015 808.573 45.3206 808.573 45.3206L812.725 38.1417C817.851 44.7705 821.877 50.8831 822.121 55.2221L845.368 70.6385H845.368Z" fill="#6C63FF"/>
</g>
<path id="Vector_22" d="M838.632 88.8072L837.371 94.3427C837.371 94.3427 837.359 99.4468 836.475 100.388C835.597 101.325 816.289 99.4438 816.289 99.4438C816.289 99.4438 818.336 91.2189 818.309 84.9953L838.632 88.8072V88.8072Z" fill="#A0616A"/>
<path id="Vector_23" d="M797.843 159.612L804.809 155.695C804.942 146.428 799.49 133.888 793.023 120.753C807.485 123.296 821.129 124.111 832.931 121.035C836.962 119.947 839.392 115.751 838.386 111.614C838.34 111.419 838.287 111.226 838.227 111.035C836.814 106.629 839.981 103.868 837.068 99.0227C829.407 96.3478 822.129 95.5925 815.474 97.9545L811.304 107.38L790.635 104.646C786.456 104.135 782.663 107.184 782.163 111.457C782.161 111.476 782.158 111.496 782.156 111.515C782.129 111.745 782.11 111.975 782.102 112.206C786.281 132.236 790.967 150.258 797.843 159.612V159.612Z" fill="#2F2E41"/>
<path id="Vector_24" d="M841.437 53.7624L833.475 53.2818C832.787 53.2402 832.148 53.6496 831.885 54.3013L829.635 59.8778L820.283 67.7796C820.283 67.7796 816.581 72.5964 816.572 78.8173C816.563 85.0381 815.258 99.4368 815.258 99.4368C815.258 99.4368 820.662 91.6609 823.997 93.729C824.565 94.0809 824.765 94.8004 825.359 95.1641C825.655 95.3454 826.34 95.1691 826.64 95.3508C831.236 98.14 836.029 100.865 836.477 100.387C837.356 99.4491 838.423 94.6554 838.423 94.6554L845.712 67.2787C846.512 64.3621 845.994 61.2326 844.301 58.7468C843.792 58.0139 843.259 57.4687 842.763 57.3785C841.65 57.1361 842.242 54.5855 841.437 53.7624V53.7624Z" fill="#6C63FF"/>
<g id="Leg">
<path id="Vector_25" d="M773.704 177.051L770.343 174.663L777.957 159.977L782.918 163.503L773.704 177.051Z" fill="#A0616A"/>
<path id="Vector_26" d="M773.196 167.198L778.464 172.011C786.839 162.47 793.171 149.089 798.537 133.894C812.597 129.684 823.199 122.895 832.455 114.835C835.595 112.119 837.949 108.629 835.271 105.32C835.146 105.166 835.015 105.016 834.879 104.872C831.717 101.55 823.698 102.183 819.002 99.1392L808.511 110.603L809.17 113.677L789.465 120.5C785.498 121.922 783.409 126.361 784.799 130.417C784.806 130.437 784.813 130.456 784.82 130.476C784.894 130.695 784.977 130.91 785.068 131.121L773.196 167.198V167.198Z" fill="#2F2E41"/>
<path id="Vector_27" d="M775.664 176.083L770.283 171.752L768.612 174.21L760.713 174.186C759.703 174.182 758.881 175.017 758.878 176.05C758.876 176.665 759.169 177.241 759.663 177.592L766.346 182.341L769.151 180.727L767.947 183.479L770.467 185.269L775.664 176.083V176.083Z" fill="#2F2E41"/>
</g>
<path id="Vector_28" d="M829.679 122.756C831.736 121.864 832.696 119.436 831.823 117.334C831.73 117.11 831.617 116.894 831.487 116.69L849.513 88.8813L842.064 88.3024L825.624 115.615C823.828 116.994 823.465 119.6 824.814 121.436C825.943 122.973 827.954 123.519 829.679 122.756V122.756Z" fill="#A0616A"/>
<path id="Vector_29" d="M840.044 61.2065C840.044 61.2065 844.259 58.1415 848.155 62.7012C852.051 67.261 851.726 86.1255 851.762 89.1677C851.774 90.1203 850.428 92.1758 848.574 94.5501C847.742 95.6161 846.807 96.7463 845.847 97.8697C845.291 98.5199 845.77 99.8731 845.212 100.505C844.657 101.133 843.065 101.041 842.537 101.624C840.031 104.393 837.996 106.5 837.996 106.5L829.839 106.603C829.747 100.403 833.899 94.87 839.234 89.522L840.044 61.2065V61.2065Z" fill="#6C63FF"/>
<path id="Vector_30" d="M848.266 34.2158C849.038 34.7856 849.851 35.3727 850.793 35.5139C851.735 35.6551 852.839 35.1894 853.1 34.2529C853.418 33.1079 852.407 32.0654 851.498 31.3212L848.616 28.9616C848.088 28.483 847.492 28.0892 846.848 27.7935C846.193 27.4989 845.443 27.5246 844.809 27.8632C844.179 28.298 843.815 29.0357 843.847 29.8121C843.888 30.5773 844.135 31.3161 844.561 31.947C845.642 33.6699 847.364 34.8668 849.329 35.2608" fill="#2F2E41"/>
<path id="Vector_31" d="M846.986 28.2395C846.902 26.1038 849.128 24.4127 851.214 24.5464C853.3 24.68 855.093 26.1801 856.276 27.9424C857.459 29.7032 858.169 31.7427 859.101 33.6545C860.033 35.5663 861.274 37.4381 863.125 38.4288C864.976 39.4181 867.553 39.2416 868.833 37.5526C869.639 38.8035 869.815 40.3726 869.305 41.7774C868.781 43.164 867.804 44.3227 866.54 45.057C866.037 45.3621 865.499 45.6037 864.939 45.7766C864.708 45.1394 864.384 44.542 863.976 44.0053C864.16 44.6407 864.23 45.305 864.183 45.966C863.32 46.1352 862.432 46.1209 861.575 45.924C859.867 45.5335 858.439 44.3432 857.722 42.7118C856.939 40.8184 857.338 38.6595 857.17 36.6113C857.005 34.5628 855.797 32.2242 853.786 32.1908C852.255 32.165 852.458 32.2941 851.488 33.5053" fill="#2F2E41"/>
<path id="Vector_32" d="M833.081 39.4621C833.081 44.5749 837.136 48.7197 842.137 48.7197C847.138 48.7197 851.889 42.7946 851.889 37.6818C851.889 32.5689 847.138 30.2044 842.137 30.2044C837.136 30.2044 833.081 34.3492 833.081 39.4621Z" fill="#2F2E41"/>
<path id="Vector_33" d="M837.674 50.5563C833 49.5784 829.986 44.9117 830.942 40.1328C831.899 35.354 836.464 32.2726 841.138 33.2505C845.813 34.2283 848.827 38.8951 847.871 43.6739C846.914 48.4528 842.349 51.5341 837.674 50.5563Z" fill="#A0616A"/>
<path id="Vector_34" d="M828.553 40.5303C831.111 41.2442 833.693 41.9925 834.69 40.5303C834.884 39.5607 835.251 38.6361 835.774 37.8028C835.872 38.736 836.086 39.6525 836.411 40.5303C839.642 41.2483 842.662 41.4199 845.272 40.5303C845.63 41.1937 845.839 41.9311 845.881 42.688C846.01 42.6052 846.145 42.5325 846.285 42.4708C846.453 42.3738 846.654 42.3556 846.836 42.421C846.961 42.4986 847.045 42.6314 847.062 42.7806C847.079 42.9291 847.072 43.0795 847.041 43.2257C847.004 43.735 846.856 44.2292 846.606 44.6713C846.406 44.9792 846.089 45.1872 845.731 45.2445C845.369 47.3275 842.485 50.144 842.485 50.144C851.193 50.5 851.193 44.4612 851.193 38.7499L850.148 36.6136H846.665V31.9847H836.912C832.296 31.986 828.555 35.8112 828.553 40.5303V40.5303Z" fill="#2F2E41"/>
</g>
<g id="2ndHuman">
<g id="Group">
<path id="Vector_35" d="M16.3545 265.288L21.1847 265.288L23.4824 246.526L16.3536 246.527L16.3545 265.288Z" fill="#FFB6B6"/>
<path id="Vector_36" d="M16.1845 270.362L31.0379 270.362V270.172C31.0377 266.957 28.4494 264.351 25.2565 264.351H25.2562L22.543 262.278L17.4809 264.351L16.1843 264.351L16.1845 270.362V270.362Z" fill="#2F2E41"/>
</g>
<g id="Group_2">
<path id="Vector_37" d="M37.7683 265.288L42.5984 265.288L44.8962 246.526L37.7673 246.527L37.7683 265.288Z" fill="#FFB6B6"/>
<path id="Vector_38" d="M37.5983 270.362L52.4517 270.362V270.172C52.4515 266.957 49.8632 264.351 46.6703 264.351H46.67L43.9568 262.278L38.8947 264.351L37.598 264.351L37.5983 270.362V270.362Z" fill="#2F2E41"/>
</g>
<path id="Vector_39" d="M40.07 160.585L12.2027 161.176C12.2027 161.176 7.19283 169.447 11.0178 181.115L10.5893 184.365L12.3494 189.386L13.2294 204.747L12.3494 207.11L12.936 211.541C12.936 211.541 10.5893 240.785 16.4561 255.555L23.4962 255.259L26.1363 216.724L24.6696 213.904L24.9629 212.722L28.483 194.999L32.0031 204.156V209.244L35.2298 213.018C35.2298 213.018 34.0565 247.874 37.2832 254.964H45.1652L48.1367 207.701L45.2034 180.229L45.79 178.457L44.91 177.57L45.4967 174.617L40.0699 160.585L40.07 160.585V160.585Z" fill="#2F2E41"/>
<path id="Vector_40" d="M28.1897 106.676L19.6829 104.608L17.3362 110.22C17.3362 110.22 5.19471 116.719 4.60801 125.581C4.60801 125.581 2.96253 132.67 4.42924 135.92C5.89595 139.169 12.0561 149.508 12.0561 149.508C12.0561 149.508 6.48263 167.527 7.94931 168.413C9.416 169.299 44.3234 167.527 44.3234 165.755C44.3234 163.982 38.5139 145.372 38.5139 145.372L37.2833 113.47L29.3631 110.516L28.1897 106.676L28.1897 106.676V106.676Z" fill="#3F3D56"/>
<g id="2ndRHand">
<path id="Vector_41" d="M5.51099 179.392C7.29145 178.488 8.00761 176.302 7.11047 174.509C7.02016 174.329 6.91383 174.162 6.79949 174.004L11.5331 141.323L4.97966 141.534L1.55156 173.377C0.309088 174.438 -0.102935 176.251 0.662632 177.781C1.55977 179.574 3.73043 180.295 5.51102 179.392H5.51099V179.392Z" fill="#FFB6B6"/>
<path id="Vector_42" d="M17.4526 133.079C19.3042 126.674 16.2289 120.138 9.60377 120.17C7.68885 120.179 6.20115 120.738 5.78883 122.287C4.34569 127.708 3.55879 135.891 3.55879 135.891L1.84684 144.604L2.88376 146.413L0.722056 152.252L1.77064 155.014L1.99734 169.12L7.27746 168.825L13.0951 158.071L15.3197 156.739C15.3197 156.739 13.5336 139.352 17.0865 134.346L17.4526 133.079H17.4526V133.079Z" fill="#3F3D56"/>
</g>
<g id="2ndLHand">
<path id="Vector_43" d="M67.6931 163.967C68.4099 162.093 67.4829 159.989 65.6225 159.268C65.4353 159.195 65.2454 159.143 65.0553 159.104L46.769 131.686L42.0538 136.274L60.7483 162.188C60.5353 163.814 61.4391 165.436 63.0265 166.052C64.8869 166.774 66.9762 165.84 67.6931 163.967V163.967Z" fill="#FFB6B6"/>
<path id="Vector_44" d="M41.1035 117.315C38.016 111.412 30.1116 110.013 25.3681 114.671C23.997 116.017 23.313 117.46 24.085 118.863C26.7869 123.772 33.05 129.057 33.05 129.057L40.7627 141.543L42.7566 142.119L45.2298 147.831L50.5297 154.106L57.5495 157.834L61.6562 153.699L60.7842 148.382L50.216 134.202C50.216 134.202 42.612 124.568 41.7139 118.482L41.1035 117.315V117.315V117.315Z" fill="#3F3D56"/>
</g>
<path id="Vector_45" d="M26.5733 104.949C26.379 104.973 26.1853 104.99 25.9926 104.999C25.3931 105.032 24.8008 104.998 24.23 104.901C22.4957 104.621 20.92 103.793 19.7042 102.58C18.4189 101.3 17.5392 99.5917 17.3014 97.6467C16.7444 93.0556 19.9908 88.8735 24.55 88.3125C29.0437 87.7563 33.14 90.9214 33.7939 95.407C33.8041 95.4765 33.8147 95.543 33.8221 95.6121C34.3789 100.206 31.1356 104.386 26.5733 104.949V104.949V104.949Z" fill="#FFB6B6"/>
<path id="Vector_46" d="M35.6686 95.0997C34.4876 95.6879 32.5579 93.8389 31.8188 94.9027C31.6988 94.6728 31.5662 94.4505 31.4352 94.2402C31.3166 94.0521 31.1471 93.6505 30.9509 93.5817C31.1992 94.1849 31.1444 95.002 30.8867 95.702C29.7217 96.1403 28.1968 95.17 27.1186 94.0223C25.4255 92.2228 22.6609 96.8374 23.3146 99.2255C22.4827 98.2025 20.6775 98.7795 20.0658 99.9492C19.4543 101.116 20.4874 102.051 20.7084 103.352L19.0407 103.139C17.9884 102.107 18.062 100.368 17.1955 99.1719C15.7483 97.1702 15.1875 95.1278 16.2755 93.062C17.2406 91.2354 17.3308 88.8713 19.1013 87.8182C18.3277 87.4374 21.0788 88.0324 20.3439 86.7911C19.6058 85.5525 23.5399 85.4022 23.7965 86.0658C24.9207 84.7109 26.0546 83.8176 27.4374 84.9033C28.7956 85.9713 28.655 87.094 30.2501 86.9934C30.9985 86.9467 30.9164 88.352 31.3613 88.9647C31.8037 89.5741 33.5232 89.9653 33.6069 89.9001C34.0611 89.5422 35.6063 92.5885 35.6063 92.5885C35.6063 92.5885 36.8592 94.5038 35.6686 95.0997H35.6686V95.0997Z" fill="#2F2E41"/>
</g>
</g>
</svg>
