<svg viewBox="0 0 913 622" fill="none" xmlns="http://www.w3.org/2000/svg">
<g id="Frame 1">
<rect width="913" height="622" fill="white"/>
<path id="Vector" d="M102.891 567.09C102.861 568.06 102.811 569.03 102.731 570.01C101.581 571.49 100.444 572.967 99.3207 574.44C98.4007 575.64 97.4907 576.82 96.5907 578C96.5707 578.02 96.5607 578.04 96.5407 578.06C96.4907 578.13 96.4407 578.2 96.3807 578.28L96.0007 578L95.0507 577.3L89.6707 573.33C84.1292 572.237 78.9084 569.9 74.4025 566.494C69.8967 563.088 66.2236 558.703 63.6607 553.67C60.2507 546.88 58.8907 539.1 57.5207 531.41C55.6307 520.79 53.6807 510.37 46.1407 503.04C51.3069 503.487 56.3947 504.593 61.2807 506.33C60.6331 508.37 60.3886 510.517 60.5607 512.65C60.6107 513.25 60.7907 513.98 61.3807 514.15C61.6407 514.17 61.9018 514.128 62.1431 514.029C62.3843 513.93 62.5992 513.777 62.7707 513.58C63.7107 512.75 64.6607 511.92 65.6107 511.09C66.3707 510.43 67.1307 509.77 67.8907 509.11C71.6235 510.927 75.1703 513.104 78.4807 515.61C83.6427 519.493 88.1584 524.167 91.8607 529.46C97.5235 537.676 101.134 547.131 102.391 557.03C102.822 560.365 102.989 563.729 102.891 567.09V567.09Z" fill="#3F3D56"/>
<path id="Vector_2" d="M113.271 553.91C112.93 555.367 112.502 556.803 111.991 558.21C108.821 562.19 105.734 566.123 102.731 570.01C101.581 571.49 100.444 572.967 99.3207 574.44C98.4007 575.64 97.4907 576.82 96.5907 578C96.5707 578.02 96.5607 578.04 96.5407 578.06C96.5207 578.04 96.4907 578.02 96.4707 578C96.0807 577.65 95.7107 577.3 95.3407 576.93C93.1956 574.853 91.2038 572.624 89.3807 570.26C82.27 561.098 77.8206 550.154 76.5207 538.63C76.4507 537.94 76.3907 537.26 76.3307 536.57C75.8424 529.512 76.5697 522.422 78.4807 515.61C81.4525 504.842 87.2493 495.064 95.2707 487.29C94.3907 494.54 96.5607 501.26 99.7207 507.86C98.4939 510.47 97.9667 513.355 98.1907 516.23C98.2407 516.83 98.4207 517.56 99.0107 517.72C99.5107 517.86 100.001 517.5 100.401 517.16C101.341 516.33 102.301 515.5 103.241 514.67C106.561 520.73 110.101 526.8 112.251 533.23C112.737 534.687 113.144 536.169 113.471 537.67C114.61 543.031 114.541 548.579 113.271 553.91V553.91Z" fill="#6C63FF"/>
<path id="Vector_3" d="M99.3206 574.44C98.4006 575.64 97.4906 576.82 96.5906 578C96.5706 578.02 96.5606 578.04 96.5406 578.06C96.4906 578.13 96.4406 578.2 96.3806 578.28L96.0006 578H75.0907L74.8407 578.81C74.1007 578.56 73.3606 578.29 72.6306 578C65.3678 575.221 58.697 571.091 52.9706 565.83C46.3196 559.6 41.0976 552.002 37.664 543.561C34.2304 535.119 32.6667 526.034 33.0806 516.93C37.2406 522.61 43.1406 525.99 49.6706 528.61C49.5706 528.88 49.4706 529.14 49.3906 529.41C48.7388 531.446 48.4941 533.59 48.6706 535.72C48.7206 536.33 48.9006 537.06 49.4806 537.22C49.7403 537.245 50.002 537.207 50.2439 537.109C50.4858 537.012 50.7007 536.858 50.8706 536.66C51.8206 535.83 52.7706 534.99 53.7206 534.17C54.4806 533.51 55.2306 532.85 55.9906 532.19C56.3506 531.88 56.7106 531.57 57.0606 531.26C57.2206 531.31 57.3706 531.36 57.5206 531.41C63.9906 533.53 70.6306 535.51 76.5206 538.63C77.9974 539.413 79.4296 540.278 80.8106 541.22C88.7811 546.816 94.2752 555.281 96.1407 564.84C96.4506 566.438 96.651 568.055 96.7406 569.68L98.4507 572.84L99.3206 574.44Z" fill="#6C63FF"/>
<path id="Vector_4" d="M625.341 563.04C625.444 567.932 624.769 572.81 623.341 577.49C623.291 577.66 623.231 577.83 623.171 578H593.731C594.151 575.928 594.82 573.913 595.721 572C598.171 566.8 602.171 562.35 606.121 557.93C611.561 551.84 616.871 545.8 617.711 537.88C619.867 541.167 621.588 544.72 622.831 548.45C621.309 549.014 619.913 549.87 618.721 550.97C618.391 551.28 618.041 551.73 618.211 552.16C618.371 552.52 618.811 552.64 619.201 552.72C620.141 552.9 621.081 553.08 622.021 553.25C622.761 553.4 623.511 553.54 624.261 553.68C624.92 556.758 625.282 559.893 625.341 563.04Z" fill="#E6E6E6"/>
<path id="Vector_5" d="M650.071 559.8C645.351 562.67 642.351 567.11 639.901 572.08C637.769 572.566 635.8 573.6 634.191 575.08C633.851 575.39 633.501 575.84 633.681 576.27C633.831 576.63 634.281 576.75 634.671 576.83C635.601 577.01 636.551 577.19 637.481 577.36C637.391 577.57 637.301 577.79 637.211 578H606.011C607.427 576.09 608.995 574.297 610.701 572.64C611.071 572.27 611.451 571.92 611.841 571.56C615.818 567.966 620.385 565.083 625.341 563.04C633.148 559.776 641.686 558.657 650.071 559.8V559.8Z" fill="#E6E6E6"/>
<path id="Vector_6" d="M611.211 578H583.431C583.279 575.775 583.292 573.543 583.471 571.32C584.072 564.44 586.158 557.773 589.585 551.777C593.012 545.781 597.698 540.6 603.321 536.59C601.881 541.72 602.621 546.82 604.121 551.94C603.911 552.01 603.701 552.07 603.511 552.15C601.989 552.714 600.593 553.57 599.401 554.67C599.071 554.98 598.721 555.43 598.891 555.86C599.041 556.22 599.491 556.34 599.881 556.42C600.821 556.6 601.761 556.78 602.691 556.95C603.441 557.1 604.191 557.24 604.941 557.39C605.291 557.45 605.641 557.52 605.991 557.59C606.041 557.71 606.071 557.82 606.121 557.93C607.881 562.78 609.801 567.67 610.701 572.64C610.923 573.887 611.077 575.146 611.161 576.41C611.191 576.94 611.211 577.47 611.211 578Z" fill="#E6E6E6"/>
<path id="Vector_7" d="M411.341 563.04C411.444 567.932 410.769 572.81 409.341 577.49C409.291 577.66 409.231 577.83 409.171 578H379.731C380.151 575.928 380.82 573.913 381.721 572C384.171 566.8 388.171 562.35 392.121 557.93C397.561 551.84 402.871 545.8 403.711 537.88C405.867 541.167 407.588 544.72 408.831 548.45C407.309 549.014 405.913 549.87 404.721 550.97C404.391 551.28 404.041 551.73 404.211 552.16C404.371 552.52 404.811 552.64 405.201 552.72C406.141 552.9 407.081 553.08 408.021 553.25C408.761 553.4 409.511 553.54 410.261 553.68C410.92 556.758 411.282 559.893 411.341 563.04V563.04Z" fill="#E6E6E6"/>
<path id="Vector_8" d="M436.071 559.8C431.351 562.67 428.351 567.11 425.901 572.08C423.769 572.566 421.8 573.6 420.191 575.08C419.851 575.39 419.501 575.84 419.681 576.27C419.831 576.63 420.281 576.75 420.671 576.83C421.601 577.01 422.551 577.19 423.481 577.36C423.391 577.57 423.301 577.79 423.211 578H392.011C393.427 576.09 394.995 574.297 396.701 572.64C397.071 572.27 397.451 571.92 397.841 571.56C401.818 567.966 406.385 565.083 411.341 563.04C419.148 559.776 427.686 558.657 436.071 559.8Z" fill="#E6E6E6"/>
<path id="Vector_9" d="M397.211 578H369.431C369.279 575.775 369.292 573.543 369.471 571.32C370.072 564.44 372.158 557.773 375.585 551.777C379.012 545.781 383.698 540.6 389.321 536.59C387.881 541.72 388.621 546.82 390.121 551.94C389.911 552.01 389.701 552.07 389.511 552.15C387.989 552.714 386.593 553.57 385.401 554.67C385.071 554.98 384.721 555.43 384.891 555.86C385.041 556.22 385.491 556.34 385.881 556.42C386.821 556.6 387.761 556.78 388.691 556.95C389.441 557.1 390.191 557.24 390.941 557.39C391.291 557.45 391.641 557.52 391.991 557.59C392.041 557.71 392.071 557.82 392.121 557.93C393.881 562.78 395.801 567.67 396.701 572.64C396.923 573.887 397.077 575.146 397.161 576.41C397.191 576.94 397.211 577.47 397.211 578Z" fill="#E6E6E6"/>
<path id="Vector_10" d="M466.09 210.455C458.42 197.771 449.333 184.228 435.1 180.086C418.618 175.289 401.687 184.818 387.325 194.22C344.376 222.34 303.015 252.815 263.432 285.503L263.475 285.996C294.292 283.871 325.109 281.745 355.926 279.62C378.192 278.085 401.222 276.338 420.898 265.805C428.365 261.808 435.643 256.469 444.104 256.097C454.616 255.635 463.781 262.976 470.984 270.646C513.591 316.017 525.921 385.4 573.722 425.262C543.58 350.927 507.59 279.099 466.09 210.455V210.455Z" fill="#F2F2F2"/>
<path id="Vector_11" d="M717.901 578H713.681C676.951 530.28 642.391 480.993 610.001 430.14C587.381 394.66 565.884 358.493 545.511 321.64C544.311 319.47 543.114 317.297 541.921 315.12C533.491 299.74 525.257 284.257 517.221 268.67C510.101 254.87 503.144 240.99 496.351 227.03C494.411 223.04 492.521 219.04 490.641 215.02C486.211 205.58 481.871 196.09 477.201 186.78C472.491 177.37 466.871 167.57 458.871 160.5C457.843 159.579 456.768 158.711 455.651 157.9C454.384 156.972 453.054 156.133 451.671 155.39C451.531 155.31 451.391 155.24 451.251 155.16C447.871 153.357 444.151 152.284 440.331 152.01C432.381 151.49 425.051 154.78 418.151 158.36C406.511 164.43 395.047 170.85 383.761 177.62C346.259 200.155 310.872 226.034 278.031 254.94C277.951 255.01 277.861 255.09 277.781 255.16C234.96 292.765 196.687 335.25 163.741 381.75C162.731 383.19 160.351 381.81 161.371 380.37C165.371 374.7 169.454 369.093 173.621 363.55C204.696 322.198 240.064 284.253 279.131 250.35C283.501 246.55 287.921 242.803 292.391 239.11C314.334 220.943 337.317 204.068 361.221 188.57C368.541 183.82 375.944 179.213 383.431 174.75C388.391 171.78 393.384 168.87 398.411 166.02C404.771 162.42 411.161 158.86 417.661 155.53C424.031 152.25 430.791 149.31 438.071 149.2C443.316 149.104 448.496 150.365 453.111 152.86C453.251 152.94 453.401 153.01 453.541 153.1C456.361 154.679 458.98 156.592 461.341 158.8C471.911 168.59 478.981 183.95 484.481 195.74C487.251 201.69 490.054 207.613 492.891 213.51C503.601 235.92 514.727 258.13 526.271 280.14C532.441 291.89 538.727 303.59 545.131 315.24C546.111 317.05 547.111 318.86 548.111 320.66C571.251 362.47 595.844 403.437 621.891 443.56C652.821 491.2 683.541 533.86 717.901 578Z" fill="#E4E4E4"/>
<path id="Vector_12" d="M275.336 241.306C273.897 239.702 272.467 238.098 271.018 236.493C259.596 223.861 247.34 211.375 231.654 204.133C224.175 200.571 216.011 198.678 207.727 198.587C199.165 198.614 190.795 200.86 182.884 204.004C179.144 205.499 175.486 207.195 171.883 209.001C167.767 211.072 163.724 213.282 159.7 215.509C152.146 219.69 144.69 224.053 137.332 228.6C122.691 237.648 108.51 247.387 94.7861 257.817C87.6721 263.225 80.7048 268.811 73.8844 274.574C67.5407 279.928 61.3253 285.425 55.2382 291.066C53.9365 292.267 51.993 290.324 53.2946 289.123C54.8989 287.629 56.5215 286.144 58.1442 284.677C62.7278 280.533 67.3849 276.469 72.1154 272.484C80.7415 265.205 89.591 258.208 98.6639 251.491C112.773 241.04 127.367 231.299 142.447 222.266C149.983 217.755 157.622 213.435 165.365 209.303C167.703 208.056 170.068 206.837 172.461 205.682C177.89 202.944 183.531 200.647 189.329 198.816C197.542 196.159 206.231 195.305 214.805 196.313C223.082 197.517 231.057 200.276 238.31 204.444C253.711 213.053 265.655 226.363 277.28 239.354C278.453 240.674 276.519 242.626 275.336 241.306Z" fill="#E4E4E4"/>
<path id="Vector_13" d="M590.897 372.213L627.801 358.715L646.125 352.013C652.092 349.831 658.045 347.346 664.214 345.783C669.575 344.252 675.268 344.324 680.588 345.992C685.333 347.748 689.676 350.44 693.359 353.908C697.122 357.373 700.623 361.113 703.834 365.095C707.823 369.889 711.754 374.733 715.702 379.562C731.996 399.489 748.183 419.503 764.265 439.603C780.345 459.703 796.319 479.888 812.184 500.159C828.089 520.479 843.884 540.885 859.57 561.375C861.492 563.885 863.411 566.396 865.33 568.909C866.389 570.297 868.779 568.929 867.704 567.521C851.903 546.825 835.991 526.213 819.969 505.686C803.908 485.11 787.736 464.622 771.453 444.22C755.17 423.819 738.777 403.507 722.274 383.283C718.163 378.245 714.045 373.212 709.92 368.184C706.44 363.944 703 359.657 699.184 355.71C692.178 348.465 683.426 342.062 672.949 341.888C666.79 341.786 660.828 343.741 655.105 345.811C648.936 348.043 642.781 350.317 636.619 352.571L599.456 366.163L590.166 369.561C588.517 370.164 589.229 372.823 590.897 372.213V372.213Z" fill="#E4E4E4"/>
<path id="Vector_14" d="M226.797 220.028C208.043 210.39 184.026 212.277 166.792 224.32C199.664 229.991 232.177 237.579 264.163 247.045C250.88 239.261 240.49 227.066 226.797 220.028Z" fill="#F2F2F2"/>
<path id="Vector_15" d="M166.608 224.286L162.997 227.221C164.219 226.194 165.488 225.231 166.792 224.32C166.731 224.309 166.669 224.297 166.608 224.286Z" fill="#F2F2F2"/>
<path id="Vector_16" d="M691.969 372.348C688.337 367.926 684.409 363.296 678.975 361.5L673.902 361.7C712.52 429.939 764.676 489.566 827.169 536.92C782.103 482.063 737.036 427.205 691.969 372.348Z" fill="#F2F2F2"/>
<path id="Vector_17" d="M390.801 360.24C385.961 444.04 367.111 527.16 319.081 578H96.5907C96.5707 578.02 96.5607 578.04 96.5407 578.06C96.4907 578.13 96.4407 578.2 96.3807 578.28L96.0007 578H75.0907L75.3607 577.12C78.9953 575.825 82.52 574.24 85.9007 572.38C87.1307 571.69 88.2906 570.99 89.3807 570.26C91.8025 568.674 94.0663 566.859 96.1407 564.84C98.5277 562.495 100.626 559.873 102.391 557.03C105.731 551.71 107.801 545.98 109.821 540.14C110.611 537.85 111.401 535.54 112.251 533.23C116.771 520.97 123.171 508.72 142.511 499.05C200.891 469.86 244.191 377.19 270.031 285.55C270.691 283.2 271.341 280.85 271.981 278.5C274.131 270.61 276.147 262.757 278.031 254.94C278.411 253.41 278.771 251.88 279.131 250.35C286.075 221.26 291.318 191.79 294.831 162.09C297.281 140.5 298.231 121.47 297.621 106.5C297.45 99.2249 296.569 91.9838 294.991 84.88L368.671 81.77C368.671 81.77 369.791 86.99 371.551 96.42C373.331 106 375.771 119.93 378.341 137.13C380.031 148.37 381.771 161.02 383.431 174.75C383.541 175.7 383.651 176.66 383.761 177.62C384.441 183.32 385.101 189.22 385.731 195.27C388.311 219.88 390.451 247.16 391.481 275.69C391.611 279.16 391.721 282.647 391.811 286.15C392.451 310.36 392.241 335.33 390.801 360.24Z" fill="#2F2E41"/>
<path id="Vector_18" d="M387.014 289.007L488.686 228.329L502.504 270.938L334.666 405.121L387.014 289.007Z" fill="#2F2E41"/>
<path id="Vector_19" d="M613.211 183.29C613.121 183.1 613.021 182.91 612.911 182.72C608.857 175.104 602.734 168.789 595.246 164.503C587.758 160.218 579.211 158.137 570.591 158.5C566.55 158.693 562.514 158.032 558.745 156.561C554.977 155.089 551.561 152.84 548.721 149.96L548.321 149.55C544.602 145.799 540.438 142.518 535.921 139.78L535.581 139.57L535.301 139.87C532.689 142.645 529.728 145.069 526.491 147.08C526.861 146.66 527.201 146.23 527.541 145.78C527.542 145.78 527.543 145.78 527.545 145.779C527.546 145.779 527.547 145.778 527.548 145.777C527.549 145.776 527.549 145.775 527.55 145.774C527.55 145.773 527.551 145.771 527.551 145.77C529.338 143.406 530.82 140.826 531.961 138.09L532.141 137.66L531.781 137.48L531.721 137.45C519.641 131.307 505.931 129.134 492.544 131.243C479.157 133.351 466.777 139.632 457.171 149.19C455.901 150.45 454.681 151.76 453.541 153.1C452.901 153.85 452.271 154.61 451.671 155.39C445.647 163.12 441.483 172.133 439.501 181.73V181.74C439.381 182.3 439.271 182.85 439.171 183.41C437.302 193.616 437.927 204.122 440.994 214.035C444.06 223.947 449.476 232.972 456.781 240.34C458.261 241.83 459.821 243.26 461.431 244.6C462.601 245.58 463.811 246.51 465.041 247.39C476.569 255.554 486.792 265.42 495.361 276.65C498.934 281.377 502.165 286.353 505.031 291.54C507.096 295.272 509.667 298.701 512.671 301.73C513.191 302.24 513.731 302.76 514.291 303.27L514.931 303.87L515.111 303.01C515.381 301.716 515.574 300.407 515.691 299.09V299.08C515.81 297.797 515.84 296.507 515.781 295.22C516.723 297.813 517.41 300.493 517.831 303.22V303.23C517.991 304.24 518.111 305.24 518.201 306.27L518.221 306.49L518.411 306.63C518.991 307.05 519.581 307.45 520.181 307.83C526.687 312.075 534.171 314.584 541.921 315.12C542.981 315.2 544.061 315.24 545.131 315.24C546.251 315.24 547.371 315.2 548.491 315.12C560.097 314.262 570.938 309.004 578.798 300.421C586.658 291.838 590.944 280.577 590.781 268.94C590.803 262.967 592.018 257.058 594.355 251.561C596.692 246.064 600.104 241.09 604.391 236.93C604.441 236.87 604.501 236.81 604.561 236.75L604.721 236.59C610.467 230.898 614.597 223.782 616.691 215.97L616.851 215.36L616.491 215.35H616.221C614.689 215.322 613.16 215.208 611.641 215.01C608.283 214.603 604.985 213.808 601.811 212.64C606.481 212.9 611.571 211.94 617.631 209.7L617.921 209.59L617.951 209.29C618.979 200.345 617.33 191.296 613.211 183.29V183.29Z" fill="#3F3D56"/>
<path id="Vector_20" opacity="0.15" d="M584.716 286.833C584.732 288.481 584.659 290.128 584.497 291.768C588.533 284.676 590.618 276.641 590.54 268.481C590.526 267.232 590.582 265.984 590.683 264.739C586.751 271.436 584.69 279.067 584.716 286.833V286.833Z" fill="black"/>
<path id="Vector_21" opacity="0.15" d="M595.746 230.535C599.463 231.887 603.343 232.737 607.284 233.062C608.694 231.383 609.981 229.605 611.136 227.741C605.27 229.874 600.304 230.786 595.746 230.535Z" fill="black"/>
<path id="Vector_22" opacity="0.15" d="M611.567 214.554C612.207 218.473 612.336 222.457 611.952 226.409C613.918 222.988 615.431 219.326 616.451 215.514L616.616 214.9L615.98 214.888C614.505 214.851 613.032 214.739 611.567 214.554V214.554Z" fill="black"/>
<path id="Vector_23" opacity="0.15" d="M604.752 171.518C600.267 167.006 594.892 163.477 588.968 161.158C583.045 158.838 576.703 157.778 570.347 158.046C566.307 158.238 562.272 157.576 558.505 156.104C554.738 154.633 551.324 152.383 548.484 149.503L548.083 149.096C544.365 145.346 540.202 142.064 535.686 139.325L535.342 139.117L535.066 139.41C532.454 142.186 529.491 144.609 526.253 146.618C528.535 143.928 530.379 140.895 531.717 137.631L531.901 137.202L531.485 136.991C522.428 132.395 512.414 130.005 502.258 130.016C492.102 130.027 482.092 132.439 473.046 137.055C464 141.671 456.173 148.361 450.204 156.577C444.235 164.794 440.294 174.306 438.701 184.336C442.468 176.687 447.716 169.862 454.14 164.256C460.564 158.65 468.037 154.375 476.125 151.678C484.214 148.981 492.757 147.917 501.26 148.546C509.763 149.175 518.057 151.485 525.661 155.343L526.077 155.554L525.893 155.983C524.555 159.247 522.711 162.279 520.429 164.969C523.667 162.96 526.63 160.537 529.242 157.762L529.518 157.469L529.862 157.677C534.378 160.416 538.541 163.697 542.259 167.448L542.66 167.855C545.5 170.735 548.914 172.984 552.681 174.456C556.448 175.928 560.483 176.589 564.523 176.397C575.089 175.943 585.486 179.168 593.94 185.522C602.394 191.876 608.383 200.965 610.885 211.241C613.092 210.708 615.264 210.039 617.389 209.239L617.677 209.133L617.711 208.828C618.493 202.035 617.733 195.153 615.49 188.694C613.246 182.235 609.576 176.364 604.752 171.518V171.518Z" fill="black"/>
<path id="Vector_24" d="M66 38C66.7472 49.5557 68.7763 60.9926 72.05 72.1C78.516 94.143 89.817 114.466 105.13 131.59C105.59 132.1 106.05 132.61 106.51 133.11C106.97 133.62 107.44 134.12 107.91 134.62C108.38 135.12 108.85 135.61 109.33 136.1C109.81 136.59 110.28 137.08 110.77 137.57C112.69 139.51 114.67 141.39 116.69 143.22C117.2 143.68 117.71 144.13 118.22 144.58C119.75 145.94 121.3 147.26 122.89 148.54C123.42 148.97 123.95 149.4 124.48 149.82C125.02 150.24 125.55 150.66 126.09 151.08C126.63 151.49 127.17 151.9 127.71 152.31C128.8 153.13 129.9 153.93 131 154.72C131.47 155.05 131.93 155.37 132.4 155.7C133.61 156.54 134.82 157.36 136.05 158.16C136.55 158.48 137.05 158.81 137.55 159.12C137.7 159.22 137.85 159.32 138 159.41C138.49 159.73 138.99 160.03 139.49 160.34C140.06 160.7 140.64 161.05 141.23 161.4C142.39 162.1 143.56 162.78 144.74 163.45C145.94 164.12 147.14 164.78 148.35 165.42C149.54 166.05 150.73 166.67 151.93 167.26C152.45 167.52 152.96 167.77 153.48 168.02C153.68 168.12 153.87 168.21 154.07 168.31L155.6 169.03C156.21 169.32 156.83 169.6 157.45 169.88C158.07 170.16 158.69 170.43 159.31 170.7C160.55 171.25 161.81 171.77 163.06 172.28C163.69 172.53 164.33 172.79 164.96 173.03C165.59 173.28 166.23 173.52 166.86 173.76C167.9 174.15 168.95 174.53 170 174.89C170.59 175.11 171.18 175.31 171.77 175.5C172.08 175.6 172.38 175.71 172.68 175.81C173.47 176.07 174.27 176.33 175.07 176.57C177.15 177.22 179.25 177.83 181.35 178.39C182.3 178.65 183.26 178.89 184.22 179.13C185 179.32 185.78 179.5 186.56 179.68C187.02 179.79 187.49 179.9 187.96 180C189.87 180.42 191.78 180.8 193.71 181.15C194.46 181.29 195.2 181.42 195.95 181.54C196.13 181.57 196.3 181.6 196.47 181.63C197.38 181.78 198.3 181.92 199.22 182.05L199.64 182.11C200.43 182.22 201.22 182.33 202.01 182.43C202.32 182.46 202.63 182.5 202.94 182.54C203.64 182.63 204.34 182.71 205.04 182.78C205.59 182.84 206.14 182.89 206.7 182.94C207.39 183.01 208.07 183.07 208.76 183.13C209.77 183.21 210.79 183.28 211.8 183.34C212.77 183.4 213.74 183.45 214.71 183.49C215.61 183.53 216.51 183.56 217.4 183.58C217.75 183.59 218.09 183.6 218.43 183.6C219.36 183.62 220.29 183.63 221.21 183.63C236.049 183.623 250.809 181.485 265.04 177.28C273.42 174.805 281.582 171.641 289.44 167.82C293.55 165.82 297.663 163.91 301.78 162.09C328.4 150.138 356.478 141.746 385.29 137.13C399.726 134.859 414.308 133.646 428.92 133.5C439.206 133.401 449.427 131.87 459.29 128.95C460.97 128.46 462.7 127.9 464.43 127.3L466.43 126.61L464.8 125.25C460.001 121.156 454.706 117.682 449.04 114.91C458.069 116.265 466.883 118.79 475.26 122.42L475.76 122.64L476.26 122.4C492.611 114.459 506.745 102.598 517.402 87.8724C528.059 73.1467 534.908 56.0139 537.34 38H66Z" fill="#3F3D56"/>
<g id="Group" opacity="0.15">
<path id="Vector_25" d="M530.391 38C527.959 56.0139 521.109 73.1467 510.452 87.8724C499.795 102.598 485.662 114.459 469.311 122.4L468.811 122.64L468.311 122.42C459.933 118.79 451.119 116.265 442.091 114.91C447.757 117.682 453.052 121.156 457.851 125.25L459.481 126.61L457.481 127.3C455.751 127.9 454.021 128.46 452.341 128.95C442.478 131.87 432.256 133.401 421.971 133.5C407.358 133.646 392.776 134.859 378.341 137.13C349.529 141.746 321.45 150.138 294.831 162.09C290.711 163.91 286.597 165.82 282.491 167.82C274.632 171.641 266.471 174.805 258.091 177.28C243.86 181.485 229.099 183.623 214.261 183.63C213.341 183.63 212.411 183.62 211.481 183.6C211.141 183.6 210.801 183.59 210.451 183.58C209.561 183.56 208.661 183.53 207.761 183.49C206.791 183.45 205.821 183.4 204.851 183.34C203.841 183.28 202.821 183.21 201.811 183.13C201.121 183.07 200.441 183.01 199.751 182.94C199.191 182.89 198.641 182.84 198.091 182.78C197.391 182.71 196.691 182.63 195.991 182.54C195.681 182.5 195.371 182.46 195.061 182.43C194.271 182.33 193.481 182.22 192.691 182.11L192.271 182.05C191.351 181.92 190.431 181.78 189.521 181.63C189.351 181.6 189.181 181.57 189.001 181.54C188.251 181.42 187.511 181.29 186.761 181.15C184.831 180.8 182.921 180.42 181.011 180C180.541 179.9 180.071 179.79 179.611 179.68C178.831 179.5 178.051 179.32 177.271 179.13C176.311 178.89 175.351 178.65 174.401 178.39C172.301 177.83 170.201 177.22 168.121 176.57C167.321 176.33 166.521 176.07 165.731 175.81C165.431 175.71 165.131 175.6 164.821 175.5C164.231 175.31 163.641 175.11 163.051 174.89C162.001 174.53 160.951 174.15 159.911 173.76C159.281 173.52 158.641 173.28 158.011 173.03C157.381 172.79 156.741 172.53 156.111 172.28C154.861 171.77 153.601 171.25 152.361 170.7C151.741 170.43 151.121 170.16 150.501 169.88C149.881 169.6 149.261 169.32 148.651 169.03L147.121 168.31C146.921 168.21 146.731 168.12 146.531 168.02C146.011 167.77 145.501 167.52 144.981 167.26C143.781 166.67 142.591 166.05 141.401 165.42C140.191 164.78 138.991 164.12 137.791 163.45C136.611 162.78 135.441 162.1 134.281 161.4C133.691 161.05 133.111 160.7 132.541 160.34C132.041 160.03 131.541 159.73 131.051 159.41C130.901 159.32 130.751 159.22 130.601 159.12C130.101 158.81 129.601 158.48 129.101 158.16C127.871 157.36 126.661 156.54 125.451 155.7C124.981 155.37 124.521 155.05 124.051 154.72C122.951 153.93 121.851 153.13 120.761 152.31C120.221 151.9 119.681 151.49 119.141 151.08C118.601 150.66 118.071 150.24 117.531 149.82C117.001 149.4 116.471 148.97 115.941 148.54C114.361 147.25 112.804 145.93 111.271 144.58C110.761 144.13 110.251 143.68 109.741 143.22C107.721 141.39 105.741 139.51 103.821 137.57C103.331 137.08 102.861 136.59 102.381 136.1C101.901 135.61 101.431 135.12 100.961 134.62C100.491 134.12 100.021 133.62 99.5606 133.11C99.1006 132.61 98.6406 132.1 98.1806 131.59C132.596 147.912 171.821 150.97 208.351 140.18C216.731 137.706 224.893 134.542 232.751 130.72C253.521 120.524 275.251 112.411 297.621 106.5C321.76 100.133 346.588 96.7479 371.551 96.42C371.771 96.41 372.001 96.41 372.221 96.41C382.51 96.3032 392.734 94.7686 402.601 91.85C404.281 91.36 406.001 90.8 407.731 90.2L409.731 89.51L408.111 88.15C403.308 84.0559 398.01 80.582 392.341 77.81C401.373 79.1651 410.19 81.6896 418.571 85.32L419.071 85.54L419.571 85.3C440.529 75.1205 457.722 58.5612 468.681 38H530.391Z" fill="black"/>
</g>
<g id="Girl">
<path id="Vector_26" d="M465.393 479.695L436.902 263.11C436.705 261.582 436.204 260.109 435.428 258.778C434.653 257.447 433.62 256.284 432.389 255.357L434.2 252.967C435.749 254.132 437.049 255.595 438.023 257.269C438.998 258.944 439.628 260.797 439.876 262.719L468.368 479.305L465.393 479.695Z" fill="#3F3D56"/>
<path id="Vector_27" d="M472.952 362.54C479.621 362.54 485.027 357.134 485.027 350.465C485.027 343.797 479.621 338.391 472.952 338.391C466.283 338.391 460.877 343.797 460.877 350.465C460.877 357.134 466.283 362.54 472.952 362.54Z" fill="#FFB8B8"/>
<path id="Vector_28" d="M412.375 397.812C414.635 394.166 417.478 390.916 420.789 388.188C417.811 391.661 415.781 395.844 414.894 400.332C415.683 401.006 416.523 401.619 417.406 402.165C420.063 403.777 422.984 404.908 426.034 405.505C428.514 400.238 432.13 395.586 436.623 391.884C433.184 395.897 431.017 400.843 430.397 406.091C433.867 406.307 437.35 406.089 440.765 405.44C445.889 404.492 450.994 402.696 454.947 399.305C459.224 395.636 461.854 390.342 463.263 384.884C464.672 379.431 464.962 373.756 465.241 368.129C465.377 365.448 468.032 362.736 468.167 360.055L467.994 360.029C466.975 358.321 466.251 356.453 465.852 354.505C465.665 353.528 465.723 352.52 466.022 351.571C466.321 350.622 466.851 349.763 467.564 349.07C468.405 348.406 469.406 347.976 470.466 347.821C470.579 347.714 470.701 347.612 470.826 347.511C473.099 345.721 475.666 344.34 478.412 343.428C476.605 344.324 475.1 345.729 474.083 347.471C475.73 347.359 477.376 347.248 479.022 347.138C479.64 346.653 480.281 346.199 480.944 345.778C481.706 345.329 482.5 344.937 483.32 344.605C482.391 345.205 481.617 346.019 481.066 346.979C483.192 346.769 485.357 346.3 486.686 344.697C488.889 342.045 487.376 337.798 484.704 335.618C482.751 334.094 480.368 333.222 477.893 333.126C475.417 333.03 472.974 333.715 470.909 335.083C467.135 331.326 461.088 330.475 456.022 332.104C452.667 333.249 449.635 335.182 447.181 337.74C448.379 337.765 449.574 337.859 450.761 338.023C449.057 338.018 447.374 338.409 445.847 339.166C445.093 340.025 444.385 340.923 443.726 341.856C443.294 342.469 442.879 343.093 442.481 343.729C440.15 347.666 438.095 351.76 436.331 355.981C434.144 360.836 431.847 365.709 428.492 369.845C423.356 376.127 416.108 380.325 408.103 381.654C406.609 387.291 408.569 393.315 412.375 397.812Z" fill="#2F2E41"/>
<path id="Vector_29" d="M470.936 335.419C469.184 337.323 467.895 339.605 467.168 342.088C466.442 344.571 466.299 347.188 466.75 349.736L470.936 335.419Z" fill="#FD6584"/>
<path id="Vector_30" d="M508.311 406.469C507.995 407.077 507.55 407.608 507.007 408.025C506.464 408.442 505.835 408.735 505.167 408.883C504.498 409.031 503.805 409.031 503.136 408.882C502.468 408.734 501.84 408.44 501.297 408.023L487.381 417.161L487.397 408.51L500.61 401.158C501.372 400.292 502.425 399.736 503.57 399.595C504.714 399.454 505.871 399.738 506.82 400.393C507.769 401.048 508.445 402.028 508.72 403.148C508.995 404.268 508.85 405.45 508.311 406.469V406.469Z" fill="#FFB8B8"/>
<path id="Vector_31" d="M458.255 373.191C458.255 373.191 452.545 381.103 452.715 390.371C452.885 399.639 460.767 430.236 464.669 430.165C468.572 430.093 499.478 412.446 499.478 412.446L494.935 404.234L472.675 414.403C472.675 414.403 474.769 368.984 458.255 373.191Z" fill="#6C63FF"/>
<path id="Vector_32" d="M448.236 405.793L447 422.396L443.696 434.906L472.403 437.542L480.955 410.113L477.818 402.69L448.236 405.793Z" fill="#FFB8B8"/>
<path id="Vector_33" d="M481.331 377.751L478.96 375.542L477.781 368.365L464.759 364.201L459.169 369.071L449.47 371.663L445.692 389.982L442.196 412.686L477.475 422.323L483.844 406.773C483.844 406.773 494.966 396.998 487.069 388.362L481.331 377.751Z" fill="#6C63FF"/>
<path id="Vector_34" d="M485.721 467.88C484.884 467.308 483.894 467.002 482.881 467H421.881C420.555 467 419.283 467.527 418.345 468.464C417.407 469.402 416.881 470.674 416.881 472C416.881 473.326 417.407 474.598 418.345 475.536C419.283 476.473 420.555 477 421.881 477H482.881C483.936 476.998 484.964 476.664 485.819 476.045C486.673 475.425 487.311 474.552 487.641 473.55C487.797 473.048 487.878 472.526 487.881 472C487.88 471.19 487.683 470.392 487.307 469.675C486.93 468.957 486.386 468.342 485.721 467.88Z" fill="#6C63FF"/>
<path id="Vector_35" d="M504.029 534.509L510.326 533.726L510.448 508.539L501.154 509.695L504.029 534.509Z" fill="#FFB8B8"/>
<path id="Vector_36" d="M468.849 518.691C469.161 519.071 469.475 519.446 469.792 519.822C470.424 520.574 471.065 521.32 471.71 522.059C472.034 522.429 472.362 522.8 472.688 523.166L472.684 523.178L472.706 523.19L472.713 523.196L473.277 523.553L474.936 521.518L475.701 520.581L476.783 519.253L478.764 516.825L489.197 504.04L481.289 499.035L480.525 500.247L480.521 500.246L480.143 500.847L473.052 512.053L471.604 514.345L471.559 514.414L470.69 515.782L469.939 516.967L469.102 518.293L468.849 518.691Z" fill="#FFB8B8"/>
<path id="Vector_37" d="M434.604 450.115C434.857 451.175 435.124 452.235 435.397 453.288C435.904 455.249 436.446 457.194 437.025 459.126C437.024 459.13 437.028 459.131 437.03 459.136C437.474 459.946 438.01 460.701 438.628 461.386C438.652 461.42 438.683 461.448 438.708 461.479C439.166 461.977 439.683 462.416 440.249 462.787C440.453 462.917 440.662 463.049 440.867 463.18C441.608 463.64 442.351 464.07 443.097 464.479C444.425 465.202 445.763 465.85 447.112 466.423C447.219 466.472 447.328 466.517 447.437 466.563C453.059 468.776 458.949 470.235 464.954 470.902C467.999 471.316 471.139 471.642 474.392 471.979C475.455 472.086 476.522 472.199 477.6 472.315C477.681 472.324 477.768 472.331 477.853 472.342C479.394 472.506 480.957 472.683 482.556 472.875C484.567 473.117 486.635 473.391 488.772 473.71L487.678 476.506C486.828 478.653 485.653 480.658 484.194 482.449C483.138 483.611 482.328 484.975 481.812 486.458C481.297 487.942 481.087 489.514 481.196 491.081L481.219 493.323C480.525 494.201 480.045 495.228 479.816 496.322C479.586 497.417 479.613 498.55 479.896 499.633L479.965 499.891L469.287 512.599L468.595 513.423L471.558 514.413L475.202 515.635L481.38 517.698L496.268 502.792L496.98 502.081L496.994 502.037L507.552 467.362C507.642 467.054 507.72 466.739 507.782 466.423C508.08 464.991 508.089 463.513 507.81 462.077C507.531 460.641 506.968 459.275 506.155 458.059C505.379 456.887 504.377 455.881 503.208 455.099C502.039 454.317 500.726 453.776 499.346 453.506L496.163 452.882L489.66 451.605L485.078 450.709L484.987 450.691L471.477 448.041L471.813 443.942L471.663 443.82L466.878 440.001L450.33 426.791L450.288 426.759L449.199 425.89L448.972 426.08C448.904 426.137 448.836 426.194 448.772 426.253C446.812 428.041 445.04 430.025 443.483 432.173C440.903 435.671 438.525 439.313 436.359 443.081C436.265 443.244 436.18 443.393 436.104 443.527L436.077 443.567C436.042 443.631 436.02 443.672 436.012 443.683C434.94 445.649 434.451 447.881 434.604 450.115V450.115Z" fill="#2F2E41"/>
<path id="Vector_38" d="M438.038 437.184C438.183 436.949 438.346 436.715 438.509 436.49C439.778 434.798 441.139 433.178 442.587 431.636C444.221 429.877 446.352 421.022 446.381 421L471.447 430.113L475.381 430L472.653 437.289L472.652 437.293L475.991 443.504L476.025 443.51L486.781 445.618L497.865 447.791L503.819 448.959C505.199 449.229 506.512 449.77 507.681 450.552C508.85 451.334 509.852 452.34 510.629 453.513C511.441 454.729 512.003 456.095 512.283 457.531C512.562 458.967 512.552 460.444 512.255 461.876C512.198 462.167 512.126 462.463 512.043 462.75L513.166 477.307C513.839 486.014 513.194 494.772 511.253 503.286L510.985 517.228L510.406 517.092L501.778 515.075L499.5 514.544L497.006 505.816C496.722 504.821 496.474 503.811 496.269 502.794C495.927 501.13 495.691 499.446 495.563 497.753L493.404 469.19C492.544 469.058 491.694 468.922 490.854 468.782C486.965 468.148 483.26 467.453 479.74 466.696C469.675 464.696 459.878 461.53 450.547 457.26C448.255 456.171 446.073 455.017 444.002 453.797C443.242 453.353 442.497 452.898 441.767 452.434C441.594 452.328 441.425 452.223 441.258 452.113C439.751 451.138 438.514 449.8 437.658 448.222C436.803 446.645 436.357 444.878 436.361 443.083C436.346 440.997 436.928 438.95 438.038 437.184V437.184Z" fill="#2F2E41"/>
<path id="Vector_39" d="M503.532 530.224L510.348 529.371L511.417 529.236L511.682 533.341L521.2 539.034C521.671 539.315 522.04 539.739 522.252 540.244C522.465 540.75 522.51 541.31 522.382 541.843C522.253 542.376 521.957 542.854 521.538 543.207C521.118 543.56 520.597 543.77 520.05 543.805L508.643 544.548L506.414 540.616L505.91 544.726L501.614 545.007L501.875 530.433L503.532 530.224Z" fill="#2F2E41"/>
<path id="Vector_40" d="M469.287 512.599L468.595 513.423L468.97 513.548L469.287 512.599Z" fill="#2F2E41"/>
<path id="Vector_41" d="M470.948 514.435L476.392 518.624L477.246 519.28L474.546 522.383L477.304 533.126C477.441 533.657 477.404 534.218 477.199 534.727C476.995 535.235 476.633 535.665 476.167 535.954C475.7 536.242 475.154 536.374 474.607 536.329C474.061 536.285 473.543 536.067 473.129 535.707L464.501 528.209L465.684 523.847L462.434 526.413L459.183 523.589L469.624 513.417L470.948 514.435Z" fill="#2F2E41"/>
<path id="Vector_42" d="M423.225 361.348C423.621 361.907 423.89 362.546 424.012 363.22C424.135 363.894 424.108 364.586 423.933 365.248C423.759 365.911 423.442 366.527 423.004 367.053C422.565 367.58 422.017 368.004 421.398 368.296L423.157 384.851L415.471 380.878L414.979 365.766C414.558 364.692 414.546 363.502 414.944 362.419C415.342 361.337 416.123 360.439 417.14 359.894C418.156 359.35 419.337 359.197 420.459 359.465C421.58 359.733 422.565 360.403 423.225 361.348V361.348Z" fill="#FFB8B8"/>
<path id="Vector_43" d="M460.791 383.04C459.75 385.028 458.452 386.871 456.931 388.52C452.551 393.2 438.631 402.98 429.511 407.7C425.421 409.81 422.512 410.581 421.411 410.08C416.155 407.687 411.409 368.33 414.381 368L422.381 375V377L426.011 393.02C426.011 393.02 426.821 392.04 428.201 390.47C432.701 385.38 440.351 375.98 449.381 372C452.211 377.19 460.241 382.42 460.241 382.42C460.241 382.42 460.451 382.64 460.791 383.04Z" fill="#6C63FF"/>
<path id="Vector_44" d="M466.881 480H439.066L438.894 478.696L410.857 266.553C410.479 263.69 410.956 260.78 412.228 258.188C413.499 255.596 415.509 253.439 418.005 251.986C420.5 250.534 423.369 249.852 426.251 250.027C429.133 250.201 431.899 251.224 434.2 252.967L432.389 255.357C430.559 253.972 428.36 253.159 426.069 253.021C423.778 252.882 421.497 253.425 419.513 254.579C417.529 255.734 415.931 257.45 414.92 259.51C413.91 261.571 413.531 263.885 413.831 266.16L441.696 477H466.881V480Z" fill="#3F3D56"/>
</g>
<path id="Vector_45" d="M756.122 183.584C770.869 183.584 782.823 171.63 782.823 156.883C782.823 142.137 770.869 130.182 756.122 130.182C741.376 130.182 729.422 142.137 729.422 156.883C729.422 171.63 741.376 183.584 756.122 183.584Z" fill="#FD6584"/>
<path id="Vector_46" d="M815.881 144.24C815.128 141.771 813.669 139.576 811.684 137.925C809.7 136.275 807.276 135.241 804.711 134.95C804.651 134.945 804.591 134.945 804.531 134.95C804.459 134.928 804.385 134.911 804.311 134.9C795.371 133.74 785.431 136.56 778.741 142.7C776.257 144.943 774.271 147.682 772.911 150.74C771.671 149.046 770.036 147.68 768.149 146.76C766.262 145.84 764.179 145.394 762.081 145.46C759.374 145.639 756.789 146.648 754.678 148.35C752.566 150.052 751.031 152.364 750.281 154.97C750.198 155.288 750.221 155.625 750.345 155.93C750.47 156.234 750.689 156.49 750.971 156.66C751.775 157.348 752.731 157.835 753.761 158.08C755.971 158.55 758.201 158.98 760.431 159.37C764.791 160.13 769.174 160.747 773.581 161.22C776.491 161.53 779.407 161.777 782.331 161.96C788.371 162.34 794.441 162.43 800.491 162.24C803.491 162.14 806.371 162.04 809.111 160.72C811.107 159.738 812.813 158.253 814.061 156.41C815.235 154.638 816.006 152.63 816.321 150.527C816.635 148.424 816.485 146.278 815.881 144.24V144.24Z" fill="#E6E6E6"/>
<path id="Vector_47" d="M760.951 183.14C760.9 182.021 760.712 180.913 760.391 179.84C759.634 177.371 758.173 175.177 756.187 173.527C754.201 171.876 751.776 170.842 749.211 170.55C749.154 170.545 749.097 170.545 749.041 170.55C748.965 170.529 748.888 170.512 748.811 170.5C743.863 169.894 738.842 170.41 734.121 172.01C726.861 174.44 720.491 179.34 717.421 186.34C716.179 184.645 714.543 183.278 712.654 182.358C710.765 181.438 708.681 180.993 706.581 181.06C703.874 181.239 701.289 182.248 699.178 183.95C697.066 185.652 695.53 187.964 694.781 190.57C694.703 190.888 694.728 191.223 694.852 191.527C694.976 191.83 695.192 192.087 695.471 192.26C696.276 192.946 697.232 193.432 698.261 193.68C700.481 194.15 702.701 194.58 704.941 194.97C709.301 195.73 713.681 196.347 718.081 196.82C727.02 197.78 736.015 198.12 745.001 197.84C747.991 197.74 750.881 197.64 753.621 196.32C755.614 195.338 757.317 193.852 758.561 192.01C760.314 189.398 761.154 186.279 760.951 183.14V183.14Z" fill="#E6E6E6"/>
</g>
</svg>
