<?xml version="1.0" standalone="no"?>
<!DOCTYPE svg PUBLIC "-//W3C//DTD SVG 20010904//EN"
 "http://www.w3.org/TR/2001/REC-SVG-20010904/DTD/svg10.dtd">
<svg version="1.0" xmlns="http://www.w3.org/2000/svg"
 width="218.000000pt" height="96.000000pt" viewBox="0 0 218.000000 96.000000"
 preserveAspectRatio="xMidYMid meet">

<g transform="translate(0.000000,96.000000) scale(0.100000,-0.100000)"
fill="#000000" stroke="none">
<path d="M82 711 c3 -212 4 -217 31 -272 38 -78 119 -153 187 -173 152 -45
292 10 357 142 28 56 28 59 31 275 3 159 0 222 -9 233 -8 10 -35 14 -95 14
l-84 0 0 -197 c0 -218 -9 -257 -65 -301 -52 -41 -106 -28 -138 32 -20 38 -22
57 -25 241 -2 123 -8 205 -14 213 -8 9 -37 12 -95 11 l-85 -2 4 -216z"/>
<path d="M952 903 c-6 -10 -48 -106 -95 -213 -47 -107 -108 -245 -135 -306
-37 -82 -47 -115 -39 -123 6 -6 48 -11 100 -11 l88 0 35 77 c20 43 42 93 50
112 l14 33 40 -51 40 -51 83 0 82 0 28 -60 28 -60 89 0 c89 0 89 0 81 23 -25
65 -275 624 -283 635 -7 8 -41 12 -104 12 -79 0 -95 -3 -102 -17z m156 -288
c18 -41 32 -77 32 -80 0 -3 -32 -5 -71 -5 -39 0 -69 4 -67 8 42 103 64 152 68
152 3 0 20 -34 38 -75z"/>
<path d="M1508 598 c-2 -190 0 -328 5 -335 7 -10 68 -13 247 -13 227 0 239 1
280 23 55 29 80 75 80 145 0 65 -18 110 -58 144 l-30 25 30 23 c96 71 64 236
-57 291 -35 16 -68 19 -266 19 l-227 0 -4 -322z m430 130 c5 -46 -29 -59 -144
-56 l-99 3 -3 43 -3 43 123 -3 123 -3 3 -27z m-228 -128 c0 -6 12 -28 26 -50
l27 -40 77 0 c84 0 96 -8 84 -55 -8 -31 -16 -33 -131 -36 l-98 -2 -3 97 c-2
61 1 96 8 96 5 0 10 -5 10 -10z"/>
<path d="M82 119 c-2 -63 9 -79 53 -79 45 0 55 16 53 79 l-2 56 -3 -50 c-5
-61 -17 -77 -57 -73 -30 3 -31 5 -37 63 l-6 60 -1 -56z"/>
<path d="M620 145 c0 -21 -3 -24 -17 -17 -11 6 -28 6 -41 1 -20 -7 -23 -15
-20 -46 3 -37 4 -38 46 -39 l42 -1 0 63 c0 35 -2 64 -5 64 -3 0 -5 -11 -5 -25z
m-5 -60 c0 -27 -3 -30 -30 -30 -21 0 -31 5 -33 18 -6 33 6 49 35 45 24 -3 28
-8 28 -33z"/>
<path d="M765 115 c-15 -33 -29 -64 -31 -70 -3 -5 3 0 12 12 22 30 80 32 89 3
3 -11 10 -20 15 -20 8 0 -19 67 -47 115 -11 18 -14 15 -38 -40z m55 -17 c0 -5
-11 -8 -25 -8 -29 0 -29 0 -13 35 l12 26 13 -23 c7 -13 12 -26 13 -30z"/>
<path d="M913 105 c0 -38 2 -53 4 -32 2 20 2 52 0 70 -2 17 -4 1 -4 -38z"/>
<path d="M1180 145 c0 -23 -2 -24 -20 -15 -41 22 -83 -27 -60 -70 9 -16 19
-20 51 -18 l39 2 0 63 c0 35 -2 63 -5 63 -3 0 -5 -11 -5 -25z m-5 -60 c0 -27
-3 -30 -30 -30 -21 0 -31 5 -33 18 -6 33 6 49 35 45 24 -3 28 -8 28 -33z"/>
<path d="M1300 105 l0 -65 39 0 c22 0 46 3 55 6 18 7 22 39 6 49 -6 4 -5 13 3
26 10 17 9 22 -7 35 -11 8 -37 14 -58 14 l-38 0 0 -65z m87 44 c21 -21 3 -39
-38 -39 -35 0 -39 3 -39 25 0 22 4 25 33 25 18 0 38 -5 44 -11z m8 -74 c0 -16
-8 -21 -42 -23 -40 -3 -43 -2 -43 23 0 25 3 26 43 23 34 -2 42 -7 42 -23z"/>
<path d="M870 100 c0 -33 4 -60 10 -60 6 0 10 27 10 60 0 33 -4 60 -10 60 -6
0 -10 -27 -10 -60z"/>
<path d="M372 133 c-8 -8 -9 -13 -2 -13 5 0 11 -19 12 -42 l1 -43 4 40 c3 22
8 42 13 45 4 3 2 10 -4 16 -9 8 -15 7 -24 -3z"/>
<path d="M221 83 l2 -48 6 40 c5 34 10 40 31 40 21 0 26 -6 31 -40 l7 -40 -2
45 c-1 44 -1 45 -38 48 l-38 3 1 -48z"/>
<path d="M333 85 c0 -27 2 -38 4 -22 2 15 2 37 0 50 -2 12 -4 0 -4 -28z"/>
<path d="M428 104 c-16 -34 0 -58 39 -62 20 -2 34 3 43 15 12 15 12 16 0 6
-19 -18 -67 -16 -74 2 -4 12 4 15 39 15 30 0 45 4 45 13 0 43 -74 52 -92 11z
m80 -1 c2 -9 -9 -13 -38 -13 -37 0 -41 2 -30 16 15 17 61 15 68 -3z"/>
<path d="M953 85 c0 -27 2 -38 4 -22 2 15 2 37 0 50 -2 12 -4 0 -4 -28z"/>
<path d="M992 118 c-15 -15 -15 -51 0 -66 17 -17 63 -15 78 3 9 10 9 15 1 15
-6 0 -11 -4 -11 -10 0 -16 -57 -12 -64 5 -4 12 4 15 39 15 30 0 45 4 45 13 0
21 -22 37 -50 37 -14 0 -31 -5 -38 -12z m68 -13 c11 -13 7 -15 -30 -15 -37 0
-41 2 -30 15 7 8 20 15 30 15 10 0 23 -7 30 -15z"/>
<path d="M1430 97 c0 -42 15 -57 57 -57 33 0 33 0 32 48 l-2 47 -6 -40 c-5
-34 -10 -40 -33 -43 -27 -3 -28 -1 -28 37 0 23 -4 41 -10 41 -5 0 -10 -15 -10
-33z"/>
<path d="M1553 114 c-7 -18 4 -31 31 -36 30 -5 32 -28 2 -28 -14 0 -26 5 -26
10 0 6 -6 10 -12 10 -7 -1 -3 -9 10 -20 17 -14 29 -17 45 -11 38 14 26 39 -25
55 -27 8 -22 26 7 26 14 0 25 -4 25 -10 0 -5 5 -10 11 -10 8 0 8 5 -1 15 -16
20 -59 19 -67 -1z"/>
<path d="M1653 85 c0 -27 2 -38 4 -22 2 15 2 37 0 50 -2 12 -4 0 -4 -28z"/>
<path d="M1691 80 l2 -45 6 40 c5 34 10 40 34 43 26 3 27 1 27 -37 0 -46 14
-57 17 -14 2 45 -14 64 -53 61 -34 -2 -34 -3 -33 -48z"/>
<path d="M1811 116 c-7 -8 -11 -27 -9 -43 3 -25 7 -28 42 -28 26 0 41 5 44 15
4 13 3 13 -11 2 -19 -16 -59 -12 -65 6 -2 8 9 12 38 12 37 0 41 2 38 23 -4 27
-58 37 -77 13z m67 -13 c2 -9 -8 -13 -32 -13 -34 0 -44 8 -29 24 11 11 56 2
61 -11z"/>
<path d="M1917 116 c-7 -17 9 -32 37 -37 11 -2 21 -10 24 -16 5 -17 -40 -17
-57 -1 -10 11 -11 10 -6 -4 5 -13 18 -18 42 -18 30 0 34 3 31 22 -2 14 -12 24
-27 28 -34 8 -39 30 -8 30 14 0 28 -5 30 -10 3 -6 4 -5 3 2 -4 19 -62 22 -69
4z"/>
<path d="M2023 114 c-7 -19 5 -31 37 -36 14 -1 25 -7 25 -13 0 -16 -47 -18
-57 -3 -8 10 -9 10 -5 -2 6 -22 71 -20 75 3 3 12 -5 19 -27 23 -17 4 -34 11
-37 15 -9 15 27 23 47 11 15 -10 17 -9 13 3 -8 20 -63 20 -71 -1z"/>
</g>
</svg>
