<svg viewBox="0 0 711 796" fill="none" xmlns="http://www.w3.org/2000/svg">
<rect width="711" height="796" fill="#E5E5E5"/>
<g id="Frame 1">
<rect width="711" height="796" fill="white"/>
<path id="Vector" d="M374.623 228.749C374.622 227.938 374.782 227.134 375.092 226.384C375.403 225.634 375.858 224.953 376.432 224.379C377.006 223.805 377.687 223.35 378.437 223.039C379.187 222.729 379.991 222.569 380.803 222.57H405.183C405.995 222.568 406.8 222.727 407.551 223.037C408.302 223.347 408.984 223.802 409.559 224.376C410.134 224.95 410.59 225.632 410.901 226.382C411.213 227.133 411.373 227.937 411.373 228.749V230.439H467.453V145.139H315.913V230.439H374.623V228.749Z" fill="#3F3D56"/>
<path id="Vector_2" d="M516.213 145.14H475.323V230.44H510.043L516.213 145.14Z" fill="#3F3D56"/>
<path id="Vector_3" d="M467.45 44V137.26H418.18C392.618 137.256 367.983 127.681 349.128 110.42C330.274 93.1585 318.566 69.4629 316.31 44H467.45Z" fill="#3F3D56"/>
<path id="Vector_4" d="M522.3 61.11L516.78 137.26H475.32V44H506.4C508.592 44.0011 510.76 44.4539 512.769 45.3301C514.778 46.2062 516.584 47.487 518.076 49.0925C519.568 50.6979 520.713 52.5936 521.44 54.6613C522.167 56.7289 522.46 58.9242 522.3 61.11Z" fill="#3F3D56"/>
<path id="Vector_5" d="M508.13 256.69L501.52 381.03L501.47 381.93L499.34 422.02C499.008 431.144 495.15 439.784 488.577 446.121C482.005 452.459 473.231 456 464.1 456H320.57C314.687 456.007 308.896 454.536 303.73 451.72C303.64 451.67 303.55 451.62 303.47 451.58C302.62 451.11 301.8 450.6 301 450.07C300.8 449.93 300.6 449.8 300.4 449.66C295.916 446.538 292.22 442.415 289.605 437.618C286.989 432.821 285.526 427.48 285.33 422.02L276.54 256.69H508.13Z" fill="#3F3D56"/>
<path id="Vector_6" d="M263.459 75.9009L267.903 137.26H308.033V44H292.99C292.857 44 292.723 44.0006 292.59 44.0018C288.544 44.0633 284.553 44.9518 280.864 46.6126C277.174 48.2735 273.863 50.6716 271.135 53.6594C268.406 56.6473 266.318 60.1618 264.998 63.9867C263.678 67.8116 263.154 71.8662 263.459 75.9009V75.9009Z" fill="#3F3D56"/>
<path id="Vector_7" d="M274.643 230.44H308.033V145.14H268.473L274.643 230.44Z" fill="#3F3D56"/>
<path id="Vector_8" d="M467.21 53H467.45V135H467.21C456.336 135 445.908 130.68 438.219 122.991C430.53 115.302 426.21 104.874 426.21 94C426.21 83.1261 430.53 72.6976 438.219 65.0086C445.908 57.3196 456.336 53 467.21 53V53Z" fill="#6C63FF"/>
<path id="Vector_9" d="M508.21 94C508.208 103.466 504.931 112.641 498.937 119.968C492.943 127.294 484.599 132.323 475.32 134.2V53.8C484.599 55.6774 492.943 60.7057 498.937 68.0324C504.931 75.3592 508.208 84.5335 508.21 94V94Z" fill="#6C63FF"/>
<path id="ShootStar" opacity="0.3" d="M305.112 263.603C310.786 263.87 322.52 266.687 335.235 270.329C347.943 273.975 361.727 278.424 375.336 282.823C399.157 290.519 422.978 298.213 446.798 305.903C450.072 306.959 453.356 308.024 456.649 309.099C457.91 310.748 459.164 312.413 460.395 314.095C457.5 313.072 454.594 312.082 451.697 311.139C439.319 307.117 428.577 304.464 416.564 300.804C398.076 295.176 378.571 287.786 359.655 280.904C340.74 274.017 319.039 266.603 305.112 263.603Z" fill="#F0F0F0"/>
<path id="Vector_10" d="M402.296 436.475C403.353 436.475 404.21 435.618 404.21 434.56C404.21 433.503 403.353 432.646 402.296 432.646C401.238 432.646 400.381 433.503 400.381 434.56C400.381 435.618 401.238 436.475 402.296 436.475Z" fill="white"/>
<g id="Star2">
<path id="Vector_11" d="M388.296 94.4238C389.877 94.4238 391.159 93.1418 391.159 91.5603C391.159 89.9789 389.877 88.6968 388.296 88.6968C386.714 88.6968 385.432 89.9789 385.432 91.5603C385.432 93.1418 386.714 94.4238 388.296 94.4238Z" fill="white"/>
<path id="Vector_12" d="M467.296 292.475C468.353 292.475 469.21 291.618 469.21 290.56C469.21 289.503 468.353 288.646 467.296 288.646C466.238 288.646 465.381 289.503 465.381 290.56C465.381 291.618 466.238 292.475 467.296 292.475Z" fill="white"/>
</g>
<g id="Star1">
<path id="Vector_13" d="M490.296 172.424C491.877 172.424 493.159 171.142 493.159 169.56C493.159 167.979 491.877 166.697 490.296 166.697C488.714 166.697 487.432 167.979 487.432 169.56C487.432 171.142 488.714 172.424 490.296 172.424Z" fill="white"/>
<path id="Vector_14" d="M357.296 183.475C358.353 183.475 359.21 182.618 359.21 181.56C359.21 180.503 358.353 179.646 357.296 179.646C356.238 179.646 355.381 180.503 355.381 181.56C355.381 182.618 356.238 183.475 357.296 183.475Z" fill="white"/>
</g>
<path id="Vector_15" d="M329.296 340.475C330.353 340.475 331.21 339.618 331.21 338.56C331.21 337.503 330.353 336.646 329.296 336.646C328.238 336.646 327.381 337.503 327.381 338.56C327.381 339.618 328.238 340.475 329.296 340.475Z" fill="white"/>
<path id="Vector_16" d="M419.441 361.567C418.771 361.128 418.078 360.686 417.367 360.264C414.049 358.299 410.362 356.767 406.759 357.816C402.983 358.914 400.57 362.509 398.536 365.875C387.522 384.095 377.97 403.159 369.97 422.889C382.655 412.31 385.929 393.895 397.235 381.851C399.148 379.817 401.581 377.867 404.37 377.991C406.618 378.089 408.548 379.505 410.53 380.566C415.751 383.363 421.866 383.825 427.775 384.232C435.953 384.798 444.132 385.362 452.313 385.926L452.324 385.796C446.529 381.01 440.596 376.408 434.525 371.989C429.581 368.387 424.553 364.913 419.441 361.567Z" fill="#F2F2F2"/>
<path id="Vector_17" d="M476.16 406.51C467.669 395.216 457.976 384.879 447.25 375.68C446.39 374.94 445.52 374.21 444.64 373.48C442.76 371.93 440.857 370.413 438.93 368.93C434.85 365.81 430.664 362.857 426.37 360.07C423.79 358.4 421.174 356.79 418.52 355.24C417.85 354.85 417.18 354.46 416.5 354.08C414.81 353.13 413.12 352.18 411.39 351.3C409.737 350.33 407.882 349.755 405.97 349.62C399.4 349.52 395.99 356.96 393.65 361.97C392.92 363.55 392.177 365.123 391.42 366.69C388.58 372.64 385.627 378.533 382.56 384.37C380.67 387.98 378.74 391.567 376.77 395.13C373.97 400.18 371.094 405.18 368.14 410.13C364.6 416.07 360.95 421.94 357.19 427.74C350.72 437.71 344.29 446.85 337.39 456H338.43C346.12 445.65 353.424 435.043 360.34 424.18C366.34 414.76 372.047 405.163 377.46 395.39C380.03 390.74 382.534 386.053 384.97 381.33C386.85 377.66 388.694 373.977 390.5 370.28C391.02 369.22 391.52 368.16 392.02 367.09C393.2 364.58 394.35 362.06 395.59 359.59C397 356.78 398.71 353.82 401.31 351.93C402.488 351.033 403.896 350.489 405.37 350.36C407.451 350.377 409.487 350.961 411.26 352.05C413.61 353.28 415.937 354.56 418.24 355.89C425.249 359.971 431.99 364.497 438.42 369.44C441.88 372.1 445.244 374.867 448.51 377.74C459.878 387.719 470.038 398.996 478.78 411.34C479.05 411.72 479.68 411.36 479.41 410.97C478.35 409.47 477.267 407.983 476.16 406.51Z" fill="#F2F2F2"/>
<path id="Vector_18" d="M496.05 376.77C492.31 373.99 488.437 371.403 484.43 369.01C482.43 367.81 480.41 366.67 478.35 365.57C477.73 365.24 477.1 364.92 476.47 364.61C475.03 363.88 473.532 363.271 471.99 362.79C469.811 362.085 467.506 361.856 465.23 362.12C463.032 362.439 460.915 363.172 458.99 364.28C454.9 366.57 451.73 370.1 448.65 373.55C448.586 373.62 448.552 373.712 448.554 373.807C448.555 373.902 448.594 373.992 448.66 374.06C448.69 374.097 448.728 374.128 448.772 374.149C448.815 374.169 448.862 374.18 448.91 374.18C448.958 374.18 449.006 374.169 449.049 374.149C449.092 374.128 449.13 374.097 449.16 374.06C449.55 373.64 449.92 373.21 450.31 372.79C453.34 369.43 456.59 366.12 460.76 364.2C462.744 363.25 464.911 362.749 467.11 362.73C469.377 362.788 471.613 363.274 473.7 364.16C474.69 364.56 475.66 365.01 476.62 365.49C477.71 366.04 478.79 366.63 479.85 367.22C481.86 368.33 483.84 369.487 485.79 370.69C489.68 373.09 493.444 375.677 497.08 378.45C498.57 379.58 500.03 380.73 501.47 381.93L501.52 381.03C499.73 379.56 497.907 378.14 496.05 376.77Z" fill="#F2F2F2"/>
<path id="Vector_19" d="M319.4 426.7C323.66 421.36 327.957 416.047 332.29 410.76C333.33 409.48 334.38 408.19 335.44 406.92C336.291 405.861 337.22 404.868 338.22 403.95C339.198 403.03 340.351 402.315 341.61 401.85C343.021 401.41 344.528 401.39 345.95 401.79C347.577 402.262 349.179 402.816 350.75 403.45L355.62 405.23L365.41 408.81C365.471 408.839 365.541 408.845 365.606 408.829C365.672 408.813 365.73 408.774 365.77 408.72C365.808 408.672 365.834 408.615 365.846 408.554C365.858 408.494 365.856 408.431 365.839 408.372C365.823 408.313 365.793 408.258 365.751 408.213C365.71 408.167 365.658 408.132 365.6 408.11L363.14 407.2L353.28 403.6C351.64 403 350.01 402.39 348.37 401.8C346.867 401.167 345.26 400.815 343.63 400.76C340.85 400.81 338.53 402.51 336.67 404.43C335.66 405.48 334.74 406.61 333.82 407.74C332.73 409.07 331.63 410.41 330.54 411.75C326.16 417.11 321.81 422.5 317.49 427.92C313.17 433.34 308.877 438.777 304.61 444.23C303.2 446.04 301.797 447.85 300.4 449.66C300.6 449.8 300.8 449.93 301 450.07C302.88 447.63 304.774 445.197 306.68 442.77C310.89 437.39 315.13 432.033 319.4 426.7Z" fill="#F2F2F2"/>
<path id="Vector_20" d="M462.046 368.417C458.412 370.285 455.655 373.522 452.129 375.588C460.619 373.076 469.248 371.062 477.972 369.556C475.658 367.971 472.963 367.029 470.164 366.829C467.365 366.629 464.563 367.177 462.046 368.417Z" fill="#F2F2F2"/>
<path id="Vector_21" d="M477.972 369.556C478.319 369.798 478.656 370.054 478.98 370.327L478.021 369.548L477.972 369.556Z" fill="#F2F2F2"/>
<path id="Vector_22" d="M342.033 405.966C340.637 406.583 339.442 407.581 338.585 408.845C326.623 423.405 314.662 437.964 302.701 452.524C319.287 439.956 333.13 424.13 343.38 406.019L342.033 405.966Z" fill="#F2F2F2"/>
<path id="Vector_23" d="M219.861 440.607C219.866 440.633 219.87 440.65 219.874 440.676C219.905 440.855 219.935 441.018 219.97 441.198V441.207C221.456 449.414 223.088 457.484 224.867 465.417L560.886 464.697C562.69 456.602 564.345 448.357 565.853 439.964C565.858 439.945 565.861 439.925 565.862 439.905L219.861 440.607Z" fill="#E6E6E6"/>
<g id="ThirdLHand">
<path id="Vector_24" d="M237.001 350.483L260.382 349.781C266.697 363.671 258.967 393.714 258.967 393.714L250.273 455.518C251.65 456.699 252.692 458.222 253.294 459.934C253.895 461.646 254.035 463.485 253.699 465.268C253.364 467.051 252.564 468.714 251.382 470.09C250.199 471.466 248.675 472.506 246.962 473.105C245.25 473.704 243.41 473.842 241.628 473.504C239.845 473.167 238.183 472.365 236.809 471.181C235.435 469.996 234.396 468.471 233.799 466.758C233.202 465.045 233.066 463.205 233.406 461.423L227.582 393.631L237.001 350.483Z" fill="#FFB8B8"/>
<path id="Vector_25" d="M235.988 355.836L240.891 322.066L253.9 309.562C256.463 307.117 259.658 305.437 263.126 304.712C266.593 303.988 270.194 304.247 273.521 305.462V305.462C278.021 307.139 281.716 310.462 283.859 314.759C286.002 319.056 286.434 324.006 285.067 328.609C280.909 342.566 273.862 359.729 263.904 362.233L263.804 362.259L235.988 355.836Z" fill="#6C63FF"/>
</g>
<path id="Vector_26" d="M334.855 737.94H347.612L353.68 688.736L334.853 688.737L334.855 737.94Z" fill="#FFB6B6"/>
<path id="Vector_27" d="M331.606 733.774V750.304H372.736V749.784C372.735 745.538 371.048 741.466 368.046 738.464C365.044 735.461 360.972 733.774 356.726 733.774L349.206 728.074L348.816 728.234L335.196 733.774H331.606Z" fill="#2F2E41"/>
<path id="Vector_28" d="M247.855 737.94H260.612L266.68 688.736L247.853 688.737L247.855 737.94Z" fill="#FFB6B6"/>
<path id="Vector_29" d="M244.606 733.774V750.304H285.736V749.784C285.735 745.538 284.048 741.466 281.046 738.464C278.044 735.461 273.972 733.774 269.726 733.774L262.206 728.074L261.816 728.234L248.196 733.774H244.606Z" fill="#2F2E41"/>
<path id="Vector_30" d="M343.398 435.775L255.391 430.623C255.391 430.623 237.21 465 243.21 490C249.21 515 251.294 564.918 247.752 568.959C244.21 573 243.21 566 247.21 574C251.255 582.09 250.21 572 250.21 579C250.039 583.604 248.672 588.084 246.242 591.998V712.923L277.146 710.936C277.146 710.936 285.494 706.858 278.352 699.929C271.21 693 266.638 698.449 270.924 689.724C275.21 681 277.21 691 275.21 681C273.21 671 298.367 520.875 298.367 520.875C298.367 520.875 308.015 551.902 312.21 580C319.433 628.377 323.28 685.76 326.159 688.759C330.71 693.5 333.71 687.5 330.71 693.5C327.71 699.5 320.994 698.217 325.352 701.858C329.71 705.5 329.71 700.5 329.71 705.5C329.744 708.686 330.197 711.855 331.055 714.923L356.573 713.21L355.21 583L343.398 435.775Z" fill="#2F2E41"/>
<path id="Vector_31" d="M318.363 281.396L290.143 278.037L282.917 293.205C282.917 293.205 243.328 314.574 244.769 319.787C246.21 325 257.21 347 254.21 353C251.21 359 243.399 360.996 249.305 366.498C255.21 372 259.21 374 257.21 379C255.21 384 256.21 402 256.21 402C256.21 402 244.598 423.317 248.404 427.659C252.21 432 255.21 427.741 252.21 433.87C249.21 440 226.132 447.02 248.171 447.51C270.21 448 275.21 434 292.21 445C309.21 456 342.848 445.709 342.848 445.709C342.848 445.709 344.801 434 344.006 427C343.21 420 341.349 423.476 342.78 411.738C344.21 400 346.552 372.18 346.552 372.18C346.552 372.18 359.541 314.578 356.21 309C352.879 303.422 323.573 296.039 323.573 296.039L318.363 281.396Z" fill="#6C63FF"/>
<g id="ThirdRHand">
<path id="Vector_32" d="M337.723 365.923L357.932 354.142C370.112 363.331 377.666 393.419 377.666 393.419L399.538 451.873C401.312 452.253 402.954 453.094 404.3 454.311C405.646 455.527 406.647 457.077 407.204 458.804C407.76 460.531 407.852 462.374 407.469 464.147C407.087 465.92 406.244 467.562 405.026 468.906C403.808 470.25 402.257 471.25 400.53 471.804C398.802 472.359 396.959 472.448 395.186 472.064C393.413 471.679 391.773 470.835 390.43 469.615C389.087 468.395 388.089 466.843 387.537 465.115L350.05 408.331L337.723 365.923Z" fill="#FFB8B8"/>
<path id="Vector_33" d="M339.39 371.109L327.573 339.096L333.032 321.898C334.116 318.526 336.122 315.524 338.823 313.232C341.523 310.94 344.811 309.449 348.315 308.927C358.18 307.526 359.051 310.986 361.118 320.733C364.129 334.981 365.366 342.412 366.973 363.4L366.896 363.471L339.39 371.109Z" fill="#6C63FF"/>
</g>
<path id="Vector_34" d="M307.062 272.53C321.77 272.53 333.694 260.607 333.694 245.898C333.694 231.19 321.77 219.267 307.062 219.267C292.354 219.267 280.43 231.19 280.43 245.898C280.43 260.607 292.354 272.53 307.062 272.53Z" fill="#FFB8B8"/>
<path id="Vector_35" d="M301.246 271.779C308.724 270.184 309.051 268.075 316.529 266.48C318.911 265.972 321.678 265.137 322.46 262.831C323.017 261.189 322.3 259.375 321.298 257.961C320.175 256.64 319.129 255.257 318.163 253.817C317.531 252.666 317.188 251.378 317.165 250.065C317.142 248.752 317.439 247.453 318.031 246.28C318.622 245.107 319.49 244.096 320.56 243.334C321.63 242.572 322.869 242.082 324.171 241.906C326.478 241.595 328.821 242.286 331.139 242.074C334.318 241.783 339.388 230.205 337.447 227.671C335.556 225.204 332.365 223.66 331.379 220.713C330.734 218.785 331.199 216.672 330.952 214.655C330.587 211.663 324.276 219.687 325.18 216.812C327.397 209.76 294.181 207.462 290.396 216.476C288.982 219.845 285.459 220.264 282.678 222.633C280.855 224.186 276.448 229.207 275.737 231.971C275.131 234.77 275.126 237.667 275.724 240.468C278.025 253.582 282.182 265.279 294.142 271.131" fill="#2F2E41"/>
<path id="Vector_36" d="M180.693 746.13C173.472 746.766 166.199 745.781 159.407 743.248C152.615 740.714 146.474 736.695 141.434 731.484C134.843 724.536 130.321 715.592 125.947 706.943C124.673 704.426 123.357 701.823 122.018 699.328C120.526 696.609 119.882 693.505 120.169 690.416C120.456 687.327 121.662 684.394 123.63 681.997C125.517 679.6 128.078 677.822 130.984 676.894C133.889 675.966 137.006 675.929 139.933 676.788L140.571 676.972L146.316 699.386C147.173 696.043 149.012 688.51 150.173 681.13L150.271 680.512L150.843 680.767C156.841 683.421 162.481 686.819 167.629 690.882C176.75 698.198 184.168 707.413 189.368 717.885C194.569 728.358 197.426 739.837 197.741 751.525L197.757 752.222L180.693 746.13Z" fill="#F2F2F2"/>
<path id="Vector_37" d="M564.941 753.72L121.191 754.027C120.875 754.027 120.572 753.902 120.349 753.679C120.125 753.455 120 753.152 120 752.837C120 752.521 120.125 752.218 120.349 751.995C120.572 751.771 120.875 751.646 121.191 751.646L564.941 751.339C565.256 751.339 565.559 751.464 565.783 751.687C566.006 751.911 566.131 752.214 566.131 752.529C566.131 752.845 566.006 753.148 565.783 753.371C565.559 753.595 565.256 753.72 564.941 753.72V753.72Z" fill="#CACACA"/>
</g>
</svg>
