<svg  zoomAndPan="magnify" viewBox="0 0 1190.25 1202.249964" preserveAspectRatio="xMidYMid meet" version="1.0"><defs><clipPath id="ff126cfe27"><path d="M 253 806.652344 L 844 806.652344 L 844 1018.859375 L 253 1018.859375 Z M 253 806.652344 " clip-rule="nonzero"/></clipPath><clipPath id="840d338582"><path d="M 55.753906 474 L 347 474 L 347 675 L 55.753906 675 Z M 55.753906 474 " clip-rule="nonzero"/></clipPath><clipPath id="1f9c7c6663"><path d="M 55.753906 465.34375 L 301 465.34375 L 301 684.296875 L 55.753906 684.296875 Z M 55.753906 465.34375 " clip-rule="nonzero"/></clipPath><clipPath id="dc10f40953"><path d="M 163 348 L 187 348 L 187 446.429688 L 163 446.429688 Z M 163 348 " clip-rule="nonzero"/></clipPath><clipPath id="12ee7e99b9"><path d="M 734.632812 561.980469 L 1140.296875 561.980469 L 1140.296875 806.429688 L 734.632812 806.429688 Z M 734.632812 561.980469 " clip-rule="nonzero"/></clipPath></defs><path fill="#83cd29" d="M 942.273438 881.765625 C 940.453125 881.765625 938.679688 882.140625 937.113281 883.03125 L 887.5 911.730469 C 884.289062 913.582031 882.335938 917.085938 882.335938 920.804688 L 882.335938 978.105469 C 882.335938 981.824219 884.289062 985.320312 887.5 987.179688 L 900.457031 994.65625 C 906.75 997.765625 909.074219 997.714844 911.9375 997.714844 C 921.257812 997.714844 926.578125 992.050781 926.578125 982.203125 L 926.578125 925.671875 C 926.578125 924.875 925.886719 924.300781 925.105469 924.300781 L 918.890625 924.300781 C 918.09375 924.300781 917.414062 924.886719 917.414062 925.671875 L 917.414062 982.230469 C 917.414062 986.59375 912.878906 990.984375 905.511719 987.296875 L 892.042969 979.382812 C 891.566406 979.121094 891.199219 978.648438 891.199219 978.117188 L 891.199219 920.816406 C 891.199219 920.277344 891.5625 919.722656 892.042969 919.445312 L 941.554688 890.847656 C 942.015625 890.582031 942.570312 890.582031 943.027344 890.847656 L 992.535156 919.445312 C 993.007812 919.730469 993.378906 920.257812 993.378906 920.816406 L 993.378906 978.117188 C 993.378906 978.664062 993.105469 979.222656 992.640625 979.488281 L 943.027344 1008.085938 C 942.589844 1008.339844 942.003906 1008.339844 941.554688 1008.085938 L 928.808594 1000.488281 C 928.429688 1000.265625 927.910156 1000.28125 927.546875 1000.488281 C 924.027344 1002.484375 923.367188 1002.71875 920.066406 1003.863281 C 919.253906 1004.148438 918.015625 1004.589844 920.488281 1005.976562 L 937.132812 1015.800781 C 938.714844 1016.71875 940.480469 1017.171875 942.292969 1017.171875 C 944.132812 1017.171875 945.871094 1016.734375 947.457031 1015.800781 L 997.070312 987.203125 C 1000.28125 985.332031 1002.230469 981.851562 1002.230469 978.128906 L 1002.230469 920.832031 C 1002.230469 917.109375 1000.28125 913.617188 997.070312 911.757812 L 947.457031 883.058594 C 945.902344 882.167969 944.117188 881.792969 942.292969 881.792969 Z M 955.546875 922.707031 C 941.421875 922.707031 933.007812 928.730469 933.007812 938.746094 C 933.007812 949.597656 941.355469 952.597656 954.917969 953.941406 C 971.136719 955.53125 972.402344 957.917969 972.402344 961.117188 C 972.402344 966.664062 967.988281 969.03125 957.550781 969.03125 C 944.4375 969.03125 941.554688 965.75 940.589844 959.203125 C 940.476562 958.503906 939.9375 957.9375 939.222656 957.9375 L 932.78125 957.9375 C 932.585938 957.941406 932.398438 957.984375 932.222656 958.058594 C 932.042969 958.136719 931.886719 958.242188 931.746094 958.378906 C 931.609375 958.515625 931.503906 958.675781 931.425781 958.855469 C 931.351562 959.035156 931.3125 959.21875 931.304688 959.414062 C 931.304688 967.777344 935.847656 977.667969 957.535156 977.667969 C 973.234375 977.667969 982.289062 971.507812 982.289062 960.679688 C 982.289062 949.972656 974.976562 947.082031 959.75 945.0625 C 944.375 943.007812 942.894531 942.027344 942.894531 938.414062 C 942.894531 935.433594 944.140625 931.449219 955.535156 931.449219 C 965.714844 931.449219 969.476562 933.648438 971.019531 940.523438 C 971.15625 941.167969 971.722656 941.695312 972.390625 941.695312 L 978.832031 941.695312 C 979.226562 941.695312 979.609375 941.453125 979.886719 941.167969 C 980.152344 940.863281 980.34375 940.523438 980.304688 940.113281 C 979.3125 928.269531 971.429688 922.703125 955.550781 922.703125 Z M 955.546875 922.707031 " fill-opacity="1" fill-rule="nonzero"/><g clip-path="url(#ff126cfe27)"><path fill="#404137" d="M 650.59375 806.652344 C 650.03125 806.65625 649.503906 806.796875 649.015625 807.074219 C 648.527344 807.359375 648.144531 807.75 647.863281 808.238281 C 647.578125 808.726562 647.4375 809.253906 647.433594 809.820312 L 647.433594 890.542969 C 647.433594 891.332031 647.066406 892.042969 646.378906 892.441406 C 646.039062 892.640625 645.671875 892.738281 645.273438 892.738281 C 644.878906 892.738281 644.511719 892.640625 644.167969 892.441406 L 631 884.84375 C 630.519531 884.566406 630.011719 884.355469 629.476562 884.210938 C 628.941406 884.066406 628.394531 883.992188 627.839844 883.992188 C 627.285156 883.992188 626.742188 884.066406 626.203125 884.210938 C 625.667969 884.355469 625.160156 884.566406 624.679688 884.84375 L 572.121094 915.230469 C 570.15625 916.367188 568.960938 918.550781 568.960938 920.824219 L 568.960938 981.601562 C 568.957031 982.15625 569.03125 982.703125 569.171875 983.242188 C 569.316406 983.78125 569.527344 984.289062 569.804688 984.769531 C 570.082031 985.253906 570.417969 985.691406 570.808594 986.082031 C 571.203125 986.476562 571.640625 986.8125 572.121094 987.089844 L 624.683594 1017.476562 C 625.164062 1017.757812 625.671875 1017.96875 626.207031 1018.113281 C 626.742188 1018.257812 627.289062 1018.332031 627.84375 1018.332031 C 628.398438 1018.332031 628.945312 1018.257812 629.480469 1018.113281 C 630.015625 1017.96875 630.523438 1017.757812 631.003906 1017.476562 L 683.566406 987.089844 C 684.046875 986.8125 684.484375 986.476562 684.878906 986.082031 C 685.269531 985.691406 685.605469 985.253906 685.882812 984.769531 C 686.160156 984.289062 686.371094 983.78125 686.515625 983.242188 C 686.65625 982.703125 686.730469 982.15625 686.726562 981.601562 L 686.726562 830.078125 C 686.726562 827.773438 685.472656 825.609375 683.464844 824.488281 L 652.175781 806.964844 C 651.683594 806.6875 651.140625 806.640625 650.59375 806.644531 Z M 312.460938 882.519531 C 311.457031 882.5625 310.515625 882.738281 309.613281 883.261719 L 257.050781 913.648438 C 256.570312 913.925781 256.132812 914.261719 255.742188 914.652344 C 255.347656 915.046875 255.011719 915.484375 254.734375 915.964844 C 254.457031 916.445312 254.246094 916.957031 254.105469 917.492188 C 253.960938 918.03125 253.890625 918.578125 253.894531 919.132812 L 254 1000.703125 C 254 1001.835938 254.585938 1002.890625 255.582031 1003.445312 C 256.558594 1004.03125 257.769531 1004.03125 258.742188 1003.445312 L 289.921875 985.507812 C 291.898438 984.332031 293.183594 982.285156 293.183594 980.019531 L 293.183594 941.925781 C 293.183594 939.652344 294.378906 937.570312 296.347656 936.441406 L 309.621094 928.738281 C 310.597656 928.167969 311.648438 927.886719 312.78125 927.894531 C 313.910156 927.886719 314.964844 928.167969 315.941406 928.738281 L 329.207031 936.433594 C 331.175781 937.566406 332.367188 939.648438 332.367188 941.921875 L 332.367188 980.011719 C 332.367188 982.28125 333.683594 984.339844 335.632812 985.496094 L 366.8125 1003.4375 C 367.792969 1004.023438 369 1004.023438 369.972656 1003.4375 C 370.9375 1002.878906 371.550781 1001.828125 371.550781 1000.695312 L 371.65625 919.128906 C 371.660156 918.570312 371.589844 918.023438 371.449219 917.488281 C 371.308594 916.949219 371.097656 916.4375 370.820312 915.957031 C 370.542969 915.476562 370.207031 915.039062 369.8125 914.644531 C 369.417969 914.253906 368.980469 913.917969 368.5 913.640625 L 315.9375 883.265625 C 315.046875 882.742188 314.101562 882.566406 313.089844 882.523438 L 312.460938 882.523438 Z M 784.789062 883.261719 C 783.660156 883.257812 782.605469 883.539062 781.628906 884.105469 L 729.0625 914.496094 C 727.101562 915.632812 725.902344 917.710938 725.902344 919.980469 L 725.902344 980.757812 C 725.902344 983.042969 727.1875 985.113281 729.167969 986.242188 L 781.308594 1016.011719 C 783.234375 1017.113281 785.582031 1017.195312 787.523438 1016.117188 L 819.125 998.492188 C 820.128906 997.9375 820.804688 996.894531 820.808594 995.75 C 820.8125 994.605469 820.21875 993.578125 819.226562 993.007812 L 766.34375 962.617188 C 765.355469 962.054688 764.660156 960.90625 764.660156 959.769531 L 764.660156 940.761719 C 764.660156 939.628906 765.363281 938.585938 766.34375 938.019531 L 782.777344 928.523438 C 783.757812 927.957031 784.957031 927.957031 785.941406 928.523438 L 802.410156 938.019531 C 802.902344 938.300781 803.285156 938.6875 803.570312 939.179688 C 803.851562 939.667969 803.992188 940.195312 803.992188 940.761719 L 803.992188 955.746094 C 803.988281 956.3125 804.128906 956.839844 804.410156 957.332031 C 804.695312 957.820312 805.082031 958.207031 805.570312 958.488281 C 806.554688 959.058594 807.75 959.0625 808.734375 958.488281 L 840.222656 940.128906 C 842.179688 938.988281 843.386719 936.90625 843.386719 934.644531 L 843.386719 919.976562 C 843.386719 919.421875 843.316406 918.875 843.171875 918.339844 C 843.027344 917.800781 842.816406 917.292969 842.539062 916.8125 C 842.261719 916.328125 841.925781 915.890625 841.535156 915.5 C 841.144531 915.105469 840.707031 914.769531 840.226562 914.492188 L 787.976562 884.101562 C 787 883.535156 785.945312 883.253906 784.816406 883.257812 Z M 627.625 928.636719 C 627.921875 928.632812 628.203125 928.703125 628.464844 928.84375 L 646.480469 939.289062 C 646.96875 939.574219 647.320312 940.097656 647.320312 940.660156 L 647.320312 961.554688 C 647.320312 962.121094 646.96875 962.644531 646.480469 962.925781 L 628.464844 973.371094 C 627.976562 973.652344 627.378906 973.652344 626.886719 973.371094 L 608.875 962.925781 C 608.382812 962.640625 608.03125 962.117188 608.03125 961.554688 L 608.03125 940.667969 C 608.03125 940.101562 608.382812 939.582031 608.875 939.296875 L 626.886719 928.851562 C 627.132812 928.710938 627.347656 928.640625 627.625 928.640625 Z M 627.625 928.636719 " fill-opacity="1" fill-rule="nonzero"/></g><path fill="#83cd29" d="M 470.355469 882.941406 C 469.226562 882.941406 468.171875 883.222656 467.195312 883.785156 L 414.628906 914.070312 C 412.664062 915.207031 411.472656 917.390625 411.472656 919.664062 L 411.472656 980.441406 C 411.46875 980.996094 411.539062 981.542969 411.683594 982.082031 C 411.824219 982.617188 412.035156 983.128906 412.3125 983.609375 C 412.589844 984.089844 412.925781 984.527344 413.320312 984.921875 C 413.710938 985.3125 414.148438 985.648438 414.628906 985.925781 L 467.195312 1016.316406 C 467.671875 1016.59375 468.179688 1016.804688 468.71875 1016.949219 C 469.253906 1017.09375 469.800781 1017.167969 470.355469 1017.167969 C 470.910156 1017.167969 471.453125 1017.09375 471.988281 1016.949219 C 472.527344 1016.804688 473.035156 1016.59375 473.515625 1016.316406 L 526.078125 985.925781 C 526.558594 985.648438 526.996094 985.3125 527.386719 984.917969 C 527.78125 984.527344 528.117188 984.089844 528.394531 983.609375 C 528.671875 983.125 528.882812 982.617188 529.023438 982.078125 C 529.167969 981.542969 529.238281 980.996094 529.238281 980.4375 L 529.238281 919.664062 C 529.238281 917.390625 528.042969 915.207031 526.074219 914.074219 L 473.511719 883.789062 C 472.535156 883.222656 471.480469 882.941406 470.351562 882.945312 Z M 784.6875 937.179688 C 784.476562 937.179688 784.242188 937.179688 784.054688 937.28125 L 773.941406 943.191406 C 773.527344 943.421875 773.316406 943.773438 773.308594 944.246094 L 773.308594 955.855469 C 773.308594 956.289062 773.5625 956.691406 773.941406 956.910156 L 784.054688 962.714844 C 784.4375 962.953125 784.824219 962.953125 785.210938 962.714844 L 795.320312 956.910156 C 795.695312 956.695312 795.953125 956.289062 795.953125 955.855469 L 795.953125 944.246094 C 795.953125 943.808594 795.699219 943.410156 795.320312 943.191406 L 785.210938 937.28125 C 785.023438 937.167969 784.894531 937.175781 784.683594 937.175781 Z M 784.6875 937.179688 " fill-opacity="1" fill-rule="nonzero"/><path fill="#00d8ff" d="M 197.472656 574.625 C 197.476562 575.3125 197.441406 576 197.375 576.6875 C 197.304688 577.371094 197.203125 578.050781 197.070312 578.726562 C 196.9375 579.402344 196.769531 580.070312 196.570312 580.726562 C 196.367188 581.386719 196.136719 582.035156 195.875 582.667969 C 195.609375 583.304688 195.316406 583.925781 194.992188 584.535156 C 194.667969 585.140625 194.3125 585.730469 193.929688 586.304688 C 193.546875 586.875 193.136719 587.429688 192.699219 587.960938 C 192.261719 588.492188 191.800781 589.003906 191.3125 589.488281 C 190.828125 589.976562 190.316406 590.4375 189.785156 590.875 C 189.25 591.3125 188.699219 591.722656 188.125 592.105469 C 187.554688 592.488281 186.964844 592.839844 186.355469 593.164062 C 185.746094 593.488281 185.125 593.785156 184.488281 594.046875 C 183.851562 594.308594 183.207031 594.542969 182.546875 594.742188 C 181.886719 594.941406 181.21875 595.109375 180.542969 595.242188 C 179.867188 595.378906 179.1875 595.476562 178.5 595.546875 C 177.816406 595.613281 177.128906 595.648438 176.441406 595.648438 C 175.75 595.648438 175.0625 595.613281 174.378906 595.546875 C 173.691406 595.476562 173.011719 595.378906 172.335938 595.242188 C 171.660156 595.109375 170.992188 594.941406 170.332031 594.742188 C 169.675781 594.542969 169.027344 594.308594 168.390625 594.046875 C 167.753906 593.785156 167.132812 593.488281 166.523438 593.164062 C 165.917969 592.839844 165.328125 592.488281 164.753906 592.105469 C 164.179688 591.722656 163.628906 591.3125 163.09375 590.875 C 162.5625 590.4375 162.054688 589.976562 161.566406 589.488281 C 161.078125 589.003906 160.617188 588.492188 160.179688 587.960938 C 159.742188 587.429688 159.332031 586.875 158.949219 586.304688 C 158.566406 585.730469 158.214844 585.140625 157.890625 584.535156 C 157.5625 583.925781 157.269531 583.304688 157.007812 582.667969 C 156.742188 582.035156 156.511719 581.386719 156.3125 580.726562 C 156.109375 580.070312 155.945312 579.402344 155.808594 578.726562 C 155.675781 578.050781 155.574219 577.371094 155.507812 576.6875 C 155.4375 576 155.40625 575.3125 155.40625 574.625 C 155.40625 573.9375 155.4375 573.25 155.507812 572.566406 C 155.574219 571.878906 155.675781 571.199219 155.808594 570.523438 C 155.945312 569.847656 156.109375 569.183594 156.3125 568.523438 C 156.511719 567.863281 156.742188 567.214844 157.007812 566.582031 C 157.269531 565.945312 157.5625 565.324219 157.890625 564.714844 C 158.214844 564.109375 158.566406 563.519531 158.949219 562.945312 C 159.332031 562.375 159.742188 561.820312 160.179688 561.289062 C 160.617188 560.757812 161.078125 560.246094 161.566406 559.761719 C 162.054688 559.273438 162.5625 558.8125 163.09375 558.375 C 163.628906 557.9375 164.179688 557.527344 164.753906 557.144531 C 165.328125 556.765625 165.917969 556.410156 166.523438 556.085938 C 167.132812 555.761719 167.753906 555.46875 168.390625 555.203125 C 169.027344 554.941406 169.675781 554.707031 170.332031 554.507812 C 170.992188 554.308594 171.660156 554.140625 172.335938 554.007812 C 173.011719 553.871094 173.691406 553.773438 174.378906 553.703125 C 175.0625 553.636719 175.75 553.601562 176.441406 553.601562 C 177.128906 553.601562 177.816406 553.636719 178.5 553.703125 C 179.1875 553.773438 179.867188 553.871094 180.542969 554.007812 C 181.21875 554.140625 181.886719 554.308594 182.546875 554.507812 C 183.207031 554.707031 183.851562 554.941406 184.488281 555.203125 C 185.125 555.46875 185.746094 555.761719 186.355469 556.085938 C 186.964844 556.410156 187.554688 556.765625 188.125 557.144531 C 188.699219 557.527344 189.25 557.9375 189.785156 558.375 C 190.316406 558.8125 190.828125 559.273438 191.3125 559.761719 C 191.800781 560.246094 192.261719 560.757812 192.699219 561.289062 C 193.136719 561.820312 193.546875 562.375 193.929688 562.945312 C 194.3125 563.519531 194.667969 564.109375 194.992188 564.714844 C 195.316406 565.324219 195.609375 565.945312 195.875 566.582031 C 196.136719 567.214844 196.367188 567.863281 196.570312 568.523438 C 196.769531 569.183594 196.9375 569.847656 197.070312 570.523438 C 197.203125 571.199219 197.304688 571.878906 197.375 572.566406 C 197.441406 573.25 197.476562 573.9375 197.472656 574.625 Z M 197.472656 574.625 " fill-opacity="1" fill-rule="nonzero"/><g clip-path="url(#840d338582)"><path stroke-linecap="butt" transform="matrix(0.419294, 0, 0, 0.419037, 63.42763, 475.049581)" fill="none" stroke-linejoin="miter" d="M 269.533642 135.628346 C 336.890206 135.628346 399.458212 145.295239 446.635755 161.534127 C 503.483577 181.110285 538.438186 210.772824 538.438186 237.629447 C 538.438186 265.623352 501.396734 297.131643 440.347279 317.360339 C 394.203841 332.648385 333.471138 340.628 269.533642 340.628 C 203.975117 340.628 141.900873 333.14245 95.226407 317.192543 C 36.189264 297.010457 0.619781 265.082677 0.619781 237.629447 C 0.619781 210.987229 33.990627 181.55774 90.03725 162.009548 C 137.391802 145.500323 201.506307 135.628346 269.524326 135.628346 Z M 269.533642 135.628346 " stroke="#00d8ff" stroke-width="24" stroke-opacity="1" stroke-miterlimit="4"/></g><g clip-path="url(#1f9c7c6663)"><path stroke-linecap="butt" transform="matrix(0.419294, 0, 0, 0.419037, 63.42763, 475.049581)" fill="none" stroke-linejoin="miter" d="M 180.740363 186.917878 C 214.390696 128.571608 254.022068 79.202404 291.659761 46.435645 C 337.011317 6.975706 380.164236 -8.480137 403.426939 4.934192 C 427.677165 18.917161 436.471715 66.748239 423.494164 129.736855 C 413.693458 177.353527 390.263062 233.947265 358.317605 289.338468 C 325.570949 346.127968 288.073 396.159032 250.938386 428.608843 C 203.956484 469.672163 158.539714 484.540721 134.764617 470.818767 C 111.678923 457.516302 102.856425 413.898759 113.924142 355.589777 C 123.277668 306.323115 146.754644 245.851433 180.731046 186.9272 Z M 180.740363 186.917878 " stroke="#00d8ff" stroke-width="24" stroke-opacity="1" stroke-miterlimit="4"/><path stroke-linecap="butt" transform="matrix(0.419294, 0, 0, 0.419037, 63.42763, 475.049581)" fill="none" stroke-linejoin="miter" d="M 180.824209 289.478298 C 147.080713 231.197281 124.097499 172.198472 114.511067 123.230113 C 102.96822 64.231304 111.129264 19.122245 134.373334 5.661306 C 158.595611 -8.368273 204.431613 7.907904 252.512834 50.60257 C 288.874199 82.884585 326.204455 131.433455 358.233759 186.768726 C 391.073577 243.502294 415.696454 300.98162 425.27357 349.353373 C 437.384708 410.561491 427.584002 457.329862 403.818222 471.089104 C 380.760477 484.438179 338.567133 470.306058 293.57891 431.591877 C 255.568567 398.88105 214.893774 348.337277 180.814893 289.468976 Z M 180.824209 289.478298 " stroke="#00d8ff" stroke-width="24" stroke-opacity="1" stroke-miterlimit="4"/></g><path fill="#00d8ff" d="M 409.929688 628.335938 L 384.148438 589.40625 C 397.175781 588.257812 408.917969 578.824219 408.917969 561.585938 C 408.917969 544.042969 396.464844 532.816406 378.992188 532.816406 L 340.621094 532.816406 L 340.621094 628.261719 L 352.507812 628.261719 L 352.507812 590.339844 L 371.554688 590.339844 L 395.894531 628.261719 Z M 377.570312 579.964844 L 352.511719 579.964844 L 352.511719 543.476562 L 377.570312 543.476562 C 388.886719 543.476562 396.613281 550.914062 396.613281 561.652344 C 396.613281 572.386719 388.878906 579.976562 377.570312 579.976562 Z M 454.175781 630.046875 C 465.496094 630.046875 474.796875 626.328125 481.671875 619.460938 L 476.515625 612.445312 C 471.070312 618.027344 463.054688 621.175781 455.179688 621.175781 C 440.292969 621.175781 431.125 610.300781 430.265625 597.28125 L 486.246094 597.28125 L 486.246094 594.5625 C 486.246094 573.816406 473.929688 557.496094 453.019531 557.496094 C 433.261719 557.496094 418.949219 573.667969 418.949219 593.703125 C 418.949219 615.3125 433.695312 629.992188 454.171875 629.992188 Z M 475.664062 589.402344 L 430.269531 589.402344 C 430.847656 578.816406 438.140625 566.355469 452.894531 566.355469 C 468.648438 566.355469 475.515625 579.09375 475.664062 589.402344 Z M 557.570312 628.328125 L 557.570312 580.820312 C 557.570312 564.078125 545.40625 557.488281 530.796875 557.488281 C 519.480469 557.488281 510.605469 561.210938 503.164062 568.941406 L 508.175781 576.378906 C 514.328125 569.796875 521.066406 566.792969 529.367188 566.792969 C 539.390625 566.792969 546.839844 572.085938 546.839844 581.386719 L 546.839844 593.835938 C 541.253906 587.394531 533.382812 584.386719 523.929688 584.386719 C 512.1875 584.386719 499.71875 591.6875 499.71875 607.140625 C 499.71875 622.167969 512.175781 630.042969 523.929688 630.042969 C 533.238281 630.042969 541.117188 626.75 546.839844 620.453125 L 546.839844 628.316406 Z M 527.796875 622.316406 C 517.773438 622.316406 510.753906 616.027344 510.753906 607.292969 C 510.753906 598.417969 517.773438 592.125 527.796875 592.125 C 535.386719 592.125 542.683594 594.984375 546.839844 600.710938 L 546.839844 613.734375 C 542.691406 619.457031 535.386719 622.324219 527.796875 622.324219 Z M 609.5 630.046875 C 622.101562 630.046875 629.542969 624.894531 634.847656 618.027344 L 627.6875 611.449219 C 623.105469 617.597656 617.234375 620.460938 610.136719 620.460938 C 595.386719 620.460938 586.230469 609.011719 586.230469 593.703125 C 586.230469 578.394531 595.390625 567.089844 610.136719 567.089844 C 617.292969 567.089844 623.164062 569.8125 627.6875 576.101562 L 634.847656 569.519531 C 629.550781 562.648438 622.101562 557.503906 609.5 557.503906 C 588.878906 557.503906 574.988281 573.246094 574.988281 593.707031 C 574.988281 614.316406 588.878906 630 609.5 630 Z M 667.359375 630.046875 C 673.652344 630.046875 677.527344 628.183594 680.25 625.613281 L 677.101562 617.597656 C 675.667969 619.171875 672.867188 620.460938 669.796875 620.460938 C 665.078125 620.460938 662.777344 616.742188 662.777344 611.585938 L 662.777344 568.65625 L 676.816406 568.65625 L 676.816406 559.214844 L 662.777344 559.214844 L 662.777344 540.324219 L 652.035156 540.324219 L 652.035156 559.214844 L 640.578125 559.214844 L 640.578125 568.660156 L 652.035156 568.660156 L 652.035156 613.886719 C 652.035156 624.191406 657.191406 630.058594 667.359375 630.058594 Z M 667.359375 630.046875 " fill-opacity="1" fill-rule="evenodd"/><path fill="#599636" d="M 170.296875 51.253906 L 180.863281 71.136719 C 183.171875 74.734375 185.835938 78.042969 188.851562 81.070312 C 197.707031 89.921875 206.128906 99.203125 213.671875 109.144531 C 231.589844 132.683594 243.679688 158.820312 252.320312 187.121094 C 257.496094 204.402344 260.308594 222.113281 260.523438 240.035156 C 261.394531 293.601562 243.03125 339.601562 205.898438 377.832031 C 199.871094 383.902344 193.394531 389.445312 186.46875 394.464844 C 182.785156 394.464844 181.066406 391.554688 179.554688 389.0625 C 176.648438 384.210938 175.019531 378.90625 174.15625 373.515625 C 172.855469 367.035156 171.992188 360.558594 172.429688 353.855469 L 172.429688 350.832031 C 172.214844 350.179688 168.976562 52.777344 170.265625 51.265625 Z M 170.296875 51.253906 " fill-opacity="1" fill-rule="nonzero"/><path fill="#6cac48" d="M 170.296875 50.617188 C 169.859375 49.742188 169.421875 50.402344 168.996094 50.828125 C 169.210938 55.144531 167.699219 59.035156 165.3125 62.710938 C 162.722656 66.394531 159.261719 69.1875 155.8125 72.214844 C 136.59375 88.847656 121.488281 108.933594 109.390625 131.394531 C 93.410156 161.632812 84.996094 194.027344 82.628906 228.15625 C 81.5625 240.472656 86.507812 283.882812 90.40625 296.402344 C 100.972656 329.667969 119.976562 357.523438 144.699219 381.710938 C 150.75 387.53125 157.226562 392.941406 163.917969 398.121094 C 165.855469 398.121094 166.078125 396.394531 166.503906 395.09375 C 167.355469 392.332031 168.003906 389.523438 168.445312 386.667969 C 170.382812 375.871094 171.46875 365.066406 172.757812 354.273438 L 170.382812 50.617188 Z M 170.296875 50.617188 " fill-opacity="1" fill-rule="nonzero"/><g clip-path="url(#dc10f40953)"><path fill="#c2bfbf" d="M 180.894531 407.632812 C 181.328125 402.667969 183.800781 398.566406 186.292969 394.464844 C 183.703125 393.398438 181.757812 391.226562 180.242188 388.839844 C 178.945312 386.675781 177.867188 383.988281 177.003906 381.710938 C 173.980469 372.640625 173.320312 363.136719 172.46875 353.847656 L 172.46875 348.222656 C 171.402344 349.09375 171.167969 356.425781 171.167969 357.511719 C 170.519531 367.445312 169.230469 377.171875 167.289062 386.667969 C 166.640625 390.546875 166.222656 394.445312 163.839844 397.898438 C 163.839844 398.332031 163.839844 398.769531 164.050781 399.410156 C 167.929688 410.855469 169.015625 422.523438 169.675781 434.402344 L 169.675781 438.71875 C 169.675781 443.898438 169.460938 442.820312 173.777344 444.535156 C 175.503906 445.1875 177.460938 445.410156 179.175781 446.699219 C 180.476562 446.699219 180.691406 445.632812 180.691406 444.761719 L 180.039062 437.632812 L 180.039062 417.75 C 179.828125 414.296875 180.476562 410.835938 180.914062 407.59375 Z M 180.894531 407.632812 " fill-opacity="1" fill-rule="nonzero"/></g><path fill="#47474a" d="M 344.839844 317.300781 L 344.839844 337.867188 C 344.820312 338.683594 344.863281 339.496094 344.980469 340.304688 C 345.246094 342.742188 346.742188 344.226562 348.941406 344.910156 C 350.992188 345.449219 353.070312 345.855469 355.175781 346.128906 C 356.394531 346.265625 356.800781 346.800781 356.941406 348.109375 C 357.078125 352.710938 356.671875 353.257812 352.207031 352.980469 C 341.792969 352.433594 331.367188 352.308594 320.953125 352.980469 L 319.964844 352.980469 C 316.714844 353.117188 316.449219 352.839844 316.449219 349.59375 C 316.449219 349.046875 316.585938 348.375 316.585938 347.832031 C 316.585938 346.839844 317.261719 346.34375 318.210938 346.34375 C 320.390625 346.078125 322.410156 345.53125 324.449219 345.125 C 327.289062 344.453125 328.902344 342.691406 329.179688 339.847656 C 329.574219 336.738281 329.574219 333.492188 329.574219 330.371094 L 329.714844 294.105469 C 329.738281 293.582031 329.683594 293.0625 329.558594 292.550781 C 329.433594 292.039062 329.242188 291.554688 328.976562 291.101562 C 328.714844 290.644531 328.394531 290.234375 328.011719 289.867188 C 327.632812 289.503906 327.210938 289.199219 326.746094 288.957031 C 324.289062 287.59375 321.714844 286.507812 319.023438 285.707031 C 318.210938 285.441406 317.398438 285.3125 316.726562 284.894531 C 314.746094 283.945312 314.695312 282.191406 316.585938 281.101562 C 317.261719 280.707031 318.070312 280.429688 318.882812 280.292969 C 327.117188 279.078125 335.140625 277.046875 342.960938 274.199219 C 344.585938 273.65625 344.992188 273.804688 345.140625 275.417969 C 345.277344 276.410156 345.140625 277.597656 345 278.527344 C 344.734375 280.292969 344.734375 282.042969 344.734375 283.679688 C 344.734375 284.351562 344.871094 285.035156 345.542969 285.441406 C 346.21875 285.847656 346.902344 285.441406 347.523438 285.042969 C 350.367188 282.867188 353.207031 280.847656 356.316406 279.101562 C 360.769531 276.667969 365.523438 274.5 370.671875 273.824219 C 376.90625 273.011719 382.304688 274.636719 387.046875 278.695312 C 389.015625 280.460938 390.726562 282.445312 392.183594 284.648438 C 393.539062 286.628906 393.667969 286.679688 395.429688 285.320312 C 400.578125 281.53125 405.984375 278.152344 411.804688 275.714844 C 417.894531 273.140625 424.121094 272.746094 430.339844 274.902344 C 436.695312 277.203125 441.03125 281.667969 443.605469 287.757812 C 445.78125 292.628906 446.714844 297.660156 446.714844 302.910156 L 446.714844 339.175781 C 446.714844 341.609375 447.703125 343.136719 450.097656 344.324219 C 452.671875 345.316406 455.515625 345.808594 458.21875 346.355469 C 459.980469 346.75 459.980469 346.75 459.980469 348.535156 C 459.710938 352.988281 459.304688 353.265625 454.96875 352.988281 C 444.101562 352.378906 433.234375 352.378906 422.367188 352.988281 C 420.191406 353.128906 420.191406 353.128906 420.070312 350.960938 L 420.070312 350.285156 C 419.933594 346.621094 419.933594 346.621094 423.457031 345.828125 L 426.972656 344.878906 C 427.566406 344.738281 428.125 344.503906 428.640625 344.179688 C 429.15625 343.851562 429.605469 343.445312 429.988281 342.96875 C 430.367188 342.488281 430.660156 341.960938 430.863281 341.382812 C 431.066406 340.808594 431.167969 340.210938 431.171875 339.601562 L 431.566406 329.449219 L 431.300781 302.929688 C 431.195312 300.546875 430.699219 298.242188 429.8125 296.027344 C 426.429688 287.769531 418.992188 284.796875 411.816406 285.609375 C 406.398438 286.152344 401.667969 288.3125 397.203125 291.433594 C 396.253906 292.105469 395.578125 292.917969 395.71875 294.273438 C 396.9375 302.941406 396.113281 311.605469 396.261719 320.261719 L 396.261719 339.074219 C 396.261719 342.464844 397.617188 344.085938 400.867188 344.898438 L 407.101562 346.253906 C 408.054688 346.394531 408.589844 346.800781 408.589844 347.878906 L 408.589844 348.871094 C 408.449219 352.664062 408.191406 352.832031 404.390625 352.792969 C 393.570312 352.246094 382.738281 352.394531 372.058594 352.792969 C 368.394531 352.929688 368.097656 352.523438 368.265625 348.832031 C 368.402344 346.652344 368.660156 346.53125 370.699219 346.128906 L 375.15625 345.316406 C 379.117188 344.503906 380.570312 343.015625 380.839844 338.820312 L 381.234375 329.746094 L 380.96875 302.542969 C 380.699219 299.15625 379.976562 295.910156 378.125 292.800781 C 375.421875 287.789062 371.195312 285.222656 365.402344 284.945312 C 359.582031 284.550781 354.445312 286.707031 349.5625 289.402344 C 346.179688 291.382812 344.691406 293.730469 344.960938 297.660156 L 344.960938 317.417969 Z M 599.738281 318.121094 L 599.738281 337.203125 C 599.757812 338.5625 599.847656 339.914062 600.003906 341.265625 C 600.035156 341.714844 600.132812 342.148438 600.304688 342.5625 C 600.472656 342.980469 600.703125 343.359375 600.996094 343.703125 C 601.289062 344.042969 601.628906 344.332031 602.015625 344.5625 C 602.402344 344.796875 602.8125 344.960938 603.253906 345.058594 C 605.59375 345.742188 607.984375 346.148438 610.421875 346.277344 C 611.777344 346.414062 612.042969 346.949219 612.183594 348.039062 L 612.183594 348.988281 C 612.042969 353.722656 611.507812 354.265625 606.90625 354 C 596.609375 353.328125 586.34375 353.457031 576.058594 354 L 572.097656 354.140625 C 571.285156 354.140625 571.105469 353.742188 570.878906 353.1875 C 570.480469 351.292969 570.480469 349.398438 570.878906 347.503906 C 571.019531 346.691406 571.550781 346.511719 572.363281 346.285156 C 574.34375 346.019531 576.027344 345.613281 577.910156 345.296875 C 581.292969 344.484375 582.511719 343.117188 582.640625 339.609375 L 583.035156 328.242188 L 583.035156 294.949219 C 583.035156 292.511719 582.085938 291.027344 579.929688 289.9375 C 577.492188 288.582031 574.917969 287.640625 572.207031 286.6875 C 571.394531 286.421875 570.582031 286.144531 569.910156 285.738281 C 568.148438 284.519531 567.929688 282.765625 569.640625 281.410156 C 570.429688 280.765625 571.328125 280.402344 572.34375 280.320312 C 581.007812 278.964844 589.390625 277.074219 597.511719 273.824219 C 598.460938 273.429688 598.867188 273.6875 599.273438 274.5 C 599.679688 275.308594 599.816406 276.261719 599.667969 277.203125 L 599.273438 283.558594 C 599.273438 284.371094 598.875 285.539062 599.539062 285.855469 C 600.351562 286.402344 600.894531 285.183594 601.570312 284.867188 C 605.582031 281.5 609.957031 278.703125 614.695312 276.480469 C 618.894531 274.5 623.210938 273.230469 628.089844 273.507812 C 637.160156 274.050781 643.65625 278.65625 647.84375 286.640625 C 650.019531 290.839844 650.949219 295.433594 651.355469 300.175781 L 651.753906 310.078125 L 651.890625 339.988281 C 652.03125 342.285156 652.84375 343.78125 655.140625 344.59375 C 657.523438 345.386719 659.960938 345.976562 662.445312 346.355469 C 664.621094 346.621094 664.742188 347.027344 664.878906 349.058594 L 664.878906 349.730469 C 664.613281 354.335938 664.335938 354.464844 659.730469 354.1875 C 649.632812 353.648438 639.53125 353.648438 629.429688 354.1875 C 628.070312 354.328125 626.726562 354.1875 625.46875 354.328125 C 624.65625 354.328125 624.113281 354.1875 623.984375 353.375 C 623.714844 351.613281 623.4375 349.859375 623.84375 347.960938 C 623.984375 347.148438 624.390625 346.742188 625.328125 346.601562 L 631.566406 345.613281 C 633.746094 345.066406 634.953125 343.632812 635.230469 341.652344 L 635.496094 337.859375 L 635.359375 309.574219 C 635.359375 306.328125 635.21875 303.078125 634.546875 299.832031 C 632.921875 292.898438 627.644531 287.945312 620.488281 287.253906 C 614.25 286.578125 608.609375 288.203125 603.441406 291.582031 C 600.867188 293.207031 599.777344 295.503906 599.777344 298.34375 L 599.777344 318.785156 C 599.777344 318.390625 599.777344 318.390625 599.917969 318.390625 Z M 599.738281 318.121094 " fill-opacity="1" fill-rule="nonzero"/><path fill="#c2bfbf" d="M 995.96875 279.816406 C 994.480469 269.933594 990.820312 261.140625 984.464844 253.425781 C 981.695312 250.015625 978.546875 247.007812 975.015625 244.394531 C 971.488281 241.78125 967.691406 239.648438 963.625 237.996094 C 955.109375 234.480469 946.03125 233.390625 936.835938 233.125 C 933.042969 232.984375 881.363281 233.796875 877.574219 233.125 C 876.621094 232.984375 875.949219 233.261719 875.394531 234.074219 C 874.722656 235.0625 874.039062 236.105469 873.632812 237.183594 C 872.007812 240.847656 872.007812 240.570312 875.929688 241.105469 C 879.175781 241.648438 882.285156 241.917969 885.402344 242.867188 C 888.246094 243.820312 890.273438 245.441406 890.949219 248.550781 C 891.214844 250.039062 891.492188 297.671875 891.492188 319.875 L 890.949219 335.71875 C 890.808594 336.9375 890.679688 338.15625 890.273438 339.234375 C 889.730469 340.859375 888.789062 342.207031 887.164062 342.898438 C 885.363281 343.746094 883.46875 344.242188 881.484375 344.382812 C 877.820312 344.78125 877.285156 344.929688 876.066406 348.988281 L 875.671875 350.476562 C 875.40625 352.238281 875.53125 352.503906 877.296875 352.503906 L 917.746094 352.902344 L 933.585938 352.632812 L 944.546875 351.277344 C 956.992188 348.980469 968.089844 343.828125 977.554688 335.582031 C 983.011719 330.757812 987.34375 325.074219 990.542969 318.527344 C 994.332031 310.953125 995.957031 302.683594 996.363281 294.304688 C 997.035156 289.570312 996.757812 284.699219 995.96875 279.824219 Z M 976.34375 299.027344 C 975.800781 307.691406 974.046875 316.082031 969.582031 323.65625 C 963.902344 333.539062 955.78125 340.441406 944.554688 342.867188 C 939.683594 343.859375 934.816406 344.355469 929.707031 343.679688 C 926.042969 343.285156 922.539062 342.867188 919.152344 341.652344 C 913.0625 339.472656 910.894531 335.710938 910.765625 329.765625 L 910.628906 248.164062 C 910.628906 243.292969 912.808594 242.222656 916.3125 242.074219 C 921.589844 241.679688 927.003906 241.808594 932.28125 242.34375 C 937.925781 242.890625 943.382812 244.210938 948.65625 246.304688 C 952.578125 247.9375 956.140625 250.152344 959.347656 252.9375 C 966.652344 259.179688 971.523438 267 974.195312 276.210938 C 976.375 283.660156 976.769531 291.234375 976.375 298.808594 Z M 1108.410156 312.296875 C 1108.410156 311.484375 1108.410156 310.8125 1108.273438 310 C 1107.054688 302.554688 1103.125 296.871094 1097.046875 292.542969 C 1093.125 289.699219 1088.660156 287.808594 1084.058594 286.453125 C 1083.246094 286.183594 1082.574219 285.90625 1081.761719 285.777344 C 1081.898438 285.105469 1082.304688 284.964844 1082.710938 284.828125 C 1085.414062 283.46875 1087.988281 281.984375 1090.285156 279.953125 C 1094.484375 276.4375 1097.214844 272.101562 1098.671875 266.824219 C 1099.480469 263.980469 1099.480469 261.140625 1099.214844 258.15625 C 1099.105469 256.414062 1098.800781 254.707031 1098.304688 253.03125 C 1097.8125 251.355469 1097.136719 249.753906 1096.28125 248.230469 C 1095.425781 246.707031 1094.410156 245.300781 1093.238281 244.003906 C 1092.066406 242.710938 1090.765625 241.5625 1089.335938 240.558594 C 1083.097656 235.957031 1075.800781 234.0625 1068.226562 233.925781 C 1053.613281 233.65625 1038.875 233.925781 1024.269531 233.925781 C 1020.074219 233.925781 1015.886719 234.191406 1011.550781 233.527344 C 1010.738281 233.390625 1009.570312 233.132812 1008.976562 234.074219 C 1007.984375 235.835938 1006.796875 237.589844 1006.402344 239.621094 C 1006.261719 240.570312 1006.539062 241.105469 1007.621094 241.242188 L 1016.957031 242.601562 C 1020.617188 243.144531 1023.191406 245.175781 1023.449219 248.421875 C 1023.714844 250.671875 1023.847656 252.925781 1023.84375 255.1875 L 1023.578125 280.488281 L 1023.441406 330.558594 C 1023.441406 333.53125 1023.042969 336.382812 1022.488281 339.351562 C 1022.421875 339.824219 1022.289062 340.277344 1022.09375 340.710938 C 1021.894531 341.144531 1021.640625 341.542969 1021.328125 341.902344 C 1021.019531 342.261719 1020.664062 342.570312 1020.261719 342.828125 C 1019.859375 343.085938 1019.433594 343.28125 1018.976562 343.414062 C 1016.273438 344.226562 1013.699219 345.039062 1010.855469 345.039062 C 1010.476562 345 1010.101562 345.03125 1009.730469 345.121094 C 1009.363281 345.210938 1009.015625 345.363281 1008.699219 345.570312 C 1008.378906 345.78125 1008.101562 346.035156 1007.871094 346.339844 C 1007.636719 346.640625 1007.460938 346.972656 1007.34375 347.335938 C 1006.796875 348.554688 1006.351562 349.910156 1006.125 351.128906 C 1005.855469 352.753906 1006.261719 353.308594 1007.886719 353.109375 C 1009.105469 352.96875 1053.753906 354.058594 1062.140625 353.246094 C 1067.148438 352.703125 1072.039062 352.03125 1077.019531 350.542969 C 1085.53125 347.839844 1093.394531 343.910156 1099.609375 337.273438 C 1104.757812 331.855469 1107.726562 325.359375 1107.996094 317.785156 C 1108.390625 316.023438 1108.390625 314.269531 1108.390625 312.367188 Z M 1042.792969 256.839844 L 1043.191406 246.015625 C 1043.191406 243.988281 1044.003906 243.046875 1046.03125 242.628906 C 1049.277344 241.957031 1052.527344 242.234375 1055.773438 242.363281 C 1059.019531 242.628906 1062.128906 243.035156 1065.375 243.988281 C 1071.316406 245.75 1075.929688 249.136719 1078.640625 254.8125 C 1079.886719 257.421875 1080.519531 260.175781 1080.535156 263.070312 C 1080.671875 266.863281 1080.394531 270.515625 1078.910156 274.160156 C 1076.613281 279.171875 1072.96875 282.421875 1067.683594 283.371094 C 1062.394531 284.320312 1047.386719 283.914062 1045.089844 283.914062 C 1043.0625 283.914062 1042.914062 283.648438 1042.914062 281.617188 L 1042.914062 268.875 C 1042.59375 264.90625 1042.546875 260.933594 1042.773438 256.960938 Z M 1086.75 329.648438 C 1084.453125 335.738281 1080.257812 339.949219 1074.304688 342.226562 C 1071.058594 343.445312 1067.8125 344.207031 1064.40625 343.988281 C 1060.207031 343.847656 1056.019531 343.988281 1051.832031 343.175781 C 1046.152344 341.957031 1043.578125 336.539062 1043.171875 332.621094 C 1042.496094 325.71875 1042.902344 318.675781 1042.773438 313.535156 L 1042.773438 295.671875 C 1042.773438 293.492188 1043.042969 292.828125 1045.347656 292.828125 L 1058.070312 292.96875 L 1066.734375 293.957031 C 1072.820312 295.3125 1078.367188 297.621094 1082.703125 302.34375 C 1086.214844 306.136719 1088.117188 310.734375 1088.523438 315.746094 C 1088.917969 320.476562 1088.660156 325.082031 1086.898438 329.550781 Z M 1086.75 329.648438 " fill-opacity="1" fill-rule="nonzero"/><path fill="#47474a" d="M 743.019531 288.878906 L 746.535156 289.421875 C 750.328125 289.5625 754.792969 288.203125 756.140625 282.925781 C 756.898438 280.351562 756.898438 277.777344 756.140625 275.203125 C 755.328125 275.203125 754.921875 275.875 754.515625 276.152344 C 752.484375 277.777344 750.1875 278.726562 747.753906 278.996094 C 742.882812 279.539062 738.011719 279.261719 733.28125 277.507812 L 726.648438 275.210938 C 721.980469 273.683594 717.195312 273.054688 712.292969 273.328125 C 705.390625 273.875 698.898438 276.171875 692.808594 279.421875 C 686.3125 282.9375 681.71875 288.214844 679.542969 295.394531 C 678.324219 299.59375 678.1875 303.910156 678.730469 308.246094 C 680.085938 318.132812 685.226562 325.035156 694.421875 328.6875 C 694.964844 328.828125 695.371094 329.082031 695.90625 329.234375 C 697.125 329.90625 697.261719 330.589844 696.175781 331.53125 L 692.789062 333.828125 L 684.671875 338.839844 C 682.640625 340.054688 682.375 341.015625 683.046875 343.167969 C 683.867188 345.746094 685.308594 347.910156 687.375 349.664062 C 689.242188 351.265625 691.316406 352.53125 693.601562 353.457031 C 695.085938 354.128906 695.085938 354.445312 693.738281 355.632812 L 686.015625 361.179688 C 683.441406 363.160156 680.867188 365.140625 678.710938 367.675781 C 677.960938 368.480469 677.320312 369.363281 676.785156 370.324219 C 676.253906 371.285156 675.84375 372.296875 675.5625 373.359375 C 675.277344 374.421875 675.128906 375.503906 675.113281 376.601562 C 675.09375 377.703125 675.210938 378.785156 675.464844 379.855469 C 675.964844 382.207031 676.816406 384.421875 678.019531 386.5 C 679.21875 388.582031 680.710938 390.425781 682.492188 392.039062 C 686.066406 395.347656 690.214844 397.601562 694.9375 398.800781 C 702.511719 400.980469 710.359375 401.097656 718.074219 399.613281 C 729.160156 397.582031 738.863281 392.679688 746.484375 384.324219 C 751.761719 378.777344 754.871094 372.28125 755.148438 364.515625 C 755.222656 363.402344 755.199219 362.292969 755.074219 361.183594 C 754.953125 360.074219 754.734375 358.980469 754.417969 357.910156 C 754.105469 356.839844 753.699219 355.804688 753.203125 354.804688 C 752.707031 353.804688 752.125 352.855469 751.460938 351.960938 C 750.796875 351.0625 750.0625 350.230469 749.25 349.460938 C 748.441406 348.695312 747.570312 348.003906 746.636719 347.390625 C 745.707031 346.777344 744.726562 346.25 743.703125 345.804688 C 742.679688 345.363281 741.621094 345.015625 740.535156 344.761719 L 733.230469 343.402344 L 710.90625 341.421875 C 708.46875 341.285156 706.035156 340.878906 704.003906 339.660156 C 701.429688 338.035156 700.757812 334.925781 702.382812 332.898438 C 703.597656 331.410156 705.085938 330.460938 706.984375 330.320312 L 711.3125 329.925781 C 715.589844 329.492188 719.683594 328.382812 723.597656 326.597656 C 727.511719 324.8125 731.035156 322.449219 734.171875 319.507812 C 735.84375 317.957031 737.269531 316.203125 738.441406 314.246094 C 739.617188 312.289062 740.492188 310.207031 741.070312 308 C 742.695312 302.175781 742.695312 296.117188 741.339844 290.175781 C 740.941406 288.6875 741.070312 288.550781 742.960938 288.816406 Z M 709.855469 356.289062 C 710.667969 356.425781 711.480469 356.289062 712.292969 356.289062 C 717.972656 356.554688 723.796875 356.960938 729.339844 358.464844 C 731.152344 359.003906 732.910156 359.679688 734.617188 360.496094 C 740.03125 363.46875 742.0625 368.617188 741.378906 374.164062 C 740.566406 380.253906 737.179688 384.582031 731.902344 387.433594 C 728.390625 389.414062 724.457031 390.273438 720.398438 390.679688 C 718.914062 390.820312 717.558594 390.679688 716.074219 390.679688 C 711.339844 390.820312 706.738281 390.285156 702.273438 388.382812 C 699.164062 387.164062 696.589844 385.414062 694.292969 382.964844 C 689.5625 378.234375 687.363281 369.566406 694.433594 362.527344 C 698.757812 358.566406 703.640625 355.761719 709.855469 356.289062 Z M 725.28125 314.0625 C 722.4375 321.230469 716.210938 323.398438 709.996094 322.449219 C 704.3125 321.636719 700.113281 318.527344 697.421875 313.378906 C 693.90625 306.476562 692.964844 299.316406 694.984375 291.859375 C 696.472656 286.3125 699.855469 282.113281 705.808594 281.164062 C 713.378906 279.804688 720.65625 282.519531 724.476562 290.09375 C 726.457031 293.757812 727.320312 298.214844 727.320312 304.574219 C 727.179688 307.148438 726.648438 310.664062 725.289062 314.050781 Z M 554.820312 304.851562 C 553.605469 297.542969 550.902344 290.90625 545.890625 285.363281 C 538.445312 277.101562 528.980469 273.476562 518.289062 273.449219 C 508.953125 273.308594 500.171875 276.023438 492.3125 280.894531 C 490.398438 282.042969 488.609375 283.359375 486.945312 284.84375 C 485.277344 286.328125 483.769531 287.960938 482.414062 289.730469 C 481.058594 291.503906 479.882812 293.390625 478.882812 295.386719 C 477.886719 297.382812 477.085938 299.453125 476.484375 301.601562 C 474.1875 309.457031 474.304688 317.449219 476.085938 325.417969 C 480.820312 346.808594 497.332031 356 517.074219 354.652344 C 522.894531 354.257812 528.4375 352.355469 533.703125 349.78125 C 541.554688 346.117188 547.238281 340.304688 551.160156 332.589844 C 554.265625 326.230469 555.613281 319.457031 555.484375 311.742188 L 554.8125 304.839844 Z M 535.617188 334.898438 C 535.375 335.65625 535.082031 336.390625 534.734375 337.105469 C 534.386719 337.820312 533.988281 338.503906 533.542969 339.164062 C 533.09375 339.820312 532.605469 340.441406 532.066406 341.027344 C 531.53125 341.613281 530.953125 342.15625 530.339844 342.65625 C 529.722656 343.160156 529.074219 343.617188 528.394531 344.023438 C 527.710938 344.429688 527.003906 344.789062 526.269531 345.09375 C 525.535156 345.398438 524.785156 345.648438 524.015625 345.847656 C 523.246094 346.042969 522.464844 346.183594 521.675781 346.265625 C 515.734375 347.078125 510.171875 345.59375 505.171875 342.066406 C 501.511719 339.371094 498.667969 335.988281 496.648438 331.917969 C 491.105469 320.546875 490.15625 308.644531 492.984375 296.464844 C 493.441406 294.578125 494.152344 292.796875 495.121094 291.113281 C 496.085938 289.433594 497.269531 287.921875 498.667969 286.578125 C 503.679688 281.976562 509.488281 280.894531 515.992188 282.253906 C 522.230469 283.609375 526.953125 286.984375 530.84375 292.136719 C 534.734375 297.285156 536.527344 303.226562 537.605469 309.464844 C 538.148438 312.574219 538.148438 315.824219 538.277344 317.855469 C 538.277344 324.351562 537.734375 329.738281 535.703125 334.90625 Z M 850.4375 305.941406 C 849.445312 298.085938 846.515625 290.917969 840.960938 284.964844 C 833.65625 276.984375 824.183594 273.597656 813.636719 273.457031 C 804.570312 273.320312 796.183594 275.894531 788.472656 280.359375 C 779.808594 285.511719 773.859375 292.808594 771.5625 302.691406 C 770.882812 305.367188 770.441406 308.082031 770.234375 310.832031 C 770.03125 313.585938 770.066406 316.335938 770.34375 319.082031 C 770.621094 321.828125 771.132812 324.527344 771.882812 327.183594 C 772.632812 329.839844 773.609375 332.410156 774.808594 334.898438 C 779.265625 344.375 786.847656 350.464844 796.867188 353.167969 C 807.957031 356.140625 818.519531 354.792969 828.796875 349.78125 C 837.726562 345.453125 844.082031 338.691406 847.734375 329.480469 C 849.910156 324.0625 850.703125 318.25 850.84375 311.476562 C 850.980469 310.257812 850.703125 308.089844 850.445312 305.929688 Z M 831.765625 333.144531 C 829.585938 340.453125 825.003906 345.1875 817.292969 346.277344 C 811.609375 347.085938 806.203125 345.730469 801.324219 342.484375 C 797.125 339.640625 794.15625 335.847656 791.988281 331.390625 C 789.550781 326.65625 788.195312 321.648438 787.660156 316.507812 C 786.847656 310.148438 786.847656 303.929688 788.332031 297.5625 C 788.617188 296.304688 789.023438 295.085938 789.550781 293.910156 C 793.34375 284.429688 801.726562 280.101562 811.609375 282.273438 C 818.242188 283.757812 823.242188 287.421875 827.03125 292.96875 C 830.695312 298.382812 832.449219 304.335938 833.269531 310.792969 C 833.664062 313.367188 833.8125 316.070312 833.664062 318.367188 C 833.664062 323.648438 833.269531 328.519531 831.6875 333.253906 Z M 831.765625 333.144531 " fill-opacity="1" fill-rule="nonzero"/><g clip-path="url(#12ee7e99b9)"><path fill="#000000" d="M 830.382812 625.730469 L 906.875 625.730469 L 906.875 631.804688 L 837.394531 631.804688 L 837.394531 677.515625 L 902.730469 677.515625 L 902.730469 683.59375 L 837.394531 683.59375 L 837.394531 733.78125 L 907.664062 733.78125 L 907.664062 739.859375 L 830.382812 739.859375 Z M 913.726562 625.730469 L 921.851562 625.730469 L 957.867188 675.917969 L 994.675781 625.730469 L 1044.742188 561.980469 L 962.484375 681.195312 L 1004.875 739.859375 L 996.425781 739.859375 L 957.867188 686.46875 L 919.144531 739.859375 L 910.859375 739.859375 L 953.558594 681.195312 Z M 1007.902344 631.804688 L 1007.902344 625.730469 L 1095.070312 625.730469 L 1095.070312 631.804688 L 1054.910156 631.804688 L 1054.910156 739.859375 L 1047.902344 739.859375 L 1047.902344 631.804688 Z M 734.691406 625.730469 L 743.457031 625.730469 L 864.3125 806.414062 L 814.371094 739.859375 L 742.027344 634.367188 L 741.707031 739.859375 L 734.695312 739.859375 L 734.695312 625.730469 Z M 1094.355469 731.957031 C 1092.929688 731.957031 1091.855469 730.839844 1091.855469 729.40625 C 1091.855469 727.976562 1092.929688 726.867188 1094.355469 726.867188 C 1095.808594 726.867188 1096.867188 727.976562 1096.867188 729.40625 C 1096.867188 730.839844 1095.808594 731.957031 1094.355469 731.957031 Z M 1101.25 725.261719 L 1105.003906 725.261719 C 1105.050781 727.292969 1106.539062 728.65625 1108.71875 728.65625 C 1111.15625 728.65625 1112.535156 727.191406 1112.535156 724.445312 L 1112.535156 707.042969 L 1116.359375 707.042969 L 1116.359375 724.460938 C 1116.359375 729.40625 1113.492188 732.257812 1108.757812 732.257812 C 1104.304688 732.257812 1101.25 729.496094 1101.25 725.261719 Z M 1121.359375 725.039062 L 1125.144531 725.039062 C 1125.460938 727.382812 1127.75 728.859375 1131.046875 728.859375 C 1134.113281 728.859375 1136.359375 727.277344 1136.359375 725.09375 C 1136.359375 723.21875 1134.925781 722.085938 1131.671875 721.320312 L 1128.503906 720.550781 C 1124.050781 719.515625 1122.023438 717.363281 1122.023438 713.746094 C 1122.023438 709.363281 1125.605469 706.449219 1130.976562 706.449219 C 1135.972656 706.449219 1139.617188 709.363281 1139.839844 713.507812 L 1136.125 713.507812 C 1135.765625 711.238281 1133.785156 709.820312 1130.917969 709.820312 C 1127.902344 709.820312 1125.890625 711.277344 1125.890625 713.492188 C 1125.890625 715.25 1127.1875 716.253906 1130.398438 717.007812 L 1133.105469 717.671875 C 1138.152344 718.851562 1140.234375 720.898438 1140.234375 724.59375 C 1140.234375 729.304688 1136.582031 732.257812 1130.753906 732.257812 C 1125.296875 732.257812 1121.628906 729.445312 1121.359375 725.039062 Z M 1121.359375 725.039062 " fill-opacity="1" fill-rule="nonzero"/></g></svg>